<svg xmlns="http://www.w3.org/2000/svg" width="24" height="24" viewBox="0 0 24 24">
    <path fill="#FFF" fill-rule="evenodd" d="M13.37 1.542c.225.212.39.465.496.736C16.76 3.123 19 5.94 19 10c0 2.625.532 4.102 1.515 5.177.244.266 1.101 1.038 1.197 1.135l.288.292v3.41l-6.126.001a3.941 3.941 0 0 1-1.786 2.408 4.008 4.008 0 0 1-4.176 0c-1.041-.636-1.618-1.346-1.824-2.408H2v-3.411l.288-.292c.104-.105.956-.87 1.198-1.133C4.469 14.11 5 12.634 5 10c0-4.07 2.235-6.882 5.135-7.724a2 2 0 0 1 3.234-.734zm.366 18.473h-3.557c.142.262.382.46.775.7.642.392 1.45.392 2.092 0 .297-.18.529-.42.69-.7zM12 4.012C9.333 4.012 7 6.22 7 10c0 3.118-.706 5.08-2.042 6.533-.21.228-.662.648-.958.92v.561h16v-.562c-.298-.275-.75-.695-.96-.925C17.706 15.07 17 13.107 17 10c0-3.769-2.34-5.988-5-5.988z" opacity=".8"/>
</svg>
