<svg xmlns="http://www.w3.org/2000/svg" width="16" height="16" viewBox="0 0 16 16">
    <path fill="#FFF" fill-rule="evenodd" d="M8.913 1.028c.15.142.261.31.331.492 1.93.563 3.423 2.44 3.423 5.147 0 1.75.354 2.735 1.01 3.451.162.178.734.692.798.757l.192.194v2.274H10.58l-.053.186a2.672 2.672 0 0 1-3.92 1.42c-.694-.424-1.078-.898-1.216-1.605l-4.059-.001v-2.274l.192-.194c.07-.07.638-.58.799-.755.655-.713 1.01-1.697 1.01-3.453 0-2.714 1.49-4.588 3.423-5.15a1.333 1.333 0 0 1 2.156-.489zm.244 12.316l-2.37-.001.046.077c.098.139.247.255.47.39a1.339 1.339 0 0 0 1.854-.466zM8 2.674c-1.778 0-3.333 1.473-3.333 3.993 0 2.078-.47 3.386-1.361 4.355-.14.152-.442.432-.64.613v.374h10.667v-.374c-.199-.183-.5-.463-.64-.617-.889-.971-1.36-2.28-1.36-4.351 0-2.513-1.56-3.992-3.333-3.992zm0 6.658a.667.667 0 1 1 0 1.334.667.667 0 0 1 0-1.334zm.67-4.666v4H7.334v-4H8.67z"/>
</svg>
