<svg xmlns="http://www.w3.org/2000/svg" width="23" height="23" viewBox="0 0 23 23">
    <path fill="#7650B4" fill-rule="evenodd" d="M12.812 1.478c.216.203.375.444.476.704 1.422.415 2.679 1.327 3.566 2.64L15.49 6.25c-.876-1.55-2.37-2.406-3.989-2.406-2.556 0-4.792 2.115-4.792 5.736 0 2.986-.676 4.865-1.956 6.258-.201.218-.635.62-.919.88v.539h15.334v-.539c-.286-.263-.719-.665-.92-.886-.33-.36-.62-.753-.869-1.188l1.425-1.425c.226.515.513.943.858 1.32.233.255 1.054.994 1.146 1.087l.276.28v3.266h-5.87c-.24.944-.83 1.77-1.712 2.308-1.229.749-2.773.749-4.002 0-.998-.61-1.55-1.29-1.748-2.308H1.917v-3.266l.276-.28c.1-.1.916-.833 1.148-1.085.942-1.024 1.45-2.438 1.45-4.961 0-3.9 2.143-6.593 4.922-7.4.1-.259.26-.5.475-.702.737-.693 1.887-.693 2.624 0zm.352 17.694h-3.41c.136.252.367.442.744.672.615.376 1.389.376 2.004 0 .285-.174.508-.404.662-.672zM18.49 6.99l1.355 1.355-5.469 5.47-3.553-3.553 1.356-1.355 2.197 2.197 4.114-4.114z"/>
</svg>
