<svg xmlns="http://www.w3.org/2000/svg" width="62" height="46" viewBox="0 0 62 46">
    <g fill="#FFF" fill-rule="nonzero">
        <path d="M60.06 36.3h-2.161c.23-.45.361-.96.361-1.5V6c0-1.82-1.48-3.3-3.3-3.3H35.257A5.223 5.223 0 0 0 30.72.06a5.223 5.223 0 0 0-4.537 2.64H6.48c-1.82 0-3.3 1.48-3.3 3.3v1.397a.9.9 0 1 0 1.8 0V6c0-.827.673-1.5 1.5-1.5h19.078a5.243 5.243 0 0 0 .042 1.8H7.92c-.629 0-1.14.511-1.14 1.14v25.92c0 .629.511 1.14 1.14 1.14h45.6c.629 0 1.14-.511 1.14-1.14v-3.039a.9.9 0 1 0-1.8 0V32.7H8.58V8.1h17.749c.218.338.474.65.762.929A5.95 5.95 0 0 0 23.1 14.64v4.08a3.784 3.784 0 0 0 3.78 3.78h7.68a3.784 3.784 0 0 0 3.78-3.78v-4.08a5.95 5.95 0 0 0-3.99-5.611c.287-.28.543-.59.761-.929H52.86v18.381a.9.9 0 1 0 1.8 0V7.44c0-.629-.511-1.14-1.14-1.14H35.84a5.224 5.224 0 0 0 .042-1.8H54.96c.827 0 1.5.673 1.5 1.5v28.8c0 .827-.673 1.5-1.5 1.5H6.48c-.827 0-1.5-.673-1.5-1.5V11.195a.9.9 0 1 0-1.8 0V34.8c0 .54.13 1.05.361 1.5H1.38c-.76 0-1.38.62-1.38 1.38V42c0 1.82 1.48 3.3 3.3 3.3h4.38a.9.9 0 1 0 0-1.8H3.3c-.827 0-1.5-.673-1.5-1.5v-3.9h21.06v1.26c0 1.29 1.05 2.34 2.34 2.34h11.04c1.29 0 2.34-1.05 2.34-2.34V38.1h21.06V42c0 .827-.673 1.5-1.5 1.5H11.593a.9.9 0 1 0 0 1.8H58.14c1.82 0 3.3-1.48 3.3-3.3v-4.32c0-.76-.62-1.38-1.38-1.38zM30.72 1.86a3.424 3.424 0 0 1 3.42 3.42 3.424 3.424 0 0 1-3.42 3.42 3.424 3.424 0 0 1-3.42-3.42 3.424 3.424 0 0 1 3.42-3.42zm-.45 11.83h.9l.91 3.925-1.36.656-1.36-.656.91-3.926zm1.153-3.19l-.277 1.39h-.852l-.277-1.39h1.406zm5.117 4.14v4.08c0 1.092-.888 1.98-1.98 1.98h-7.68a1.982 1.982 0 0 1-1.98-1.98v-4.08a4.147 4.147 0 0 1 3.299-4.054l.436 2.19-1.192 5.134a.9.9 0 0 0 .487 1.014l2.4 1.156a.9.9 0 0 0 .78 0l2.4-1.156a.9.9 0 0 0 .487-1.014l-1.192-5.135.436-2.19a4.147 4.147 0 0 1 3.299 4.055zm.24 24.72a.54.54 0 0 1-.54.54H25.2a.54.54 0 0 1-.54-.54V38.1h12.12v1.26z"/>
        <path d="M18.6 26.46a.9.9 0 1 0 0 1.8h24.24a.9.9 0 1 0 0-1.8H18.6z"/>
    </g>
</svg>
