<svg xmlns="http://www.w3.org/2000/svg" xmlns:xlink="http://www.w3.org/1999/xlink" width="14" height="16" viewBox="0 0 14 16">
    <path id="a" d="M4.107 4.836V3.664c0-.193.163-.352.362-.352h1.205c.199 0 .362.159.362.352v1.172a.358.358 0 0 1-.362.351H4.47a.358.358 0 0 1-.362-.351zm4.219.351H9.53a.358.358 0 0 0 .362-.351V3.664a.358.358 0 0 0-.362-.352H8.326a.358.358 0 0 0-.362.352v1.172c0 .193.163.351.362.351zM4.469 8h1.205a.358.358 0 0 0 .362-.352V6.477a.358.358 0 0 0-.362-.352H4.47a.358.358 0 0 0-.362.352v1.171c0 .194.163.352.362.352zm3.857 0H9.53a.358.358 0 0 0 .362-.352V6.477a.358.358 0 0 0-.362-.352H8.326a.358.358 0 0 0-.362.352v1.171c0 .194.163.352.362.352zm-2.29 2.46V9.29a.358.358 0 0 0-.362-.352H4.47a.358.358 0 0 0-.362.351v1.172c0 .193.163.351.362.351h1.205a.358.358 0 0 0 .362-.351zm2.29.352H9.53a.358.358 0 0 0 .362-.351V9.289a.358.358 0 0 0-.362-.351H8.326a.358.358 0 0 0-.362.351v1.172c0 .193.163.351.362.351zm5.424 3.633V15.5H.25v-1.055c0-.193.163-.351.362-.351h.587V1.204c0-.39.323-.704.723-.704h10.156c.4 0 .723.313.723.703v12.89h.587c.2 0 .362.159.362.352zm-11.104-.38h3.39v-1.963c0-.194.162-.352.361-.352h1.206c.199 0 .361.158.361.352v1.962h3.39V1.936l-8.693-.03-.015 12.158z"/>
</svg>
