<svg xmlns="http://www.w3.org/2000/svg" width="16" height="16" viewBox="0 0 16 16">
    <path fill="#6364E9" fill-rule="evenodd" d="M5.333 1.333V2h5.333v-.666H12V2L13.332 2c.737 0 1.334.597 1.334 1.333v10c0 .737-.597 1.334-1.334 1.334H2.667a1.333 1.333 0 0 1-1.334-1.334v-10C1.333 2.597 1.93 2 2.667 2h1.332L4 1.332h1.333zm8 5.333H2.666v6.667h10.667V6.666zM9.53 7.53l.942.942L8.943 10l1.528 1.529-.942.942L8 10.943 6.471 12.47l-.942-.942L7.057 10 5.53 8.471l.942-.942L8 9.057 9.529 7.53zm-5.53-4.196H2.667v2h10.666v-2H12L12 4h-1.333v-.667H5.332V4H4v-.667z"/>
</svg>
