<svg xmlns="http://www.w3.org/2000/svg" xmlns:xlink="http://www.w3.org/1999/xlink" width="12" height="14" viewBox="0 0 12 14">
    <path id="a" d="M10.714 2H9.43V.646a.317.317 0 0 0-.322-.313H8.036a.317.317 0 0 0-.322.313V2H4.286V.646a.317.317 0 0 0-.322-.313H2.893a.317.317 0 0 0-.322.313V2H1.286C.576 2 0 2.56 0 3.25v9.167c0 .69.576 1.25 1.286 1.25h9.428c.71 0 1.286-.56 1.286-1.25V3.25C12 2.56 11.424 2 10.714 2zm-.16 10.417H1.446a.159.159 0 0 1-.16-.157V4.5h9.428v7.76a.159.159 0 0 1-.16.157zM9.138 7.19l-3.812 3.677a.328.328 0 0 1-.454-.002L2.86 8.895a.306.306 0 0 1 .002-.442l.609-.587a.328.328 0 0 1 .454.002l1.181 1.157 2.976-2.869a.328.328 0 0 1 .454.002l.604.591a.306.306 0 0 1-.002.442z"/>
</svg>
