<svg xmlns="http://www.w3.org/2000/svg" width="18" height="18" viewBox="0 0 18 18">
    <path fill="#6364E9" fill-rule="evenodd" d="M6.165 2.046c.416.411 1.08 1.265 2.066 2.645.44.487.3 1.039-.089 1.562a4.09 4.09 0 0 1-.326.382 8.722 8.722 0 0 1-.144.147l-.641.642c-.076.075.439 1.103 1.437 2.102.998 1 2.026 1.514 2.101 1.438l.575-.575c.316-.317.484-.47.714-.62.48-.315 1.001-.4 1.442-.006 1.438 1.028 2.252 1.66 2.65 2.074.778.808.676 2.052.005 2.761-.233.246-.528.541-.877.877-2.109 2.11-6.559.826-9.97-2.588-3.41-3.414-4.694-7.865-2.59-9.97.378-.384.502-.509.87-.871.685-.675 1.986-.78 2.777 0zM4.44 3.115c-.362.357-.482.476-.858.858C2.23 5.327 3.265 8.92 6.17 11.827c2.903 2.906 6.495 3.942 7.859 2.578.343-.33.623-.61.838-.838.155-.165.183-.504.004-.69-.298-.31-1.027-.878-2.287-1.783a5.142 5.142 0 0 0-.379.356l-.575.575c-.977.977-2.64.144-4.221-1.438C5.826 9.004 4.994 7.34 5.97 6.363l.26-.26A2074.494 2074.494 0 0 0 6.73 5.6a3.17 3.17 0 0 0 .17-.191C6.028 4.19 5.433 3.43 5.113 3.114c-.165-.164-.536-.133-.672 0zm5.801-1.563a7.128 7.128 0 0 1 6.207 6.207l-1.482.247a5.627 5.627 0 0 0-4.972-4.972l.247-1.482zm-.494 2.965a4.126 4.126 0 0 1 3.736 3.736l-1.486.247A2.625 2.625 0 0 0 9.5 6.003l.247-1.486z"/>
</svg>
