<svg xmlns="http://www.w3.org/2000/svg" width="23" height="23" viewBox="0 0 23 23">
    <path fill="#6364E9" fill-rule="evenodd" d="M13.417 2.875c1.058 0 1.916.858 1.916 1.917v.958h3.834c1.058 0 1.916.858 1.916 1.917v10.541a1.917 1.917 0 0 1-1.916 1.917H3.833a1.917 1.917 0 0 1-1.916-1.917V7.667c0-1.059.858-1.917 1.916-1.917h3.834v-.958c0-1.059.858-1.917 1.916-1.917h3.834zm-2.875 11.5h-6.71l.001 3.833h15.334l-.001-3.833h-6.708v.958h-1.916v-.958zm8.625-6.708H3.833v4.791h15.333V7.667zm-5.75-2.875H9.583v.958h3.834v-.958z"/>
</svg>
