<svg xmlns="http://www.w3.org/2000/svg" xmlns:xlink="http://www.w3.org/1999/xlink" width="14" height="12" viewBox="0 0 14 12">
    <path id="a" d="M7.001.75C3.321.75.335 2.934.335 5.627.335 6.78.883 7.84 1.8 8.677c-.201.546-.512.767-.859 1.01-.257.18-.745.462-.57 1.013.119.36.485.579.883.546 1.335-.108 2.574-.45 3.634-.996a8.94 8.94 0 0 0 2.111.25c3.683 0 6.667-2.179 6.667-4.874C13.668 2.933 10.684.75 7 .75zm0 8.626a7.728 7.728 0 0 1-2.252-.328c-.748.445-1.822 1.078-3.118 1.265.74-.562 1.315-1.444 1.417-2.072-.882-.609-1.602-1.52-1.602-2.615 0-1.662 1.998-3.75 5.555-3.75 3.558 0 5.556 2.088 5.556 3.75 0 1.664-1.998 3.75-5.556 3.75z"/>
</svg>
