<svg xmlns="http://www.w3.org/2000/svg" width="20" height="20" viewBox="0 0 20 20">
    <path fill="#FF5630" fill-rule="evenodd" d="M10 .833c5.063 0 9.167 4.104 9.167 9.167S15.063 19.167 10 19.167.833 15.063.833 10 4.937.833 10 .833zM10 2.5c-4.142 0-7.5 3.358-7.5 7.5 0 4.142 3.358 7.5 7.5 7.5 4.142 0 7.5-3.358 7.5-7.5 0-4.142-3.358-7.5-7.5-7.5zm2.744 3.577l1.179 1.179L11.179 10l2.744 2.744-1.179 1.179L10 11.179l-2.744 2.744-1.179-1.179L8.821 10 6.077 7.256l1.179-1.179L10 8.821l2.744-2.744z"/>
</svg>
