<svg xmlns="http://www.w3.org/2000/svg" width="62" height="62" viewBox="0 0 62 62">
    <g fill="#FFF" fill-rule="nonzero">
        <path d="M18.198 14.19c.028-.298.088-.59.18-.875.278-.388.506-.815.67-1.273a4.155 4.155 0 0 1 3.272-1.602h3.36c.56 0 1.102.11 1.611.325a.9.9 0 1 0 .702-1.658c-.12-.05-.24-.097-.363-.14a5.205 5.205 0 0 0 1.59-3.747A5.226 5.226 0 0 0 24 0a5.226 5.226 0 0 0-5.22 5.22c0 1.47.611 2.8 1.593 3.75a5.98 5.98 0 0 0-1.078.5 5.228 5.228 0 0 0-5.158-4.416 5.226 5.226 0 0 0-5.22 5.22c0 1.47.61 2.799 1.59 3.748a5.913 5.913 0 0 0-.69.29 5.19 5.19 0 0 0-2.197-.485 5.226 5.226 0 0 0-5.22 5.22c0 1.47.61 2.8 1.591 3.749A5.95 5.95 0 0 0 0 28.407v4.08a3.784 3.784 0 0 0 3.78 3.78h2.422a.9.9 0 1 0 0-1.8H3.78a1.982 1.982 0 0 1-1.98-1.98v-4.08a4.145 4.145 0 0 1 4.14-4.14H9.3a4.145 4.145 0 0 1 4.14 4.14v4.08c0 1.092-.888 1.98-1.98 1.98h-1.373a.9.9 0 1 0 0 1.8h1.373a3.784 3.784 0 0 0 3.78-3.78v-4.08c0-.31-.024-.615-.07-.912h2.807a3.784 3.784 0 0 0 3.78-3.78V22.44h6.083a3.784 3.784 0 0 0 3.78-3.78v-4.08c0-.79-.153-1.558-.454-2.282a.9.9 0 1 0-1.662.692c.21.503.316 1.038.316 1.59v4.08c0 1.092-.888 1.98-1.98 1.98h-6.083v-1.006a6.549 6.549 0 0 0-1.156-3.36 6.526 6.526 0 0 0-2.403-2.083zM24 1.8a3.424 3.424 0 0 1 3.42 3.42A3.424 3.424 0 0 1 24 8.64a3.424 3.424 0 0 1-3.42-3.42A3.424 3.424 0 0 1 24 1.8zm-9.863 5.054a3.424 3.424 0 0 1 3.29 4.358c-.267.385-.485.8-.652 1.237a3.415 3.415 0 0 1-2.638 1.245 3.424 3.424 0 0 1-3.42-3.42 3.424 3.424 0 0 1 3.42-3.42zM7.62 15.627a3.424 3.424 0 0 1 3.42 3.42 3.424 3.424 0 0 1-3.42 3.42 3.424 3.424 0 0 1-3.42-3.42 3.424 3.424 0 0 1 3.42-3.42zm12.337 8.087c0 1.092-.888 1.98-1.98 1.98h-3.394a5.973 5.973 0 0 0-3.334-2.898 5.205 5.205 0 0 0 1.59-3.749c0-1.32-.492-2.529-1.305-3.45.301-.068.61-.103.923-.103h3.36c.41 0 .814.06 1.202.178a4.117 4.117 0 0 1 2.938 3.962v4.08zM44.82 31.8c-7.18 0-13.02 5.84-13.02 13.02s5.84 13.02 13.02 13.02S57.84 52 57.84 44.82 52 31.8 44.82 31.8zm0 24.24c-6.187 0-11.22-5.033-11.22-11.22S38.633 33.6 44.82 33.6s11.22 5.033 11.22 11.22-5.033 11.22-11.22 11.22z"/>
        <path d="M58.287 35.079a.9.9 0 1 0-1.457 1.056 14.71 14.71 0 0 1 2.81 8.685c0 8.172-6.648 14.82-14.82 14.82S30 52.992 30 44.82 36.648 30 44.82 30a14.83 14.83 0 0 1 9.548 3.485.9.9 0 0 0 1.16-1.376A16.63 16.63 0 0 0 44.82 28.2c-9.164 0-16.62 7.456-16.62 16.62 0 9.164 7.456 16.62 16.62 16.62 9.164 0 16.62-7.456 16.62-16.62 0-3.526-1.09-6.895-3.153-9.741z"/>
        <path d="M45.942 39.005v-1.258a.9.9 0 1 0-1.8 0v1.258a2.945 2.945 0 0 0-2.476 2.903v.872a2.943 2.943 0 0 0 2.94 2.94h1.682a.33.33 0 0 1 .33.33v1.682c0 .628-.512 1.14-1.14 1.14h-.872c-.629 0-1.14-.512-1.14-1.14v-.436a.9.9 0 1 0-1.8 0v.436a2.945 2.945 0 0 0 2.476 2.903v1.258a.9.9 0 1 0 1.8 0v-1.258a2.945 2.945 0 0 0 2.476-2.903V46.05c0-1.175-.956-2.13-2.13-2.13h-1.682c-.629 0-1.14-.511-1.14-1.14v-.872c0-.628.511-1.14 1.14-1.14h.872c.628 0 1.14.512 1.14 1.14v.436a.9.9 0 1 0 1.8 0v-.436a2.945 2.945 0 0 0-2.476-2.903zM39.707 10.478c5.019 0 9.182 3.734 9.858 8.569l-.69-.51a.9.9 0 1 0-1.07 1.448l2.222 1.64a.9.9 0 0 0 1.266-.2l1.702-2.377A.9.9 0 1 0 51.53 18l-.253.354c-.984-5.493-5.798-9.676-11.57-9.676a.9.9 0 0 0 0 1.8zM18.882 49.443a.9.9 0 1 0-1.448 1.07l.51.69c-4.836-.676-8.569-4.84-8.569-9.858a.9.9 0 1 0-1.8 0c0 5.773 4.183 10.586 9.676 11.57l-.354.254a.9.9 0 0 0 1.048 1.464l2.377-1.702a.9.9 0 0 0 .2-1.267l-1.64-2.221z"/>
    </g>
</svg>
