<svg xmlns="http://www.w3.org/2000/svg" width="16" height="16" viewBox="0 0 16 16">
    <path fill="#6364E9" fill-rule="evenodd" d="M11.333 2c.494 0 .924.268 1.155.666h.845c.737 0 1.334.598 1.334 1.334v2c0 2.148-1.003 3.715-2.811 3.965a4.671 4.671 0 0 1-3.19 1.988v.714h.667c.737 0 1.334.597 1.334 1.333H5.333c0-.736.597-1.333 1.334-1.333h.666v-.714a4.666 4.666 0 0 1-3.188-1.988C2.336 9.715 1.333 8.148 1.333 6V4c0-.736.597-1.333 1.334-1.333l.845-.001C3.742 2.268 4.173 2 4.667 2h6.666zm0 1.333H4.667v4a3.333 3.333 0 1 0 6.666 0v-4zm2 .667l-.667-.001v3.334c0 .305-.029.603-.084.89.492-.441.751-1.203.751-2.223V4zm-10-.001L2.667 4v2c0 1.02.26 1.782.75 2.225a4.74 4.74 0 0 1-.084-.892V4z"/>
</svg>
