<svg xmlns="http://www.w3.org/2000/svg" width="12" height="16" viewBox="0 0 12 16">
    <path fill="#6364E9" fill-rule="evenodd" d="M7 0v4.25c0 .412.337.75.75.75H12v10.25c0 .416-.334.75-.75.75H.75a.748.748 0 0 1-.75-.75V.75C0 .334.334 0 .75 0H7zM3.793 6.89c-.285 0-.554.043-.808.13a2.41 2.41 0 0 0-.697.37 2.49 2.49 0 0 0-.542.574 2.668 2.668 0 0 0-.35.736 2.905 2.905 0 0 0-.123.85c0 .299.04.58.123.843.081.264.197.502.346.715a2.394 2.394 0 0 0 1.228.906c.255.084.527.126.816.126.373 0 .714-.064 1.022-.192.308-.129.57-.31.787-.547a2.06 2.06 0 0 0 .466-.843l-1.19-.266c-.112.238-.26.419-.444.542a1.122 1.122 0 0 1-.641.186 1.163 1.163 0 0 1-.903-.416 1.423 1.423 0 0 1-.259-.473 1.871 1.871 0 0 1-.091-.595c0-.22.03-.421.091-.605a1.5 1.5 0 0 1 .259-.483c.112-.138.244-.245.395-.322.152-.078.317-.116.494-.116.233 0 .441.063.623.189s.324.306.427.539l1.19-.266a2.094 2.094 0 0 0-.809-1.152 2.285 2.285 0 0 0-.65-.318 2.545 2.545 0 0 0-.76-.112zm3.531.14H5.973L7.849 12h1.33l1.876-4.97H9.76l-1.218 3.612L7.324 7.03zM8.191 0c.2 0 .39.078.53.219l3.06 3.062c.14.14.219.332.219.528V4H8V0h.19z"/>
</svg>
