<svg xmlns="http://www.w3.org/2000/svg" width="48" height="62" viewBox="0 0 48 62">
    <g fill="#FFF" fill-rule="nonzero">
        <path d="M46.32 20.018a.9.9 0 0 0 .9-.9V12.9c0-1.489-1.211-2.7-2.7-2.7h-.9V7.8c0-1.489-1.211-2.7-2.7-2.7h-.9V2.7c0-1.489-1.211-2.7-2.7-2.7H2.76a2.703 2.703 0 0 0-2.7 2.7v4.931a.9.9 0 0 0 1.8 0V2.7a.9.9 0 0 1 .9-.9h34.56a.9.9 0 0 1 .9.9v45.84a.9.9 0 0 1-.9.9h-2.131a.9.9 0 0 0 0 1.8h2.131c1.489 0 2.7-1.211 2.7-2.7V6.9h.9a.9.9 0 0 1 .9.9v45.84a.9.9 0 0 1-.9.9H6.36a.9.9 0 0 1-.9-.9v-2.4h25.8a.9.9 0 0 0 0-1.8H2.76a.9.9 0 0 1-.9-.9V11.482a.9.9 0 0 0-1.8 0V48.54c0 1.489 1.211 2.7 2.7 2.7h.9v2.4c0 1.489 1.211 2.7 2.7 2.7h.9v2.4c0 1.489 1.211 2.7 2.7 2.7h34.56c1.489 0 2.7-1.211 2.7-2.7V23.002a.9.9 0 0 0-1.8 0V58.74a.9.9 0 0 1-.9.9H9.96a.9.9 0 0 1-.9-.9v-2.4h31.86c1.489 0 2.7-1.211 2.7-2.7V12h.9a.9.9 0 0 1 .9.9v6.218a.9.9 0 0 0 .9.9z"/>
        <path d="M6 34.265v6.24c0 .761.62 1.38 1.38 1.38h6.24c.76 0 1.38-.619 1.38-1.38v-6.24c0-.76-.62-1.38-1.38-1.38H7.38c-.76 0-1.38.62-1.38 1.38zm1.8.42h5.4v5.4H7.8v-5.4zM33.05 34.327H18.581a.9.9 0 0 0 0 1.8H33.05a.9.9 0 0 0 0-1.8zM33.05 38.06H18.581a.9.9 0 0 0 0 1.8H33.05a.9.9 0 0 0 0-1.8zM12.42 20.64v4.08a3.784 3.784 0 0 0 3.78 3.78h7.68a3.784 3.784 0 0 0 3.78-3.78v-4.08a5.95 5.95 0 0 0-3.99-5.611c.98-.95 1.59-2.28 1.59-3.749a5.226 5.226 0 0 0-5.22-5.22 5.226 5.226 0 0 0-5.22 5.22c0 1.47.61 2.799 1.59 3.749a5.95 5.95 0 0 0-3.99 5.611zm7.17-.95h.9l.91 3.926-1.36.655-1.36-.656.91-3.925zm1.153-3.19l-.277 1.39h-.852l-.277-1.39h1.406zm-.703-8.64a3.424 3.424 0 0 1 3.42 3.42 3.424 3.424 0 0 1-3.42 3.42 3.424 3.424 0 0 1-3.42-3.42 3.424 3.424 0 0 1 3.42-3.42zm-5.82 12.78a4.147 4.147 0 0 1 3.299-4.054l.436 2.19-1.192 5.134a.9.9 0 0 0 .486 1.015l2.4 1.155a.9.9 0 0 0 .781 0l2.4-1.155a.9.9 0 0 0 .487-1.015l-1.192-5.135.436-2.19a4.147 4.147 0 0 1 3.299 4.055v4.08c0 1.092-.888 1.98-1.98 1.98H16.2a1.982 1.982 0 0 1-1.98-1.98v-4.08z"/>
    </g>
</svg>
