<svg xmlns="http://www.w3.org/2000/svg" xmlns:xlink="http://www.w3.org/1999/xlink" width="12" height="14" viewBox="0 0 12 14">
    <path id="a" d="M3.964 7.833H2.893a.318.318 0 0 1-.322-.312V6.479c0-.172.145-.312.322-.312h1.071c.177 0 .322.14.322.312v1.042a.318.318 0 0 1-.322.312zm2.893-.312V6.479a.318.318 0 0 0-.321-.312H5.464a.318.318 0 0 0-.321.312v1.042c0 .172.144.312.321.312h1.072c.177 0 .321-.14.321-.312zm2.572 0V6.479a.318.318 0 0 0-.322-.312H8.036a.318.318 0 0 0-.322.312v1.042c0 .172.145.312.322.312h1.071c.177 0 .322-.14.322-.312zm-2.572 2.5V8.979a.318.318 0 0 0-.321-.312H5.464a.318.318 0 0 0-.321.312v1.042c0 .172.144.312.321.312h1.072c.177 0 .321-.14.321-.312zm-2.571 0V8.979a.318.318 0 0 0-.322-.312H2.893a.318.318 0 0 0-.322.312v1.042c0 .172.145.312.322.312h1.071c.177 0 .322-.14.322-.312zm5.143 0V8.979a.318.318 0 0 0-.322-.312H8.036a.318.318 0 0 0-.322.312v1.042c0 .172.145.312.322.312h1.071c.177 0 .322-.14.322-.312zM12 3.25v9.167c0 .69-.576 1.25-1.286 1.25H1.286c-.71 0-1.286-.56-1.286-1.25V3.25C0 2.56.576 2 1.286 2H2.57V.646c0-.172.145-.313.322-.313h1.071c.177 0 .322.141.322.313V2h3.428V.646c0-.172.145-.313.322-.313h1.071c.177 0 .322.141.322.313V2h1.285C11.424 2 12 2.56 12 3.25zm-1.286 9.01V4.5H1.286v7.76c0 .086.072.157.16.157h9.108c.088 0 .16-.07.16-.157z"/>
</svg>
