<svg xmlns="http://www.w3.org/2000/svg" width="52" height="52" viewBox="0 0 52 52">
    <g fill="#FFF" fill-rule="nonzero">
        <path d="M48.64 11.928H38.4a.853.853 0 1 0 0 1.706h10.24c.471 0 .853.383.853.854V48.62a.853.853 0 0 1-.853.853H2.56a.853.853 0 0 1-.853-.853V14.488c0-.471.382-.853.853-.853H12.8a.853.853 0 1 0 0-1.707H2.56A2.56 2.56 0 0 0 0 14.488v34.133a2.56 2.56 0 0 0 2.56 2.56h46.08a2.56 2.56 0 0 0 2.56-2.56V14.488a2.56 2.56 0 0 0-2.56-2.56z"/>
        <path d="M47.587 15.646a.853.853 0 0 0-1.202-.105L26.698 32.078a1.707 1.707 0 0 1-2.196 0L4.815 15.541a.854.854 0 0 0-1.097 1.307l19.686 16.537a3.41 3.41 0 0 0 4.392 0l19.686-16.537a.853.853 0 0 0 .105-1.202zM16.412 33.268a.853.853 0 0 0-.822.265l-11.947 12.8a.853.853 0 1 0 1.247 1.163l11.947-12.8a.853.853 0 0 0-.425-1.428zM34.405 33.49a.853.853 0 0 0-.042 1.207l11.947 12.8a.853.853 0 0 0 1.247-1.164l-11.947-12.8a.853.853 0 0 0-1.205-.042z"/>
        <path d="M18.707 15.298l-1.33 7.576a.853.853 0 0 0 1.226.907l6.997-3.59 6.997 3.59a.853.853 0 0 0 1.23-.907l-1.33-7.577 5.641-5.37a.853.853 0 0 0 .221-.878.853.853 0 0 0-.692-.585l-7.815-1.11L26.362.45a.89.89 0 0 0-1.524 0l-3.49 6.906-7.815 1.11a.853.853 0 0 0-.468 1.463l5.642 5.369zm3.31-6.315a.853.853 0 0 0 .642-.46L25.6 2.726l2.93 5.797c.126.25.366.42.642.46l6.51.923-4.697 4.47a.853.853 0 0 0-.256.768l1.11 6.337-5.856-3.006a.853.853 0 0 0-.78 0l-5.855 3.006 1.109-6.337a.853.853 0 0 0-.256-.768l-4.694-4.47 6.51-.923z"/>
    </g>
</svg>
