<svg xmlns="http://www.w3.org/2000/svg" xmlns:xlink="http://www.w3.org/1999/xlink" width="12" height="16" viewBox="0 0 12 16">
    <path id="a" d="M10.219 2.375H7.875A1.877 1.877 0 0 0 6 .5a1.877 1.877 0 0 0-1.875 1.875H1.781c-.776 0-1.406.63-1.406 1.406v10.313c0 .776.63 1.406 1.406 1.406h8.438c.776 0 1.406-.63 1.406-1.406V3.78c0-.776-.63-1.406-1.406-1.406zm-.176 11.719H1.957a.176.176 0 0 1-.176-.176V3.957c0-.097.079-.176.176-.176h1.23v1.055c0 .194.158.351.352.351h4.922a.352.352 0 0 0 .351-.351V3.78h1.231c.097 0 .176.079.176.176v9.961a.176.176 0 0 1-.176.176zM6 1.672a.703.703 0 1 1 0 1.406.703.703 0 0 1 0-1.406z"/>
</svg>
