<svg xmlns="http://www.w3.org/2000/svg" width="62" height="62" viewBox="0 0 62 62">
    <g fill="#FFF" fill-rule="nonzero">
        <path d="M56.94 52.44h-.24v-2.514a.9.9 0 1 0-1.8 0v2.514H6.54V25.127a6.303 6.303 0 0 0 7.977-2.5 6.291 6.291 0 0 0 4.251 2.948 13.418 13.418 0 0 0-1.548 6.274c0 7.444 6.056 13.5 13.5 13.5 2.696 0 5.21-.794 7.32-2.161l5.932 5.933a2.68 2.68 0 0 0 1.909.791c.721 0 1.4-.28 1.91-.791a2.703 2.703 0 0 0 0-3.818l-5.893-5.892a13.423 13.423 0 0 0 2.322-7.562c0-2.264-.56-4.399-1.549-6.274a6.291 6.291 0 0 0 4.252-2.949 6.303 6.303 0 0 0 7.977 2.501v20.914a.9.9 0 1 0 1.8 0V23.904a6.282 6.282 0 0 0 1.92-4.524V4.5c0-2.481-2.019-4.5-4.5-4.5h-4.239a.9.9 0 1 0 0 1.8h4.239c1.489 0 2.7 1.211 2.7 2.7v3.3H4.62V4.5c0-1.489 1.211-2.7 2.7-2.7h38.744a.9.9 0 1 0 0-1.8H7.32a4.505 4.505 0 0 0-4.5 4.5v6.981a.9.9 0 1 0 1.8 0V9.6h9v9.78c0 2.481-2.019 4.5-4.5 4.5a4.505 4.505 0 0 1-4.5-4.5v-4.014a.9.9 0 1 0-1.8 0v4.014c0 1.773.737 3.378 1.92 4.524V52.44H4.5a4.505 4.505 0 0 0-4.5 4.5c0 2.481 2.019 4.5 4.5 4.5h52.44c2.481 0 4.5-2.019 4.5-4.5s-2.019-4.5-4.5-4.5zm-10.422-5.864a.9.9 0 0 1-1.273 1.272L39.496 42.1c.456-.39.885-.811 1.286-1.259l5.736 5.736zM30.72 43.549c-6.451 0-11.7-5.249-11.7-11.7 0-6.452 5.249-11.7 11.7-11.7s11.7 5.248 11.7 11.7c0 6.451-5.249 11.7-11.7 11.7zm26.1-24.169c0 2.481-2.019 4.5-4.5 4.5a4.505 4.505 0 0 1-4.5-4.5V9.6h9v9.78zm-10.8 0a4.491 4.491 0 0 1-4.41 4.5 13.599 13.599 0 0 0-4.557-3.951 4.528 4.528 0 0 1-.033-.549V9.6h9v9.78zm-10.8-.26a13.44 13.44 0 0 0-4.5-.771c-1.577 0-3.092.272-4.5.771V9.6h9v9.52zM24.42 9.6v9.78c0 .184-.011.367-.033.549-1.8.96-3.358 2.316-4.557 3.95a4.492 4.492 0 0 1-4.41-4.499V9.6h9zm32.52 50.04H4.5a2.703 2.703 0 0 1-2.7-2.7c0-1.489 1.211-2.7 2.7-2.7h52.44c1.489 0 2.7 1.211 2.7 2.7s-1.211 2.7-2.7 2.7z"/>
        <path d="M30.72 21.949c-5.459 0-9.9 4.441-9.9 9.9 0 5.459 4.441 9.9 9.9 9.9 5.459 0 9.9-4.441 9.9-9.9 0-5.459-4.441-9.9-9.9-9.9zm0 18c-4.466 0-8.1-3.634-8.1-8.1 0-4.467 3.634-8.1 8.1-8.1 4.466 0 8.1 3.633 8.1 8.1 0 4.466-3.634 8.1-8.1 8.1zM50.4 27.887h-3.6a.9.9 0 1 0 0 1.8h3.6a.9.9 0 1 0 0-1.8zM11.04 46.74a.9.9 0 1 0 0 1.8h7.2a.9.9 0 1 0 0-1.8h-7.2zM50.4 30.9h-3.6a.9.9 0 1 0 0 1.8h3.6a.9.9 0 1 0 0-1.8z"/>
    </g>
</svg>
