<svg xmlns="http://www.w3.org/2000/svg" width="23" height="52" viewBox="0 0 23 52">
    <path fill="#FFF" fill-rule="nonzero" d="M22.354 37.29a.82.82 0 0 0-.768-.597h-7.168L12.28 30.12l2.821-2.045.023-.025 5.95-4.327c.171-.171.342-.427.342-.683V.853c0-.512-.342-.853-.854-.853H1.79C1.277 0 .936.341.936.853V23.04c0 .341.17.597.341.683l5.95 4.327.023.025 2.96 2.145-2.106 6.474H.936c-.342 0-.683.255-.854.597-.17.341 0 .683.256.939l5.718 4.352-2.56 7.509c-.086.341 0 .682.34.938.172.086.342.171.513.171.17 0 .341 0 .512-.17l6.315-4.694 6.4 4.694c.34.255.682.17 1.024 0 .34-.171.426-.598.34-.94l-2.56-7.509 5.718-4.352c.256-.17.342-.597.256-.938zM19.71 22.614l-4.267 3.115V1.707h4.267v20.906zM13.736 1.707v25.258l-2.56 1.878-2.56-1.878V1.707h5.12zm-11.094 0H6.91v24.021l-4.267-3.115V1.707zm12.032 39.85c-.256.171-.341.598-.256.939l1.878 5.461-4.608-3.413c-.171-.085-.342-.17-.512-.17-.171 0-.342.085-.512.255l-4.608 3.414 1.877-5.547c.17-.341 0-.683-.256-.939L3.496 38.4H8.7a.82.82 0 0 0 .768-.597l1.707-5.12 1.706 5.12a.82.82 0 0 0 .768.597h5.206l-4.182 3.157z"/>
</svg>
