<svg xmlns="http://www.w3.org/2000/svg" width="17" height="17" viewBox="0 0 17 17">
    <path fill="#7A869A" fill-rule="evenodd" d="M11.643 1.417c.464 0 .908.185 1.233.512l2.197 2.197a1.744 1.744 0 0 1 0 2.466l-8.02 8.016a2.868 2.868 0 0 1-2 .977H1.418v-.708l.002-2.986c.06-.747.408-1.441.937-1.908L10.41 1.93a1.74 1.74 0 0 1 1.234-.513zm-2.93 4.21l-5.387 5.387a1.467 1.467 0 0 0-.493.934v2.22l2.17.002c.38-.027.731-.203 1.014-.526l5.356-5.357-2.66-2.66zm2.93-2.794a.323.323 0 0 0-.23.096L9.717 4.626l2.659 2.659L14.07 5.59a.327.327 0 0 0 0-.463L11.872 2.93a.323.323 0 0 0-.229-.096z"/>
</svg>
