<svg xmlns="http://www.w3.org/2000/svg" width="23" height="23" viewBox="0 0 23 23">
    <path fill="#7650B4" fill-rule="evenodd" d="M11.5.958c4.699 0 8.625 3.595 8.625 8.625 0 3.553-2.694 7.594-7.995 12.222l-.63.55-.63-.55c-5.3-4.628-7.995-8.67-7.995-12.222 0-5.03 3.926-8.625 8.625-8.625zm0 1.917c-3.676 0-6.708 2.776-6.708 6.708 0 2.73 2.21 6.166 6.708 10.22 4.498-4.054 6.708-7.49 6.708-10.22 0-3.932-3.032-6.708-6.708-6.708zm0 1.917a4.792 4.792 0 1 1 0 9.583 4.792 4.792 0 0 1 0-9.583zm0 1.916a2.875 2.875 0 1 0 0 5.75 2.875 2.875 0 0 0 0-5.75z"/>
</svg>
