<svg xmlns="http://www.w3.org/2000/svg" width="52" height="35" viewBox="0 0 52 35">
    <g fill="#FFF" fill-rule="nonzero">
        <path d="M48.64.033H2.56A2.56 2.56 0 0 0 0 2.593v29.014a2.56 2.56 0 0 0 2.56 2.56h46.08a2.56 2.56 0 0 0 2.56-2.56V2.593a2.56 2.56 0 0 0-2.56-2.56zm.853 31.574a.853.853 0 0 1-.853.853H26.453V5.153a.853.853 0 1 0-1.706 0V32.46H2.56a.853.853 0 0 1-.853-.853V2.593c0-.471.382-.853.853-.853h46.08c.471 0 .853.382.853.853v29.014z"/>
        <path d="M12.8 17.953h1.707a4.272 4.272 0 0 0 4.266-4.266v-3.414a4.272 4.272 0 0 0-4.266-4.266H12.8a4.272 4.272 0 0 0-4.267 4.266v3.414a4.272 4.272 0 0 0 4.267 4.266zm-2.56-7.68a2.56 2.56 0 0 1 2.56-2.56h1.707a2.56 2.56 0 0 1 2.56 2.56v3.414a2.56 2.56 0 0 1-2.56 2.56H12.8a2.56 2.56 0 0 1-2.56-2.56v-3.414zM17.267 19.66H10.04a4.174 4.174 0 0 0-4.067 4.267v4.266a.853.853 0 1 0 1.707 0v-4.266a2.469 2.469 0 0 1 2.36-2.56h7.227a2.469 2.469 0 0 1 2.36 2.56v3.413h-3.163a.853.853 0 1 0 0 1.707h4.016a.853.853 0 0 0 .853-.854v-4.266a4.174 4.174 0 0 0-4.066-4.267zM45.227 6.86h-15.36a.853.853 0 1 0 0 1.707h15.36a.853.853 0 1 0 0-1.707zM45.227 11.98h-15.36a.853.853 0 1 0 0 1.707h15.36a.853.853 0 1 0 0-1.707zM45.227 17.1h-15.36a.853.853 0 1 0 0 1.707h15.36a.853.853 0 1 0 0-1.707zM45.227 22.22h-7.68a.853.853 0 1 0 0 1.707h7.68a.853.853 0 1 0 0-1.707z"/>
    </g>
</svg>
