<svg xmlns="http://www.w3.org/2000/svg" width="24" height="24" viewBox="0 0 24 24">
    <path fill="#6364E9" fill-rule="evenodd" d="M12 1c6.075 0 11 4.925 11 11s-4.925 11-11 11S1 18.075 1 12 5.925 1 12 1zm0 2c-4.97 0-9 4.03-9 9s4.03 9 9 9 9-4.03 9-9-4.03-9-9-9zm0 11.998c.553 0 1 .448 1 1 0 .553-.447 1-1 1-.552 0-1-.447-1-1 0-.552.448-1 1-1zM12 6c2.284 0 4 1.32 4 3.5 0 1.702-.625 2.43-2.053 3.144-.822.411-.947.558-.947 1.356h-2c0-1.702.625-2.43 2.053-3.144.822-.411.947-.558.947-1.356 0-.944-.723-1.5-2-1.5-1.105 0-2 .895-2 2H8c0-2.21 1.79-4 4-4z"/>
</svg>
