<svg xmlns="http://www.w3.org/2000/svg" width="102" height="82" viewBox="0 0 102 82">
    <g fill="#5153DC" opacity=".202">
        <path d="M44.8 4.466c1.178 0 2.134-.956 2.134-2.134S45.978.2 44.8.2C20.07.227.028 20.269 0 44.999v12.8C-.037 70.797 10.47 81.364 23.468 81.4c12.998.037 23.565-10.47 23.602-23.468.037-12.998-10.47-23.565-23.468-23.602-7.675-.022-14.878 3.7-19.301 9.972.395-22.093 18.402-39.806 40.5-39.837zM78.536 34.332c-7.63.006-14.78 3.726-19.165 9.972C59.766 22.21 77.773 4.497 99.87 4.466c1.178 0 2.133-.955 2.133-2.134 0-1.178-.955-2.133-2.133-2.133-24.73.028-44.772 20.07-44.8 44.8v12.8c0 12.96 10.506 23.467 23.466 23.467s23.467-10.507 23.467-23.467c0-12.96-10.506-23.467-23.467-23.467z"/>
    </g>
</svg>
