<svg xmlns="http://www.w3.org/2000/svg" width="40" height="62" viewBox="0 0 40 62">
    <g fill="#FFF" fill-rule="nonzero">
        <path d="M12.256 25.219c0 .76.619 1.38 1.38 1.38h6.24c.76 0 1.38-.62 1.38-1.38v-6.24c0-.761-.62-1.38-1.38-1.38h-6.24c-.761 0-1.38.619-1.38 1.38v6.24zm1.8-5.82h5.4v5.4h-5.4v-5.4zM25.4 20.839h7.68a.9.9 0 1 0 0-1.8H25.4a.9.9 0 1 0 0 1.8zM25.4 24.679h7.68a.9.9 0 1 0 0-1.8H25.4a.9.9 0 1 0 0 1.8zM31.34 48.18h-16.2a.9.9 0 1 0 0 1.8h16.2a.9.9 0 1 0 0-1.8zM31.34 52.02h-16.2a.9.9 0 1 0 0 1.8h16.2a.9.9 0 1 0 0-1.8zM19.876 5.599h-6.24c-.761 0-1.38.619-1.38 1.38v6.24c0 .76.619 1.38 1.38 1.38h6.24c.76 0 1.38-.62 1.38-1.38v-6.24c0-.761-.62-1.38-1.38-1.38zm-.42 7.2h-5.4v-5.4h5.4v5.4zM25.4 8.839h7.68a.9.9 0 1 0 0-1.8H25.4a.9.9 0 1 0 0 1.8zM25.4 12.679h7.68a.9.9 0 1 0 0-1.8H25.4a.9.9 0 1 0 0 1.8zM12.256 37.62c0 .76.619 1.38 1.38 1.38h6.24c.76 0 1.38-.62 1.38-1.38v-6.24c0-.76-.62-1.38-1.38-1.38h-6.24c-.761 0-1.38.62-1.38 1.38v6.24zm1.8-5.82h5.4v5.4h-5.4v-5.4zM25.4 33.24h7.68a.9.9 0 1 0 0-1.8H25.4a.9.9 0 1 0 0 1.8zM25.4 37.08h7.68a.9.9 0 1 0 0-1.8H25.4a.9.9 0 1 0 0 1.8z"/>
        <path d="M38.54 55.746a.9.9 0 0 0-.9.9v1.494c0 .827-.673 1.5-1.5 1.5h-25.2c-.827 0-1.5-.673-1.5-1.5V47.515a.9.9 0 0 0-.9-.9H4.319l4.78-3.797a.9.9 0 0 0 .341-.705v-30.62a.9.9 0 1 0-1.8 0v30.185L1.179 46.81a.9.9 0 0 0 .56 1.605H7.64v9.725c0 1.82 1.48 3.3 3.3 3.3h25.2c1.82 0 3.3-1.48 3.3-3.3v-1.494a.9.9 0 0 0-.9-.9zM36.14 0h-25.2c-1.82 0-3.3 1.48-3.3 3.3v4.308a.9.9 0 1 0 1.8 0V3.3c0-.827.673-1.5 1.5-1.5h25.2c.827 0 1.5.673 1.5 1.5v49.484a.9.9 0 1 0 1.8 0V3.3c0-1.82-1.48-3.3-3.3-3.3z"/>
    </g>
</svg>
