<svg xmlns="http://www.w3.org/2000/svg" width="63" height="63" viewBox="0 0 63 63">
    <g fill="#FFF">
        <path d="M9.146 44.752c-.356-.356-.933-.356-1.289 0L4.76 47.85c-.356.356-.356.933 0 1.289.356.356.933.356 1.289 0l3.098-3.099c.356-.355.356-.932 0-1.288zM12.16 47.766c-.356-.356-.933-.356-1.288 0l-3.099 3.098c-.356.356-.356.933 0 1.289.356.356.933.356 1.289 0l3.098-3.098c.356-.356.356-.933 0-1.289zM18.188 53.794c-.355-.356-.932-.356-1.288 0L13.8 56.893c-.355.355-.355.932 0 1.288.356.356.933.356 1.29 0l3.097-3.098c.356-.356.356-.933 0-1.289zM15.174 50.78c-.356-.356-.933-.356-1.288 0l-3.099 3.099c-.356.355-.356.932 0 1.288s.933.356 1.289 0l3.098-3.098c.356-.356.356-.933 0-1.289zM59.938.073l-19.07 5.575c-.148.043-.281.122-.39.23L27.734 18.622l-5.694.48c-8.09.68-15.707 4.217-21.448 9.958-1.209 1.208-.454 3.277 1.247 3.425l11.066.967-1.147 1.146c-.711.712-.712 1.864 0 2.575l1.107 1.107-2.244 2.245c-.88.878-.88 2.309 0 3.188l7.875 7.875c.879.879 2.31.879 3.188 0l2.244-2.245 1.048 1.048c.743.743 1.952.74 2.693 0l1.087-1.087.967 11.066c.069.787.573 1.444 1.315 1.714.74.27 1.55.093 2.11-.468 3.532-3.532 6.204-7.702 7.94-12.392.174-.472-.067-.997-.539-1.171-.472-.175-.996.066-1.17.538-1.645 4.443-4.174 8.391-7.52 11.737-.114.114-.306.045-.32-.117l-1.1-12.59 11.153-11.153c-.37 4.518-.47 5.697-.987 7.986-.111.491.197.979.688 1.09.49.11.979-.198 1.09-.689.63-2.796.678-4.124 1.203-10.381L56.33 21.73c.108-.108.187-.242.23-.389l2.53-8.657h.001L62.135 2.27c.392-1.342-.859-2.589-2.197-2.197zM1.998 30.67c-.162-.014-.232-.206-.117-.321 5.436-5.437 12.65-8.786 20.312-9.431l3.544-.298-11.15 11.15-12.59-1.1zm12.933 3.333l4.964 4.964-1.883 1.883c-1.966-1.967-4.523-4.522-4.965-4.963l1.884-1.884zm-.418 10.345c-.115.116-.216.242-.303.376l-2.3-2.3c-.166-.165-.166-.445 0-.61l2.244-2.245 2.57 2.57-2.21 2.21zm2.103 2.013c-.212.213-.556.213-.77 0-.211-.212-.211-.556 0-.769l18.165-18.164c.212-.212.557-.212.769 0 .212.213.213.556 0 .77L22.597 40.38l-5.981 5.981zm3.779 3.938c-.109.109-.238.125-.305.125-.068 0-.197-.016-.306-.125l-2.3-2.3c.134-.088.26-.189.376-.304l2.21-2.21 2.57 2.57-2.245 2.244zm5.985-1.197l-.006.004c-.033.027-.08.026-.11-.004l-4.905-4.906 1.883-1.883 4.963 4.964-1.825 1.825zm28.497-28.496L29.494 45.988l-4.963-4.964 11.582-11.582c.835-.835.995-2.263-.089-3.347-.9-.9-2.357-.9-3.257 0L21.184 37.678l-4.964-4.964L41.602 7.332l7.916-2.314 7.672 7.673-2.313 7.915zm2.896-9.91l-6.26-6.261 8.846-2.586-2.586 8.847z"/>
        <path d="M46.402 15.806c-.52-.52-1.124-.938-1.794-1.24-.458-.207-.998-.003-1.205.456-.207.458-.003.998.455 1.205 2.71 1.223 3.349 4.787 1.255 6.88-1.657 1.658-4.354 1.658-6.012 0-2.095-2.095-1.457-5.655 1.255-6.88.459-.207.663-.747.456-1.205-.208-.46-.747-.663-1.206-.456-3.87 1.748-4.791 6.832-1.793 9.83 1.184 1.184 2.74 1.776 4.295 1.776 5.394 0 8.11-6.55 4.294-10.366z"/>
    </g>
</svg>
