<svg xmlns="http://www.w3.org/2000/svg" width="62" height="49" viewBox="0 0 62 49">
    <g fill="#FFF" fill-rule="nonzero">
        <path d="M56.46.06h-2.671a.9.9 0 1 0 0 1.8h2.671a3.184 3.184 0 0 1 3.18 3.18v4.62H1.8V5.04a3.184 3.184 0 0 1 3.18-3.18h44.88a.9.9 0 1 0 0-1.8H4.98A4.986 4.986 0 0 0 0 5.04v11.67a.9.9 0 1 0 1.8 0v-5.25h57.84v32.22a3.184 3.184 0 0 1-3.18 3.18H4.98a3.184 3.184 0 0 1-3.18-3.18V20.594a.9.9 0 1 0-1.8 0V43.68a4.986 4.986 0 0 0 4.98 4.98h51.48a4.986 4.986 0 0 0 4.98-4.98V5.04A4.986 4.986 0 0 0 56.46.06z"/>
        <path d="M4.86 5.72a2.823 2.823 0 0 0 2.82 2.82 2.823 2.823 0 0 0 2.82-2.82A2.823 2.823 0 0 0 7.68 2.9a2.823 2.823 0 0 0-2.82 2.82zm3.84 0a1.021 1.021 0 0 1-2.04 0 1.021 1.021 0 0 1 2.04 0zM11.7 5.72a2.823 2.823 0 0 0 2.82 2.82 2.823 2.823 0 0 0 2.82-2.82 2.823 2.823 0 0 0-2.82-2.82 2.823 2.823 0 0 0-2.82 2.82zm3.84 0a1.021 1.021 0 0 1-2.04 0 1.021 1.021 0 0 1 2.04 0zM18.54 5.72a2.823 2.823 0 0 0 2.82 2.82 2.823 2.823 0 0 0 2.82-2.82 2.823 2.823 0 0 0-2.82-2.82 2.823 2.823 0 0 0-2.82 2.82zm3.84 0a1.021 1.021 0 0 1-2.04 0 1.021 1.021 0 0 1 2.04 0zM45.24 17.22h7.68a.9.9 0 1 0 0-1.8h-7.68a.9.9 0 1 0 0 1.8zM45.24 21.06h7.68a.9.9 0 1 0 0-1.8h-7.68a.9.9 0 1 0 0 1.8zM10.92 42.66a.9.9 0 1 0 0-1.8h-3.6a.9.9 0 1 0 0 1.8h3.6zM37.86 27c0-5.459-4.441-9.9-9.9-9.9-5.459 0-9.9 4.441-9.9 9.9 0 5.459 4.441 9.9 9.9 9.9 5.459 0 9.9-4.441 9.9-9.9zm-18 0c0-4.466 3.634-8.1 8.1-8.1 4.466 0 8.1 3.634 8.1 8.1 0 4.466-3.634 8.1-8.1 8.1-4.466 0-8.1-3.634-8.1-8.1z"/>
        <path d="M27.96 13.5c-7.444 0-13.5 6.056-13.5 13.5a13.51 13.51 0 0 0 4.577 10.131.9.9 0 1 0 1.19-1.35A11.71 11.71 0 0 1 16.26 27c0-6.451 5.249-11.7 11.7-11.7s11.7 5.249 11.7 11.7-5.249 11.7-11.7 11.7c-1.65 0-3.244-.336-4.74-1a.9.9 0 0 0-.73 1.646 13.404 13.404 0 0 0 5.47 1.154c2.84 0 5.477-.881 7.654-2.385l6.158 6.157a2.698 2.698 0 0 0 3.817 0 2.698 2.698 0 0 0 0-3.818l-6.229-6.23A13.42 13.42 0 0 0 41.46 27c0-7.444-6.056-13.5-13.5-13.5zm16.357 28.227a.899.899 0 1 1-1.273 1.272l-6.011-6.01c.444-.405.861-.838 1.249-1.297l6.035 6.035z"/>
    </g>
</svg>
