<svg xmlns="http://www.w3.org/2000/svg" width="16" height="16" viewBox="0 0 16 16">
    <path fill="#FFF" fill-rule="evenodd" d="M9.054.667l.966 1.711.54.227 1.892-.52 1.479 1.477-.527 1.892.223.54 1.706.97v2.09l-1.711.966-.227.542.52 1.891-1.478 1.478-1.891-.527-.542.223-.97 1.706h-2.09l-.966-1.711-.54-.227-1.893.52-1.477-1.477.527-1.892-.223-.54-1.705-.973v-2.09l1.711-.965.227-.54-.52-1.893L3.56 2.07l1.892.527.54-.223.97-1.706h2.09zM8.275 2H7.74l-.814 1.431-1.389.573-1.584-.442-.377.378.437 1.588-.582 1.386L2 7.722v.536l1.43.815.573 1.389-.442 1.584.379.378 1.588-.437 1.386.582.808 1.43h.536l.815-1.43 1.388-.572 1.584.441.38-.379-.438-1.587.581-1.388L14 8.276V7.74l-1.431-.813-.573-1.389.441-1.584-.379-.378-1.588.437-1.387-.582L8.275 2zM8 5.333a2.667 2.667 0 1 1 0 5.334 2.667 2.667 0 0 1 0-5.334zm0 1.334a1.333 1.333 0 1 0 0 2.666 1.333 1.333 0 0 0 0-2.666z"/>
</svg>
