<svg xmlns="http://www.w3.org/2000/svg" width="63" height="53" viewBox="0 0 63 53">
    <g fill="#020D60" opacity=".7">
        <path d="M61.297 5.59h-6.368c-.503 0-.911.407-.911.91 0 .504.408.912.91.912h6.369c.503 0 .911-.408.911-.911 0-.504-.408-.912-.911-.912zM19.275 16.746h-6.367c-.504 0-.912.408-.912.912 0 .503.408.91.912.91h6.367c.504 0 .912-.407.912-.91 0-.504-.408-.912-.912-.912zM19.275 21.824h-6.367c-.504 0-.912.408-.912.911 0 .504.408.912.912.912h6.367c.504 0 .912-.408.912-.912 0-.503-.408-.91-.912-.91zM19.275 26.902h-6.367c-.504 0-.912.408-.912.911 0 .503.408.911.912.911h6.367c.504 0 .912-.408.912-.91 0-.504-.408-.912-.912-.912zM61.297 13.707h-6.368c-.503 0-.911.408-.911.911 0 .503.408.911.91.911h6.369c.503 0 .911-.408.911-.911 0-.503-.408-.911-.911-.911zM61.297 21.824h-6.368c-.503 0-.911.408-.911.911 0 .504.408.912.91.912h6.369c.503 0 .911-.408.911-.912 0-.503-.408-.91-.911-.91zM61.297 29.942h-6.368c-.503 0-.911.408-.911.91 0 .504.408.912.91.912h6.369c.503 0 .911-.408.911-.911 0-.503-.408-.911-.911-.911zM61.297 38.059h-6.368c-.503 0-.911.408-.911.911 0 .504.408.912.91.912h6.369c.503 0 .911-.408.911-.912 0-.503-.408-.911-.911-.911z"/>
        <path d="M50.112 21.52c.516.016.94-.398.94-.91V2.371c0-1.31-1.062-2.37-2.37-2.37h-2.117c-1.308 0-2.37 1.061-2.37 2.37v1.63c-5.398 6.083-13.946 8.025-19.077 8.642-.407-.72-1.179-1.208-2.063-1.208h-5.293c-.499 0-.934.384-.949.883-.015.516.398.94.911.94h5.33c.199 0 .374.112.47.274.104.172.078.652.078.652v17.1c.042.708-.246.927-.547.927H9.212c-.3 0-.546-.246-.546-.547v-17.86c0-.3.246-.547.546-.547h4.221c.5 0 .934-.384.95-.883.015-.516-.399-.94-.912-.94H9.212c-1.308 0-2.369 1.062-2.369 2.37v1.578H2.751C1.23 15.383 0 16.614 0 18.133v9.205c0 1.519 1.232 2.75 2.75 2.75h4.093v1.578c0 1.308 1.06 2.37 2.37 2.37h.737v16.656c0 1.259 1.021 2.28 2.28 2.28h3.38c1.095 0 2.037-.78 2.241-1.856l3.238-17.081h1.966c.884 0 1.656-.488 2.063-1.208 5.13.617 13.678 2.559 19.078 8.642v1.63c0 1.309 1.06 2.37 2.37 2.37h2.116c1.308 0 2.37-1.061 2.37-2.37V24.9c0-.499-.385-.934-.884-.95-.516-.015-.94.4-.94.912v18.237c0 .301-.246.547-.546.547h-2.117c-.3 0-.547-.246-.547-.547V2.372c0-.301.247-.547.547-.547h2.117c.3 0 .547.246.547.547V20.57c0 .499.384.934.883.949zM6.843 28.266H2.751c-.512 0-.928-.416-.928-.928v-9.205c0-.511.416-.928.928-.928h4.092v11.06zm9.217 22.51c-.04.217-.23.373-.45.373h-3.38c-.252 0-.457-.205-.457-.457V34.035h7.46L16.06 50.777zm28.136-11.922c-4.988-4.702-12.026-7.01-18.772-7.826V14.443c6.75-.816 13.786-3.126 18.772-7.826v32.237z"/>
    </g>
</svg>
