<svg xmlns="http://www.w3.org/2000/svg" width="16" height="16" viewBox="0 0 16 16">
    <path fill="#FF7452" fill-rule="evenodd" d="M3.25 9H.75A.75.75 0 0 1 0 8.25V.75A.75.75 0 0 1 .75 0h2.5A.75.75 0 0 1 4 .75v7.5a.75.75 0 0 1-.75.75zM2 1.25a.75.75 0 1 0 0 1.5.75.75 0 0 0 0-1.5zm10 12.205c0-1.326-.812-2.07-1.04-2.955h3.179c1.044 0 1.856-.867 1.861-1.816.003-.56-.236-1.164-.608-1.537l-.003-.003c.307-.73.257-1.752-.29-2.484.27-.809-.003-1.803-.513-2.336.135-.55.07-1.018-.192-1.395C13.756.013 12.175 0 10.84 0h-.09C9.242 0 8.007.55 7.015.991c-.5.222-1.151.497-1.646.506A.375.375 0 0 0 5 1.872v6.68c0 .1.04.196.111.267 1.238 1.223 1.77 2.518 2.785 3.534.463.464.631 1.164.794 1.84.139.58.43 1.807 1.06 1.807.75 0 2.25-.25 2.25-2.545z"/>
</svg>
