<svg xmlns="http://www.w3.org/2000/svg" width="17" height="17" viewBox="0 0 17 17">
    <path fill="#FFF" fill-rule="evenodd" d="M10.625.708c.782 0 1.417.635 1.417 1.417v.708h2.125c.782 0 1.416.635 1.416 1.417v1.417c0 .782-.634 1.416-1.416 1.416h-.057l-.652 7.792c0 .782-.634 1.417-1.416 1.417H4.958c-.782 0-1.416-.635-1.414-1.358l-.654-7.85h-.057c-.782 0-1.416-.635-1.416-1.417V4.25c0-.782.634-1.417 1.416-1.417h2.125v-.708c0-.782.635-1.417 1.417-1.417h4.25zm2.064 6.375H4.31l.647 7.792h7.084l.002-.059.645-7.733zm1.478-2.833H2.833v1.417h11.334V4.25zm-3.542-2.125h-4.25v.708h4.25v-.708z"/>
</svg>
