<svg xmlns="http://www.w3.org/2000/svg" width="16" height="16" viewBox="0 0 16 16">
    <path fill="#6364E9" fill-rule="evenodd" d="M8 .667a7.333 7.333 0 1 1 0 14.666A7.333 7.333 0 0 1 8 .667zm0 10.666c-2.379 0-3.78.458-3.976 1.16A5.975 5.975 0 0 0 8 14c1.526 0 2.918-.57 3.977-1.507-.196-.702-1.598-1.16-3.977-1.16zM8 2a6 6 0 0 0-5.033 9.267l.1.149C3.819 10.426 5.582 10 8 10c2.42 0 4.183.425 4.933 1.417A6 6 0 0 0 8 2zm0 2c1.61 0 2.667 1.281 2.667 2.8C10.667 8.986 9.479 10 8 10c-1.493 0-2.667-1.048-2.667-3.333C5.333 5.17 6.386 4 8 4zm0 1.333c-.844 0-1.333.544-1.333 1.334 0 1.513.545 2 1.333 2 .785 0 1.333-.468 1.333-1.867 0-.833-.523-1.467-1.333-1.467z"/>
</svg>
