<svg xmlns="http://www.w3.org/2000/svg" width="16" height="16" viewBox="0 0 16 16">
    <path fill="#6364E9" fill-rule="evenodd" d="M11.949 1.85c.034.12.051.243.051.367v1.116h1.333c.737 0 1.334.597 1.334 1.334v8c0 .736-.597 1.333-1.334 1.333H2.667a1.333 1.333 0 0 1-1.334-1.333h.018a1.333 1.333 0 0 1-.018-.217V4.503c0-.595.395-1.119.967-1.282l8-2.286a1.333 1.333 0 0 1 1.649.916zm1.384 5.483H12v2.83c0 .596-.395 1.12-.967 1.283l-4.274 1.22h6.574V7.334zm-2.666-5.116l-8 2.286v7.947l8-2.286V2.217zm-2 3.116a.667.667 0 1 1 0 1.334.667.667 0 0 1 0-1.334zm4.666-.666H12V6h1.333V4.667z"/>
</svg>
