<svg xmlns="http://www.w3.org/2000/svg" width="98.58" height="98.58" viewBox="0 0 98.58 98.58"><g transform="translate(-0.51 -0.066)"><circle cx="49.29" cy="49.29" r="49.29" transform="translate(0.51 0.066)" fill="#c5c5ff"/><path d="M1.65,0H33.738a5.34,5.34,0,0,1,5.34,5.34V27.258A8.076,8.076,0,0,1,31,35.334H0V1.656A1.65,1.65,0,0,1,1.65.006Z" transform="translate(28.152 33.744)" fill="#6c6ce0"/><path d="M0,0H39.966a3.792,3.792,0,0,1,3.792,3.792v27.75a3.792,3.792,0,0,1-3.792,3.792H2a2,2,0,0,1-2-2Z" transform="translate(28.152 40.296)" fill="#7575f7"/><rect width="43.764" height="3.162" transform="translate(28.152 46.5)" fill="#fff" opacity="0.53"/><rect width="20.886" height="8.424" rx="3.684" transform="translate(55.296 55.098)" fill="#fff"/><circle cx="2.28" cy="2.28" r="2.28" transform="translate(68.52 57.03)" fill="#6c6ce0"/><path d="M0,10.812,24.6.24a3,3,0,0,1,4.056,1.92l2.49,8.652Z" transform="translate(30.468 29.484)" fill="#fff"/></g></svg>