<?xml version="1.0" encoding="UTF-8"?>
<svg width="100px" height="100px" viewBox="0 0 100 100" version="1.1" xmlns="http://www.w3.org/2000/svg" xmlns:xlink="http://www.w3.org/1999/xlink">
    <!-- Generator: Sketch 63.1 (92452) - https://sketch.com -->
    <title>Group 8</title>
    <desc>Created with Sketch.</desc>
    <defs>
        <polygon id="path-1" points="0 0.6221 34.829 0.6221 34.829 53 0 53"></polygon>
    </defs>
    <g id="Page-2" stroke="none" stroke-width="1" fill="none" fill-rule="evenodd">
        <g id="draft-v11.2" transform="translate(-855.000000, -6752.000000)">
            <g id="Group-8" transform="translate(855.000000, 6752.000000)">
                <g id="illustration-assets-13-copy" fill="#C5C5FF" fill-rule="nonzero">
                    <circle id="Oval" cx="49.8" cy="49.878" r="49.29"></circle>
                </g>
                <g id="advantages-11" transform="translate(33.000000, 23.000000)">
                    <g id="Group-3" transform="translate(0.000000, 0.378400)">
                        <mask id="mask-2" fill="white">
                            <use xlink:href="#path-1"></use>
                        </mask>
                        <g id="Clip-2"></g>
                        <path d="M30.702,53.0001 L4.127,53.0001 C1.848,53.0001 0,51.1521 0,48.8731 L0,4.7491 C0,2.4691 1.848,0.6221 4.127,0.6221 L30.702,0.6221 C32.981,0.6221 34.829,2.4691 34.829,4.7491 L34.829,48.8731 C34.829,51.1521 32.981,53.0001 30.702,53.0001" id="Fill-1" fill="#6C6CE0" mask="url(#mask-2)"></path>
                    </g>
                    <path d="M30.4882,43.9288 L4.3412,43.9288 C3.5302,43.9288 2.8722,43.2718 2.8722,42.4608 L2.8722,6.7878 C2.8722,5.9768 3.5302,5.3198 4.3412,5.3198 L30.4882,5.3198 C31.2992,5.3198 31.9562,5.9768 31.9562,6.7878 L31.9562,42.4608 C31.9562,43.2718 31.2992,43.9288 30.4882,43.9288" id="Fill-4" fill="#FFFFFF"></path>
                    <path d="M19.0966,15.3082 L20.6796,18.5162 C20.9526,19.0692 21.4806,19.4532 22.0916,19.5422 L25.6316,20.0562 C27.1696,20.2802 27.7846,22.1702 26.6716,23.2552 L24.1096,25.7522 C23.6676,26.1832 23.4656,26.8042 23.5706,27.4122 L24.1746,30.9382 C24.4376,32.4702 22.8296,33.6392 21.4536,32.9152 L18.2866,31.2512 C17.7406,30.9632 17.0886,30.9632 16.5416,31.2512 L13.3756,32.9152 C11.9996,33.6392 10.3916,32.4702 10.6546,30.9382 L11.2586,27.4122 C11.3636,26.8042 11.1616,26.1832 10.7196,25.7522 L8.1576,23.2552 C7.0446,22.1702 7.6586,20.2802 9.1976,20.0562 L12.7376,19.5422 C13.3476,19.4532 13.8766,19.0692 14.1496,18.5162 L15.7326,15.3082 C16.4206,13.9142 18.4086,13.9142 19.0966,15.3082" id="Fill-6" fill="#6C6CE0"></path>
                    <path d="M19.7767,48.1134 C19.7767,49.4184 18.7187,50.4764 17.4147,50.4764 C16.1097,50.4764 15.0517,49.4184 15.0517,48.1134 C15.0517,46.8084 16.1097,45.7514 17.4147,45.7514 C18.7187,45.7514 19.7767,46.8084 19.7767,48.1134" id="Fill-8" fill="#FFFFFF"></path>
                    <polygon id="Fill-10" fill="#6C6CE0" opacity="0.200000003" points="31.9564 9.9097 2.8724 22.5987 2.8724 36.7737 31.9564 23.6987"></polygon>
                </g>
            </g>
        </g>
    </g>
</svg>