<svg xmlns="http://www.w3.org/2000/svg" width="98.58" height="98.58" viewBox="0 0 98.58 98.58"><g transform="translate(-0.51 -0.588)"><circle cx="49.29" cy="49.29" r="49.29" transform="translate(0.51 0.588)" fill="#c5c5ff"/><circle cx="27.966" cy="27.966" r="27.966" transform="translate(21.858 24.39)" fill="#7575f7"/><path d="M3.275,0s-7.368,5.964,0,9.672,9.078,1.71,7.08,8.844,10.068,6,11.6,0C21.953,18.516,19.019,3.744,3.275,0Z" transform="translate(54.589 25.566)" fill="#fff"/><path d="M8.975,0s5.928,1.356,2.79,6.78-1.584,4.854-.936,7.992,5.118,16.482-8.94,14.52A25.868,25.868,0,0,1,8.975,0Z" transform="translate(21.511 32.166)" fill="#fff"/><path d="M3.369.4s-4.494.426-3.1,4.92,6,.858,5.67,4.8,7.062,6.54,8.136,1.932S11.733-2.064,3.369.4Z" transform="translate(38.067 33.546)" fill="#fff"/><path d="M2.83,0S-.644-.087.106,2.7s5.88,5.238,6.6,1.2S5.344-.009,2.83,0Z" transform="translate(35.882 61.647)" fill="#fff"/><path d="M0,8.5a3.763,3.763,0,0,1,4.7-2.9c4.02.75,5.844,5.16,9.27,1.4s4.278-3.972,7.38-2.472,4.89-8.73,11-2.49C32.352,2.037,19.95,17.169,0,8.5Z" transform="translate(38.07 69.231)" fill="#fff"/><path d="M16.673,5.221s-3.852,1.47-5.352-2.9S4.685.517,5.435,3.829s0,5.454-2.568,5.346-4.386,4.8-1.068,6,8.13,3.858,11.448-.744,8.562-.318,11.022-3.528S22.769.085,16.673,5.221Z" transform="translate(48.205 49.493)" fill="#fff"/><circle cx="20.958" cy="20.958" r="20.958" transform="translate(28.866 33.174)" fill="#6c6ce0" opacity="0.4"/></g></svg>