<?xml version="1.0" encoding="UTF-8"?>
<svg width="100px" height="100px" viewBox="0 0 100 100" version="1.1" xmlns="http://www.w3.org/2000/svg" xmlns:xlink="http://www.w3.org/1999/xlink">
    <!-- Generator: Sketch 57.1 (83088) - https://sketch.com -->
    <title>design asset 12</title>
    <desc>Created with Sketch.</desc>
    <g id="Page-1" stroke="none" stroke-width="1" fill="none" fill-rule="evenodd">
        <g id="design-asset-12">
            <circle id="Oval" fill="#D5B8FF" cx="50" cy="50" r="50"></circle>
            <g id="Artboard-6-copy-6" transform="translate(18.000000, 18.000000)" fill-rule="nonzero">
                <circle id="Oval" fill="#7F5BB2" opacity="0.55" cx="36.79" cy="15.165" r="11.83"></circle>
                <rect id="Rectangle" fill="#663398" x="0.465" y="32.37" width="16.98" height="31.235" rx="2.165"></rect>
                <path d="M17.445,35.73 C17.445,35.73 28.495,28.23 36.025,34.45 C43.555,40.67 49.16,39.895 44.995,46.95 C40.83,54.005 33.625,44.385 33.625,44.385 C33.625,44.385 33.46,58.48 17.445,59.44 L17.445,35.73 Z" id="Path" fill="#FFFFFF"></path>
                <path d="M17.445,59.435 L38.625,61.03 C42.7910908,61.3411563 46.9000051,59.9129918 49.975,57.085 L63.365,44.755 C63.9504781,44.2212995 64.2080174,43.4165448 64.0411793,42.6420864 C63.8743412,41.8676279 63.3082936,41.240295 62.555,40.995 C60.9,40.46 58.555,40.575 55.555,42.94 C54.2520986,43.9735988 52.8769218,44.9126624 51.44,45.75 C46.8161551,48.3944327 41.1146594,48.2907691 36.59,45.48 L31.92,42.62 L17.445,59.435 Z" id="Path" fill="#FFFFFF"></path>
                <path d="M45,46.945 C45,46.945 38.19,46.445 34.03,41.5 C34.03,41.5 35.07,47.665 39.53,48.305 C43.99,48.945 45,46.945 45,46.945 Z" id="Path" fill="#D6B8FF" opacity="0.43"></path>
                <circle id="Oval" fill="#7F5BB2" cx="36.79" cy="11.875" r="11.83"></circle>
                <circle id="Oval" fill="#663398" opacity="0.37" cx="36.79" cy="11.875" r="7.735"></circle>
                <path d="M37.15,6.59 C37.44,6.59 37.53,6.695 37.53,6.985 L37.53,7.6 C38.5686743,7.71020181 39.4613628,8.38548989 39.85,9.355 C40,9.66 39.94,9.82 39.595,9.975 L39,10.25 C38.71,10.39 38.57,10.325 38.405,10.025 C38.1423687,9.37788712 37.4849599,8.98099943 36.79,9.05 C35.72,9.05 35.23,9.365 35.23,10.085 C35.2771666,10.540155 35.6436636,10.8961205 36.1,10.93 C36.3984514,10.9954965 36.7007086,11.0422545 37.005,11.07 C37.5774166,11.0994523 38.1428977,11.208846 38.685,11.395 C38.9552342,11.4851007 39.2074385,11.6222051 39.43,11.8 C39.8783216,12.2760159 40.1177523,12.9114974 40.095,13.565 C40.095,14.94 39.175,15.875 37.55,16.115 L37.55,16.77 C37.55,17.06 37.46,17.16 37.17,17.16 L36.475,17.16 C36.185,17.16 36.085,17.06 36.085,16.77 L36.085,16.125 C34.9372363,16.0402471 33.952091,15.2757744 33.585,14.185 C33.5299932,14.0706823 33.5310048,13.9373398 33.5877397,13.8238699 C33.6444747,13.7103999 33.7505417,13.6295851 33.875,13.605 L34.49,13.38 C34.805,13.265 34.945,13.34 35.085,13.655 C35.3463557,14.352443 36.0437095,14.7872636 36.785,14.715 C37.945,14.715 38.525,14.35 38.525,13.605 C38.5455591,13.251821 38.3228124,12.9300757 37.985,12.825 C37.5828437,12.682336 37.1613956,12.601418 36.735,12.585 C36.1564795,12.5492833 35.5866951,12.4262234 35.045,12.22 C34.7789449,12.1238378 34.5318551,11.9816765 34.315,11.8 C33.8578979,11.3489632 33.611179,10.7267235 33.635,10.085 C33.635,8.725 34.49,7.815 36.105,7.585 L36.105,7 C36.105,6.71 36.205,6.605 36.495,6.605 L37.15,6.59 Z" id="Path" fill="#FFFFFF"></path>
            </g>
        </g>
    </g>
</svg>