<?xml version="1.0" encoding="UTF-8"?>
<svg width="100px" height="100px" viewBox="0 0 100 100" version="1.1" xmlns="http://www.w3.org/2000/svg" xmlns:xlink="http://www.w3.org/1999/xlink">
    <!-- Generator: Sketch 57.1 (83088) - https://sketch.com -->
    <title>design asset 11</title>
    <desc>Created with Sketch.</desc>
    <g id="Page-1" stroke="none" stroke-width="1" fill="none" fill-rule="evenodd">
        <g id="design-asset-11">
            <circle id="Oval" fill="#D5B8FF" cx="50" cy="50" r="50"></circle>
            <g id="Artboard-6-copy-5" transform="translate(21.000000, 21.000000)" fill-rule="nonzero">
                <path d="M3.035,48.125 L54.685,48.125 C54.9276731,48.125 55.1604069,48.2214015 55.3320027,48.3929973 C55.5035985,48.5645931 55.6,48.7973269 55.6,49.04 L55.6,56.5 C55.6,57.4195541 54.8545541,58.165 53.935,58.165 L3.785,58.165 C2.86544589,58.165 2.12,57.4195541 2.12,56.5 L2.12,49.045 C2.12,48.5396595 2.52965945,48.13 3.035,48.13 L3.035,48.125 Z" id="Path" fill="#FFFFFF"></path>
                <polygon id="Path" fill="#663398" points="39.26 34.385 29.045 3.555 18.835 34.385 3.975 5.785 3.975 48.125 29.045 48.125 54.12 48.125 54.12 5.785"></polygon>
                <circle id="Oval" fill="#FFFFFF" cx="4.705" cy="7.285" r="4.305"></circle>
                <circle id="Oval" fill="#FFFFFF" cx="53.295" cy="7.285" r="4.305"></circle>
                <circle id="Oval" fill="#FFFFFF" cx="29.08" cy="4.375" r="4.305"></circle>
                <path d="M18.125,12.425 C19.7205469,11.8956984 20.6859111,10.2756681 20.3920753,8.62049725 C20.0982395,6.96532636 18.6342429,5.77657067 16.9540043,5.82880606 C15.2737658,5.88104146 13.8864372,7.15843938 13.6959816,8.82866596 C13.505526,10.4988925 14.569656,12.0558298 16.195,12.485 L13.435,24 L18.83,34.395 L22.275,24 L18.125,12.425 Z" id="Path" fill="#7F5BB2"></path>
                <path d="M40.035,12.425 C38.4431464,11.8949235 37.4810795,10.2773803 37.7752137,8.62557396 C38.0693478,6.97376762 39.5306402,5.78774765 41.2076241,5.83974716 C42.8846081,5.89174666 44.2696121,7.16602388 44.460842,8.83288027 C44.6520719,10.4997367 43.5916369,12.0545666 41.97,12.485 L44.73,23.985 L39.33,34.38 L35.885,24 L40.035,12.425 Z" id="Path" fill="#7F5BB2"></path>
            </g>
        </g>
    </g>
</svg>