<svg xmlns="http://www.w3.org/2000/svg" width="98.58" height="98.58" viewBox="0 0 98.58 98.58"><g transform="translate(-0.51 -0.588)"><circle cx="49.29" cy="49.29" r="49.29" transform="translate(0.51 0.588)" fill="#c5c5ff"/><path d="M6.815.239S.989-1.291.113,3.395,3.467,21.173,12.227,13.553,6.815.239,6.815.239Z" transform="translate(25.237 35.761)" fill="none" stroke="#efefef" stroke-miterlimit="10" stroke-width="1.8"/><path d="M8.27.239s5.826-1.53,6.7,3.156S11.618,21.173,2.858,13.553,8.27.239,8.27.239Z" transform="translate(59.278 35.761)" fill="none" stroke="#efefef" stroke-miterlimit="10" stroke-width="1.8"/><rect width="20.778" height="16.932" rx="3.708" transform="translate(40.326 64.59)" fill="#7575f7"/><rect width="15.744" height="11.67" rx="4.068" transform="translate(42.822 67.134)" fill="#6c6ce0"/><path d="M32.516,0H3.218A3.216,3.216,0,0,0,.038,3.708L1.5,13.194A15.054,15.054,0,0,0,9.614,24.366L10.868,25a15.546,15.546,0,0,0,14,0l1.254-.636a15.06,15.06,0,0,0,8.112-11.172L35.7,3.708A3.222,3.222,0,0,0,32.516,0Z" transform="translate(32.494 30.27)" fill="#fff"/><rect width="4.668" height="7.836" transform="translate(48.006 56.754)" fill="#efefef"/><path d="M6.6,0C5.262,2.664,3.186,5.184,0,6" transform="translate(54.846 46.098)" fill="none" stroke="#efefef" stroke-linecap="round" stroke-linejoin="bevel" stroke-miterlimit="10" stroke-width="1.8" opacity="0.57"/><path d="M.69,0A23.526,23.526,0,0,1,0,3.516" transform="translate(63.03 38.322)" fill="none" stroke="#efefef" stroke-linecap="round" stroke-linejoin="bevel" stroke-miterlimit="10" stroke-width="1.8" opacity="0.57"/></g></svg>