<svg xmlns="http://www.w3.org/2000/svg" width="98.58" height="98.58" viewBox="0 0 98.58 98.58"><g transform="translate(-0.51 -0.588)"><circle cx="49.29" cy="49.29" r="49.29" transform="translate(0.51 0.588)" fill="#c5c5ff"/><path d="M34.362,22.7a5.74,5.74,0,0,0-7.314-6.21,23.892,23.892,0,0,1-2.916.936h0a.528.528,0,0,1-.6-.7,27.726,27.726,0,0,0,1.938-11c0-.444-.042-.864-.078-1.26-.654-6.5-10.332-5.652-10.284.876a14,14,0,0,1-1.68,6.924C9.63,19.168,0,20.008,0,20.008V44.092c2.076.108,2.778.192,3.882.15s2.118-.054,3.174,0l.924.048s12.672.228,18.852-.114c7.8-.432,6.882-5.4,6.882-5.4,3.354-4.314.774-7.41.774-7.41C37.3,27.346,34.362,22.7,34.362,22.7Z" transform="translate(41.478 27.632)" fill="#fff"/><rect width="19.128" height="27.372" rx="5.364" transform="translate(23.01 45.63)" fill="#7575f7"/><path d="M.66,0S25.368,6.066,33.2,2.91c0,0-1.014,3.252-8.334,3.078L7.614,6.162c-.444,0-.894,0-1.338-.036L0,5.718Z" transform="translate(41.478 66)" fill="#ededf2"/><path d="M0,0H19.128V3.4a3.6,3.6,0,0,1-3.6,3.6H3.642A3.642,3.642,0,0,1,0,3.354Z" transform="translate(23.01 66)" fill="#6c6ce0"/></g></svg>