<svg xmlns="http://www.w3.org/2000/svg" width="145.76" height="168.535" viewBox="0 0 145.76 168.535"><g transform="translate(-0.085 -0.385)"><ellipse cx="72.88" cy="25.965" rx="72.88" ry="25.965" transform="translate(0.085 116.99)" fill="#edebf6"/><path d="M13.207,3.153C7.922,12.248-2.183,32.633.422,51.7a7.4,7.4,0,0,0,7.93,6.35l112.925-8.925a1.91,1.91,0,0,0,.625-3.645L21.307.558A6.365,6.365,0,0,0,13.207,3.153Z" transform="translate(7.078 48.752)" fill="#8180ff"/><path d="M0,6.335l8.66,26.73a9.28,9.28,0,0,0,9.61,6.385l98.955-9.09a5.625,5.625,0,0,0,5.11-5.73L121.795,0Z" transform="translate(8.275 96.5)" fill="#7c7cdd"/><ellipse cx="7.125" cy="4.245" rx="7.125" ry="4.245" transform="translate(46.835 76.64)" fill="#7c7cdd" opacity="0.44"/><path d="M2,82.5a2,2,0,0,1-2-2V2A2,2,0,0,1,4,2V80.5A2,2,0,0,1,2,82.5Z" transform="translate(51.96 0.385)" fill="#6565b7"/><path d="M0,1,68.33,0V42H0V1Z" transform="translate(55.795 3.875)" fill="#29dd9c"/><path d="M1.595,7.586H0L2.725,0H4.495L7.219,7.584H5.6l-.5-1.44h-3l-.5,1.44Zm2-5.831L2.51,4.91h2.2Z" transform="translate(63.405 21.09)" fill="#f8f7ff"/><path d="M.02,0h1.5V4.69A1.407,1.407,0,0,0,3.05,6.275,1.41,1.41,0,0,0,4.595,4.69V0h1.53V4.68a2.874,2.874,0,0,1-3.1,3A2.824,2.824,0,0,1,0,4.68Z" transform="translate(71.605 21.1)" fill="#f8f7ff"/><path d="M2.65,7.575H0V0H2.65a3.658,3.658,0,0,1,4,3.8A3.648,3.648,0,0,1,2.65,7.575ZM1.53,1.3v5H2.6A2.276,2.276,0,0,0,5.1,3.8,2.276,2.276,0,0,0,2.6,1.3Z" transform="translate(79.205 21.1)" fill="#f8f7ff"/><path d="M0,0H1.5V7.575H0Z" transform="translate(87 21.1)" fill="#f8f7ff"/><path d="M4.41,1.235H1.535v1.9h2.55V4.34H1.535v2H4.41V7.575H0V0H4.395Z" transform="translate(90 21.09)" fill="#f8f7ff"/><path d="M6.465,0V7.585h-1.5L1.5,2.41v5.2H0V0H1.5L4.945,5.21V0Z" transform="translate(95.805 21.09)" fill="#f8f7ff"/><path d="M3.87.015A3.57,3.57,0,0,1,7.43,2.47H5.68A1.9,1.9,0,0,0,3.86,1.385a2.262,2.262,0,0,0-2.27,2.5,2.262,2.262,0,0,0,2.27,2.5,1.9,1.9,0,0,0,1.82-1.1H7.43A3.56,3.56,0,0,1,3.87,7.74,3.87,3.87,0,0,1,3.87,0Z" transform="translate(103.37 20.985)" fill="#f8f7ff"/><path d="M4.4,1.235H1.52v1.9H4.07V4.34H1.52v2H4.4V7.575H0V0H4.4Z" transform="translate(112.1 21.09)" fill="#f8f7ff"/><path d="M0,0s-.75,18.29,23.5,21.75,30.75,3.46,30.75,3.46H0Z" transform="translate(55.792 20.665)" fill="#22af79" opacity="0.32"/></g></svg>