<svg xmlns="http://www.w3.org/2000/svg" width="227.37" height="200.6" viewBox="0 0 227.37 200.6"><g transform="translate(-0.24 -0.335)"><ellipse cx="113.685" cy="39.135" rx="113.685" ry="39.135" transform="translate(0.24 122.665)" fill="#edebf6"/><path d="M0,28.5v27s21.975-10.135,22.035-27V0Z" transform="translate(185.035 115.83)" fill="#a3a3ce"/><path d="M0,43.524V.024s33.535-1.11,61.725,11.77c0,0,28.525,11.58,28.525,31.73,0,0,.395,16.88-22.1,28.5Z" transform="translate(116.88 72.291)" fill="#bdbdf0"/><path d="M0,0V24.15L68.155,55.515v-27L0,0Z" transform="translate(116.88 115.815)" fill="#8686b7"/><path d="M0,0V27L53,57.025,90.25,27V0Z" transform="translate(15.52 104.775)" fill="#7c7cdd"/><path d="M158.4,45,90.25,16.5V0C40.4,0,0,19.5,0,43.5S40.4,87,90.25,87c27.21,0,51.61-5.805,68.155-15Z" transform="translate(15.52 87.045)" fill="#7c7cdd"/><path d="M90.25,43.5V0C40.4,0,0,19.5,0,43.5S40.4,87,90.25,87c27.21,0,51.61-5.805,68.155-15Z" transform="translate(15.52 60.035)" fill="#8180ff"/><ellipse cx="7.125" cy="4.245" rx="7.125" ry="4.245" transform="translate(78.235 76.59)" fill="#7c7cdd" opacity="0.44"/><path d="M2,82.5a2,2,0,0,1-2-2V2A2,2,0,0,1,4,2V80.5A2,2,0,0,1,2,82.5Z" transform="translate(83.36 0.335)" fill="#6565b7"/><path d="M0,1,68.33,0V42H0V1Z" transform="translate(87.195 3.825)" fill="#29dd9c"/><path d="M1.595,7.59H0L2.725,0H4.495L7.219,7.588H5.61L5.095,6.145h-3l-.5,1.444Zm2-5.83-1.1,3.17h2.18L3.595,1.76Z" transform="translate(94.825 21.04)" fill="#f8f7ff"/><path d="M.02,0h1.5V4.69A1.4,1.4,0,0,0,3.05,6.275,1.412,1.412,0,0,0,4.59,4.69V0H6.125V4.68a2.874,2.874,0,0,1-3.1,3A2.824,2.824,0,0,1,0,4.68Z" transform="translate(103.005 21.05)" fill="#f8f7ff"/><path d="M2.65,7.58H0V0H2.65a3.658,3.658,0,0,1,4,3.8A3.649,3.649,0,0,1,2.65,7.58ZM1.525,1.3v5H2.6A2.276,2.276,0,0,0,5.1,3.8,2.276,2.276,0,0,0,2.6,1.3Z" transform="translate(110.605 21.05)" fill="#f8f7ff"/><path d="M0,0H1.5V7.58H0Z" transform="translate(118.395 21.05)" fill="#f8f7ff"/><path d="M4.385,1.24H1.5v1.9h2.57v1.2H1.52v2H4.4v1.24H0V0H4.4Z" transform="translate(121.425 21.04)" fill="#f8f7ff"/><path d="M6.445,0V7.59h-1.5L1.5,2.39v5.2H0V0H1.5L4.925,5.21V0Z" transform="translate(127.225 21.04)" fill="#f8f7ff"/><path d="M3.87.015a3.57,3.57,0,0,1,3.56,2.45H5.68A1.91,1.91,0,0,0,3.86,1.38a2.265,2.265,0,0,0-2.27,2.5,2.265,2.265,0,0,0,2.27,2.5,1.9,1.9,0,0,0,1.82-1.1H7.43A3.56,3.56,0,0,1,3.87,7.74,3.87,3.87,0,0,1,3.87,0Z" transform="translate(134.77 20.94)" fill="#f8f7ff"/><path d="M4.395,1.24H1.5v1.9H4.05v1.2H1.5v2H4.375v1.24H0V0H4.395Z" transform="translate(143.5 21.04)" fill="#f8f7ff"/><path d="M0,0s-.75,18.29,23.5,21.75S54.253,25.2,54.253,25.2H0Z" transform="translate(87.192 20.62)" fill="#22af79" opacity="0.32"/></g></svg>