<svg xmlns="http://www.w3.org/2000/svg" width="227.37" height="198.475" viewBox="0 0 227.37 198.475"><g transform="translate(-0.15 -0.25)"><ellipse cx="113.685" cy="39.135" rx="113.685" ry="39.135" transform="translate(0.15 120.455)" fill="#edebf6"/><path d="M0,20.012S25.66-1.178,75.9.052v43.5Z" transform="translate(27.84 57.823)" fill="#8180ff"/><path d="M0,0V23.54L75.8,48.385V23.54L0,0Z" transform="translate(27.84 77.835)" fill="#7c7cdd"/><path d="M0,28.5v27s21.97-10.135,22.03-27V0Z" transform="translate(182.095 113.62)" fill="#a3a3ce"/><path d="M0,43.524V.024s33.53-1.11,61.725,11.77c0,0,28.5,11.58,28.5,31.73,0,0,.4,16.88-22.09,28.5Z" transform="translate(113.94 70.081)" fill="#bdbdf0"/><path d="M0,0V24.15L68.155,55.515v-27L0,0Z" transform="translate(113.94 113.605)" fill="#8686b7"/><path d="M0,0V27L53,57.03,90.25,27V0Z" transform="translate(23.69 114.82)" fill="#7c7cdd"/><path d="M0,4.185v27S61.575,59.84,127.67,27V0S54.89,19.545,0,4.185Z" transform="translate(54.425 142.095)" fill="#a3a3ce"/><path d="M59.5,0,0,32.7s66.105,28.665,129.545-5.175Z" transform="translate(54.44 113.58)" fill="#bdbdf0"/><path d="M90.3,23.535,14.392,0S-.953,10.1.047,24.775c0,0,1.225,21,30.735,31.46Z" transform="translate(23.643 90.045)" fill="#acacc1"/><path d="M0,0V28.24S.06,37.205,8.445,45.4c0,0,9.74,9.75,22.29,14.305v-27S1.25,21.83,0,0Z" transform="translate(23.69 113.58)" fill="#9292a5"/><ellipse cx="7.125" cy="4.245" rx="7.125" ry="4.245" transform="translate(75.19 76.505)" fill="#7c7cdd" opacity="0.44"/><path d="M2,82.5a2,2,0,0,1-2-2V2A2,2,0,0,1,4,2V80.5A2,2,0,0,1,2,82.5Z" transform="translate(80.315 0.25)" fill="#6565b7"/><path d="M0,1,68.33,0V42H0V1Z" transform="translate(84.15 3.74)" fill="#29dd9c"/><path d="M1.595,7.586H0L2.715,0H4.485l2.73,7.584H5.61l-.515-1.44h-3l-.5,1.44Zm2-5.831h0L2.5,4.925H4.69l-1.1-3.17Z" transform="translate(91.785 20.955)" fill="#f8f7ff"/><path d="M.02,0h1.5V4.69A1.408,1.408,0,0,0,3.055,6.275,1.41,1.41,0,0,0,4.595,4.69V0h1.53V4.68a2.854,2.854,0,0,1-3.1,2.975A2.817,2.817,0,0,1,0,4.68Z" transform="translate(99.98 20.965)" fill="#f8f7ff"/><path d="M2.65,7.575H0V0H2.65a3.658,3.658,0,0,1,4,3.8A3.648,3.648,0,0,1,2.65,7.575ZM1.525,1.3v5H2.6A2.276,2.276,0,0,0,5.1,3.8,2.276,2.276,0,0,0,2.6,1.3Z" transform="translate(107.565 20.965)" fill="#f8f7ff"/><path d="M0,0H1.5V7.575H0Z" transform="translate(115.35 20.965)" fill="#f8f7ff"/><path d="M4.395,1.235H1.52v1.9H4.07V4.34H1.52v2H4.395V7.575H0V0H4.395Z" transform="translate(118.37 20.955)" fill="#f8f7ff"/><path d="M6.44,0V7.585H4.94L1.5,2.385v5.2H0V0H1.5L4.94,5.21V0Z" transform="translate(124.185 20.955)" fill="#f8f7ff"/><path d="M3.87.015A3.57,3.57,0,0,1,7.43,2.47H5.685A1.915,1.915,0,0,0,3.86,1.385a2.262,2.262,0,0,0-2.27,2.5,2.262,2.262,0,0,0,2.27,2.5,1.91,1.91,0,0,0,1.825-1.1H7.43A3.555,3.555,0,0,1,3.87,7.74,3.87,3.87,0,0,1,3.87,0Z" transform="translate(131.725 20.85)" fill="#f8f7ff"/><path d="M4.375,1.235H1.52v1.9H4.07V4.34H1.52v2H4.395V7.575H0V0H4.395Z" transform="translate(140.48 20.955)" fill="#f8f7ff"/><path d="M0,0s-.75,18.29,23.5,21.75,30.75,3.46,30.75,3.46H0Z" transform="translate(84.147 20.53)" fill="#22af79" opacity="0.32"/></g></svg>