<svg xmlns="http://www.w3.org/2000/svg" width="227.37" height="212.235" viewBox="0 0 227.37 212.235"><g transform="translate(-0.43 -0.2)"><ellipse cx="113.685" cy="39.135" rx="113.685" ry="39.135" transform="translate(0.43 134.165)" fill="#edebf6"/><path d="M0,4.317A125.68,125.68,0,0,1,38.64.142v43.5Z" transform="translate(69 65.858)" fill="#8180ff"/><path d="M0,0V16.785L38.51,57.12l.115-17.8L0,0Z" transform="translate(69.015 70.175)" fill="#7c7cdd"/><path d="M0,28.5v27s21.97-10.135,22.03-27V0Z" transform="translate(182.295 127.33)" fill="#a3a3ce"/><path d="M0,43.524V.024S33.535-1.091,61.725,11.789c0,0,28.5,11.585,28.5,31.73,0,0,.4,16.88-22.09,28.5Z" transform="translate(114.135 83.791)" fill="#bdbdf0"/><path d="M0,0V24.15L68.155,55.515v-27L0,0Z" transform="translate(114.135 127.315)" fill="#8686b7"/><path d="M0,0V27L53,57.025,90.245,27V0Z" transform="translate(23.89 128.535)" fill="#7c7cdd"/><path d="M0,4.185v27S61.56,59.84,127.67,27V0S54.875,19.535,0,4.185Z" transform="translate(54.625 155.815)" fill="#a3a3ce"/><path d="M59.51,0,0,32.705s66.105,28.67,129.545-5.17Z" transform="translate(54.625 127.295)" fill="#bdbdf0"/><path d="M90.292,23.54,14.392,0S-.953,10.1.047,24.78c0,0,1.22,21,30.735,31.455Z" transform="translate(23.843 103.755)" fill="#bdbdf0"/><path d="M0,0V28.24S.055,37.2,8.445,45.4c0,0,9.735,9.745,22.29,14.3V32.705S1.25,21.825,0,0Z" transform="translate(23.89 127.295)" fill="#a3a3ce"/><path d="M75.91,39.325,37.275,0S12.36,5.905,0,15.785Z" transform="translate(38.225 87.97)" fill="#acacc1"/><ellipse cx="7.125" cy="4.245" rx="7.125" ry="4.245" transform="translate(88.325 76.465)" fill="#7c7cdd" opacity="0.44"/><path d="M2,82.51a2,2,0,0,1-2-2V2A2,2,0,1,1,4,2V80.5a2,2,0,0,1-2,2.01Z" transform="translate(93.45 0.2)" fill="#6565b7"/><path d="M0,1,68.335,0V42H0V1Z" transform="translate(97.285 3.7)" fill="#29dd9c"/><path d="M1.6,7.59H0L2.725,0H4.495L7.219,7.588H5.6L5.1,6.15h-3L1.6,7.59Zm2-5.825L2.5,4.935H4.7L3.6,1.765Z" transform="translate(104.9 20.91)" fill="#f8f7ff"/><path d="M.02,0h1.5V4.69A1.4,1.4,0,0,0,3.05,6.275,1.41,1.41,0,0,0,4.595,4.69V0h1.53V4.68a2.874,2.874,0,0,1-3.1,3A2.824,2.824,0,0,1,0,4.68Z" transform="translate(113.095 20.925)" fill="#f8f7ff"/><path d="M2.645,7.58H0V0H2.645a3.658,3.658,0,0,1,4,3.8A3.649,3.649,0,0,1,2.645,7.58ZM1.52,1.3v5H2.595a2.276,2.276,0,0,0,2.5-2.5,2.276,2.276,0,0,0-2.5-2.5Z" transform="translate(120.705 20.925)" fill="#f8f7ff"/><path d="M0,0H1.5V7.575H0Z" transform="translate(128.5 20.925)" fill="#f8f7ff"/><path d="M4.4,1.24H1.525v1.9h2.55v1.2H1.525v2H4.4v1.24H0V0H4.395Z" transform="translate(131.5 20.915)" fill="#f8f7ff"/><path d="M6.44,0V7.585H4.94L1.5,2.385v5.2H0V0H1.5L4.94,5.21V0Z" transform="translate(137.32 20.915)" fill="#f8f7ff"/><path d="M3.87.015a3.57,3.57,0,0,1,3.56,2.45H5.685A1.915,1.915,0,0,0,3.86,1.38a2.262,2.262,0,0,0-2.27,2.5,2.262,2.262,0,0,0,2.27,2.5,1.9,1.9,0,0,0,1.825-1.1H7.43A3.555,3.555,0,0,1,3.87,7.74,3.87,3.87,0,0,1,3.87,0Z" transform="translate(144.86 20.815)" fill="#f8f7ff"/><path d="M4.4,1.24H1.52v1.9H4.075v1.2H1.52v2H4.4v1.24H0V0H4.4Z" transform="translate(153.6 20.915)" fill="#f8f7ff"/><path d="M0,0s-.75,18.29,23.5,21.75S54.253,25.2,54.253,25.2H0Z" transform="translate(97.282 20.5)" fill="#22af79" opacity="0.32"/></g></svg>