<svg xmlns="http://www.w3.org/2000/svg" width="231.71" height="206.18" viewBox="0 0 231.71 206.18"><g transform="translate(-0.265 -0.23)"><ellipse cx="115.855" cy="17.39" rx="115.855" ry="17.39" transform="translate(0.265 171.63)" fill="#edebf6"/><circle cx="70.54" cy="70.54" r="70.54" transform="translate(46.515 1.725)" fill="#c5c6ff"/><path d="M4.2,0,0,27.37H18.05V1.59L4.2,0Z" transform="translate(107.095 74.415)" fill="#ea8373"/><path d="M.866,12.6s-4.81,27.755,8.245,30.71,21.64-3.915,20.955-28.65S1.726,1.6.866,12.6Z" transform="translate(102.189 39.897)" fill="#ff9680"/><path d="M7.66,2.491s-3-5.255-6.86-.5S8.3,12.646,8.3,12.646Z" transform="translate(94.8 54.954)" fill="#ff9680"/><path d="M.64,2.491s3-5.255,6.86-.5S0,12.646,0,12.646Z" transform="translate(130.535 54.954)" fill="#ff9680"/><path d="M0,28.315S2.3,3.5,32.53,0H50.225S82.64,3.115,87.255,25.835c0,0-17.7,16.73-46.055,16.705C41.2,42.525,18.45,43.82,0,28.315Z" transform="translate(74.92 99.5)" fill="#29dd9c"/><path d="M0,0S29.055,27.3,50.24,15.5c0,0-10.74-13.23-32.545-15.5Z" transform="translate(107.45 99.5)" fill="#323144" opacity="0.07"/><path d="M1.23,27.392l3.43,16.35,2.405-12s20.2,3.125,24.77-4.33c0,0-1.125,12.665,2.08,17.755l3.04-12s8.585-11.745,1.855-18.5c0,0-3.37-18.5-22.6-13.945S-.64,18.472,1.23,27.392Z" transform="translate(97.725 21.838)" fill="#e8c05b"/><path d="M72.055,144.075A72.037,72.037,0,1,1,144.1,72.035,72.129,72.129,0,0,1,72.055,144.075ZM72.055,3a69.038,69.038,0,1,0,69.04,69.035A69.123,69.123,0,0,0,72.055,3Z" transform="translate(45 0.23)" fill="#6d6dbc"/><path d="M21.2,0,0,40.54l17.97-8.43L30.84,4.225,21.2,0Z" transform="translate(26.555 137.975)" fill="#6d6dbc"/><path d="M21.79,4.37,5.7,47.195,0,28.18,12.22,0l9.57,4.37Z" transform="translate(44.51 141.825)" fill="#c5c6ff"/><path d="M9.635,0l21.2,40.54L12.87,32.11,0,4.225,9.635,0Z" transform="translate(76.585 137.975)" fill="#6d6dbc"/><path d="M0,4.37,16.095,47.195l5.69-19.015L9.57,0,0,4.37Z" transform="translate(67.68 141.825)" fill="#c5c6ff"/><circle cx="24.81" cy="24.81" r="24.81" transform="translate(42.18 96.585)" fill="#dca925"/><circle cx="24.81" cy="24.81" r="24.81" transform="translate(42.18 101.25)" fill="#f6d439"/><circle cx="20.565" cy="20.565" r="20.565" transform="translate(46.425 105.495)" fill="#e8b81e"/><path d="M3.968,5.343a.885.885,0,0,1-.74-.4A16.735,16.735,0,0,0,.3,1.553.886.886,0,0,1,1.468.218a18.5,18.5,0,0,1,3.25,3.735.89.89,0,0,1-.255,1.23.86.86,0,0,1-.495.16Z" transform="translate(77.197 112.447)" fill="#f6d439"/><path d="M9.591,4.521a.85.85,0,0,1-.445-.12,20,20,0,0,0-8.3-2.63A.886.886,0,0,1,.921,0a21.5,21.5,0,0,1,9.11,2.87.885.885,0,0,1-.45,1.65Z" transform="translate(65.649 107.674)" fill="#f6d439"/><path d="M2.861,1.9a15.31,15.31,0,0,1-2.145-.15A.885.885,0,0,1,.966,0a13.92,13.92,0,0,0,2.78.1.9.9,0,0,1,.94.83.89.89,0,0,1-.83.94C3.526,1.894,3.191,1.9,2.861,1.9Z" transform="translate(63.189 142.791)" fill="#f6d439" opacity="0.47"/><path d="M9.722,8.729a.93.93,0,0,1-.305-.05A20.5,20.5,0,0,1,.142,1.374a.892.892,0,0,1,1.5-.965,19.007,19.007,0,0,0,8.4,6.6.885.885,0,0,1-.3,1.715Z" transform="translate(51.278 135.061)" fill="#f6d439" opacity="0.47"/></g></svg>