<svg xmlns="http://www.w3.org/2000/svg" width="227.37" height="200.625" viewBox="0 0 227.37 200.625"><g transform="translate(-0.005)"><ellipse cx="113.685" cy="39.135" rx="113.685" ry="39.135" transform="translate(0.005 122.355)" fill="#edebf6"/><path d="M0,1.24v27L30.735,59.695,90.25,24.23V0L0,1.24Z" transform="translate(14.105 103.5)" fill="#7c7cdd"/><path d="M30.735,76.195v-27L90.235,16.5h0V0C40.4,0,0,19.5,0,43.5,0,56.53,11.9,68.225,30.735,76.195Z" transform="translate(14.105 87)" fill="#7c7cdd"/><path d="M30.735,76.195,90.235,43.5V.025h0V0C40.4,0,0,19.5,0,43.5,0,56.53,11.9,68.225,30.735,76.195Z" transform="translate(14.105 60)" fill="#8180ff"/><path d="M0,0V24.15L68.155,55.515v-27L0,0Z" transform="translate(115.875 115.505)" fill="#8686b7"/><path d="M0,28.5v27s21.975-10.135,22.035-27V0Z" transform="translate(184.03 115.5)" fill="#a3a3ce"/><path d="M0,43.524V.024s33.535-1.11,61.725,11.77c0,0,28.525,11.58,28.525,31.73,0,0,.395,16.88-22.1,28.5Z" transform="translate(115.875 71.976)" fill="#bdbdf0"/><path d="M0,4.18v27S61.56,59.835,127.665,27V0S54.885,19.54,0,4.18Z" transform="translate(56.365 144)" fill="#9292a5"/><path d="M59.5,0,0,32.7s64.215,29.635,127.655-4.2Z" transform="translate(56.375 115.5)" fill="#acacc1"/><ellipse cx="7.125" cy="4.245" rx="7.125" ry="4.245" transform="translate(77.23 76.28)" fill="#7c7cdd" opacity="0.44"/><path d="M2,82.525a2,2,0,0,1-2-2V2A2,2,0,0,1,4,2V80.5a2,2,0,0,1-2,2.025Z" transform="translate(82.355)" fill="#6565b7"/><path d="M0,1,68.33,0V42H0V1Z" transform="translate(86.19 3.515)" fill="#29dd9c"/><path d="M1.595,7.59H0L2.725,0H4.495L7.219,7.588H5.61L5.095,6.145h-3l-.5,1.444Zm2-5.83-1.1,3.17H4.68L3.595,1.76Z" transform="translate(93.82 20.73)" fill="#f8f7ff"/><path d="M.02,0h1.5V4.69A1.407,1.407,0,0,0,3.05,6.275,1.41,1.41,0,0,0,4.595,4.69V0h1.53V4.68a2.874,2.874,0,0,1-3.1,3A2.824,2.824,0,0,1,0,4.68Z" transform="translate(101.98 20.74)" fill="#f8f7ff"/><path d="M2.65,7.58H0V0H2.65a3.658,3.658,0,0,1,4,3.8A3.649,3.649,0,0,1,2.65,7.58ZM1.525,1.3v5H2.6A2.276,2.276,0,0,0,5.1,3.8,2.276,2.276,0,0,0,2.6,1.3Z" transform="translate(109.6 20.74)" fill="#f8f7ff"/><path d="M0,0H1.5V7.58H0Z" transform="translate(117.39 20.74)" fill="#f8f7ff"/><path d="M4.38,1.235H1.5v1.9H4.075V4.34H1.52v2H4.4V7.58H0V0H4.4Z" transform="translate(120.425 20.73)" fill="#f8f7ff"/><path d="M6.465,0V7.59h-1.5L1.5,2.385V7.59H0V0H1.5L4.945,5.21V0Z" transform="translate(126.2 20.73)" fill="#f8f7ff"/><path d="M3.736.025A3.575,3.575,0,0,1,7.3,2.48H5.546a1.91,1.91,0,0,0-1.82-1.1,2.262,2.262,0,0,0-2.27,2.5,2.262,2.262,0,0,0,2.27,2.5,1.9,1.9,0,0,0,1.82-1.1H7.3a3.565,3.565,0,0,1-3.56,2.455A3.875,3.875,0,0,1,3.736,0Z" transform="translate(133.899 20.615)" fill="#f8f7ff"/><path d="M4.395,1.235H1.5v1.9H4.05V4.34H1.5v2H4.38V7.58H0V0H4.4Z" transform="translate(142.5 20.73)" fill="#f8f7ff"/><path d="M0,0s-.75,18.3,23.5,21.75,30.75,3.46,30.75,3.46H0Z" transform="translate(86.187 20.305)" fill="#22af79" opacity="0.32"/></g></svg>