<svg xmlns="http://www.w3.org/2000/svg" width="101.736" height="101.736" viewBox="0 0 101.736 101.736"><g transform="translate(-0.132 -0.372)"><circle cx="50.868" cy="50.868" r="50.868" transform="translate(0.132 0.372)" fill="#3de4e8"/><path d="M39.743,23.349l-.948-8.67a10.584,10.584,0,0,0-3.762-6.972L30.317,3.753a16.29,16.29,0,0,0-20.8,0L4.739,7.707A10.584,10.584,0,0,0,.977,14.7l-.948,8.67a5.13,5.13,0,0,0,5.088,5.67H34.643a5.124,5.124,0,0,0,5.1-5.688Z" transform="translate(31.483 45.693)" fill="#12a9cc"/><circle cx="13.002" cy="13.002" r="13.002" transform="translate(38.37 24.03)" fill="#fff"/><circle cx="11.514" cy="11.514" r="11.514" transform="translate(40.224 62.082)" fill="#179aaf"/><path d="M0,3.2,2.76,7.722,8.6,0" transform="translate(47.436 70.866)" fill="none" stroke="#fff" stroke-linecap="round" stroke-linejoin="round" stroke-miterlimit="10" stroke-width="3"/></g></svg>