<svg xmlns="http://www.w3.org/2000/svg" width="101.736" height="101.736" viewBox="0 0 101.736 101.736"><g transform="translate(-0.366 -0.372)"><circle cx="50.868" cy="50.868" r="50.868" transform="translate(0.366 0.372)" fill="#3de4e8"/><path d="M.912,16.729l30.7,20.124a5.562,5.562,0,0,0,7.326-1.1l25.05-30.1A3.45,3.45,0,0,0,60.6.079L1.6,13a2.07,2.07,0,0,0-.69,3.732Z" transform="translate(18.846 35.003)" fill="#fff"/><path d="M0,18.063l1.8,13.47a1.536,1.536,0,0,0,2.958.33l3.228-8.718L45.318,2.079a1.116,1.116,0,0,0-.966-2Z" transform="translate(28.854 39.357)" fill="#12a9cc"/><path d="M0,9.576,10.866,4.938,4,0,0,9.576Z" transform="translate(32.862 62.502)" fill="#179aaf"/></g></svg>