<svg xmlns="http://www.w3.org/2000/svg" width="101.736" height="101.736" viewBox="0 0 101.736 101.736"><g transform="translate(-0.132 -0.45)"><circle cx="50.868" cy="50.868" r="50.868" transform="translate(0.132 0.45)" fill="#3de4e8"/><rect width="48.432" height="42.996" rx="2.172" transform="translate(28.374 36.312)" fill="#179aaf"/><rect width="48.432" height="42.996" rx="2.172" transform="translate(22.098 28.836)" fill="#fff"/><path d="M8.358,16.716h0A8.358,8.358,0,0,1,8.357,0c.087,0,.176,0,.263,0a8.173,8.173,0,0,1,3,.6l.156.06a13.444,13.444,0,0,1,4.968,3.9c.3.355.608.736.918,1.134L17.9,5.41c3.559-4.4,5.59-4.79,5.611-4.793a8.279,8.279,0,0,1,2.849-.6H26.7a8.271,8.271,0,0,1,2.821.522L29.392.46A3.4,3.4,0,0,1,29.722.6c.159.059.314.124.474.2a8.1,8.1,0,0,1,.9.492c.049.031.1.061.15.09.083.049.168.1.246.155a8.3,8.3,0,0,1,1.032.852l.1.084A8.78,8.78,0,0,1,33.55,3.6c.069.1.129.205.192.313l.042.071a8.342,8.342,0,0,1,.491.912c.066.143.131.294.2.474a8.116,8.116,0,0,1,.306,1c.013.047.028.093.043.139a1.049,1.049,0,0,1,.071.323,8.1,8.1,0,0,1,.156,1.536v.006A8.352,8.352,0,0,1,26.7,16.66h-.089a8.283,8.283,0,0,1-3.1-.6h-.149l-.24-.1-.114-.054a4.729,4.729,0,0,1-.491-.246,16.57,16.57,0,0,1-4.063-3.271c-.34-.366-.65-.716-.948-1.067l-.078-.1c-3.564,4.508-5.667,4.881-5.688,4.884a8.158,8.158,0,0,1-2.844.6h-.36ZM26.734,3.25a6.019,6.019,0,0,0-4.266,2.166c-.949,1-2.79,3.082-2.808,3.1l.139.156.108.12.126.139.174.192.144.15.276.293c.739.765,1.432,1.436,2.118,2.052a6.084,6.084,0,0,0,3.99,1.878,5.124,5.124,0,1,0,0-10.248Zm-18.228,0a5.124,5.124,0,1,0,0,10.248,6.091,6.091,0,0,0,4.272-2.172c.95-1,2.8-3.07,2.82-3.091,0,0-.092-.11-.252-.282l-.1-.108-.192-.21L14.9,7.462l-.24-.246c-.723-.755-1.45-1.458-2.16-2.088A6.089,6.089,0,0,0,8.506,3.25Z" transform="translate(28.904 41.738)" fill="#12a9cc"/></g></svg>