<svg xmlns="http://www.w3.org/2000/svg" width="101.736" height="101.736" viewBox="0 0 101.736 101.736"><g transform="translate(-0.336 -0.234)"><circle cx="50.868" cy="50.868" r="50.868" transform="translate(0.336 0.234)" fill="#3de4e8"/><path d="M51.5,10.3v28a2.892,2.892,0,0,1-2.892,2.9H2.9A2.9,2.9,0,0,1,0,38.3V2.9A2.9,2.9,0,0,1,2.9,0H40.932" transform="translate(23.688 35.706)" fill="#12a9cc"/><path d="M51.5,10.29v28a2.9,2.9,0,0,1-2.9,2.9H2.892A2.892,2.892,0,0,1,0,38.292V2.892A2.892,2.892,0,0,1,2.892,0H40.938" transform="translate(30.462 29.262)" fill="#fff"/><path d="M0,0V8.046A2.25,2.25,0,0,0,2.256,10.3h8.3Z" transform="translate(71.4 29.256)" fill="#12a9cc"/><rect width="19.242" height="19.242" rx="1.866" transform="translate(36.414 42.924)" fill="#179aaf"/><rect width="5.904" height="2.622" rx="0.45" transform="translate(60.318 46.17)" fill="#12a9cc" opacity="0.28"/><rect width="15.738" height="2.622" rx="0.45" transform="translate(60.318 51.24)" fill="#12a9cc" opacity="0.1"/><rect width="15.738" height="2.622" rx="0.45" transform="translate(60.318 56.304)" fill="#12a9cc" opacity="0.1"/></g></svg>