<svg xmlns="http://www.w3.org/2000/svg" width="101.736" height="101.736" viewBox="0 0 101.736 101.736"><g transform="translate(-0.468 -0.372)"><circle cx="50.868" cy="50.868" r="50.868" transform="translate(0.468 0.372)" fill="#3de4e8"/><path d="M14.082,0,0,26.922l11.934-5.6,8.55-18.516L14.082,0Z" transform="translate(24.324 47.088)" fill="#179aaf"/><path d="M14.466,2.9,3.78,31.344,0,18.714,8.112,0l6.354,2.9Z" transform="translate(36.252 49.644)" fill="#12a9cc"/><path d="M6.4,0,20.478,26.922l-11.934-5.6L0,2.808,6.4,0Z" transform="translate(57.552 47.088)" fill="#179aaf"/><path d="M0,2.9l10.692,28.44,3.78-12.63L6.354,0,0,2.9Z" transform="translate(51.636 49.644)" fill="#12a9cc"/><circle cx="16.476" cy="16.476" r="16.476" transform="translate(34.704 22.698)" fill="#fff"/></g></svg>