<?xml version="1.0" encoding="UTF-8"?>
<svg width="100px" height="100px" viewBox="0 0 100 100" version="1.1" xmlns="http://www.w3.org/2000/svg" xmlns:xlink="http://www.w3.org/1999/xlink">
    <!-- Generator: Sketch 57.1 (83088) - https://sketch.com -->
    <title>design asset 7</title>
    <desc>Created with Sketch.</desc>
    <g id="Page-1" stroke="none" stroke-width="1" fill="none" fill-rule="evenodd">
        <g id="design-asset-7">
            <circle id="Oval" fill="#D5B8FF" cx="50" cy="50" r="50"></circle>
            <g id="Artboard-6-copy-2" transform="translate(25.000000, 12.000000)" fill-rule="nonzero">
                <path d="M49.11,55.575 L47.94,44.895 C47.5698096,41.5351382 45.9099007,38.4501456 43.31,36.29 L37.47,31.445 C30.0448197,25.2895761 19.2901803,25.2895761 11.865,31.445 L6.025,36.295 C3.42250856,38.45089 1.76184147,41.5354984 1.395,44.895 L0.23,55.575 C0.0322705218,57.3578569 0.603299445,59.1405356 1.80011326,60.4766914 C2.99692708,61.8128472 4.70621222,62.5759736 6.5,62.5750009 L42.84,62.5750009 C44.633264,62.574386 46.3415642,61.8107923 47.5380284,60.4750268 C48.7344926,59.1392614 49.306094,57.3575104 49.11,55.575 Z" id="Path" fill="#7F5BB2"></path>
                <circle id="Oval" fill="#FFFFFF" cx="24.67" cy="16.17" r="16.005"></circle>
                <circle id="Oval" fill="#68359A" cx="25.125" cy="61.175" r="14.17"></circle>
                <path d="M23.225,69.1300523 L23.135,69.1300523 C22.5359613,69.1028032 21.9900681,68.7782687 21.68,68.265 L18.285,62.7 C17.7658523,61.8481008 18.0356008,60.7366477 18.8875,60.2175 C19.7393992,59.6983523 20.8508523,59.9681008 21.37,60.82 L23.37,64.12 L29,56.725 C29.3894195,56.2105375 30.0237204,55.9429074 30.6639677,56.0229234 C31.304215,56.1029393 31.8531399,56.518445 32.1039677,57.1129234 C32.3547955,57.7074018 32.2694195,58.3905376 31.88,58.905 L24.685,68.405 C24.3413858,68.8651738 23.7992922,69.1343641 23.225,69.1300523 L23.225,69.1300523 Z" id="Path" fill="#FFFFFF"></path>
            </g>
        </g>
    </g>
</svg>