<?xml version="1.0" encoding="UTF-8"?>
<svg width="377px" height="348px" viewBox="0 0 377 348" version="1.1" xmlns="http://www.w3.org/2000/svg" xmlns:xlink="http://www.w3.org/1999/xlink">
    <!-- Generator: Sketch 57.1 (83088) - https://sketch.com -->
    <title>design asset 18</title>
    <desc>Created with Sketch.</desc>
    <g id="Page-1" stroke="none" stroke-width="1" fill="none" fill-rule="evenodd">
        <g id="design-asset-18" fill-rule="nonzero">
            <path d="M250.044,256.624 C250.044,256.624 241.036,253.86 243.272,243.692 C245.508,233.524 239.716,233.1 237.032,237.292 C235.492,239.692 234.952,243.184 234.768,245.716 C234.71422,246.490504 234.336264,247.206402 233.727061,247.687672 C233.117858,248.168942 232.333921,248.37094 231.568,248.244 C227.636,247.608 221.504,247.652 222.536,254.412 C224.036,264.252 217.808,272.9 246.5,271.764 L250.044,256.624 Z" id="Path" fill="#F28877"></path>
            <path d="M323.708,269.524 L254.828,257.876 L251.84,275 L340.048,297.264 L338.56,285.144 C337.588223,277.235311 331.557695,270.892943 323.708,269.524 L323.708,269.524 Z" id="Path" fill="#5F3E93"></path>
            <path d="M72.556,259.2 C72.556,259.2 82.748,299.324 98.928,291.78 C115.108,284.236 105.612,250.98 105.612,250.98 L72.556,259.2 Z" id="Path" fill="#F28877"></path>
            <path d="M102.668,268.912 L171.7,262.848 L173.868,276.34 C173.868,276.34 114.268,296.856 92.524,291.744 L102.668,268.912 Z" id="Path" fill="#F28877"></path>
            <path d="M171.108,262.9 C171.108,262.9 179.852,259.552 178.224,249.728 C176.596,239.904 182.148,239.784 184.504,243.932 C185.856,246.312 186.2,249.664 186.248,252.092 C186.261546,252.833869 186.586662,253.535791 187.143747,254.025903 C187.700831,254.516015 188.438449,254.749068 189.176,254.668 C192.964,254.268 198.824,254.604 197.5,261.012 C195.572,270.336 201.1,278.912 173.736,276.4 L171.108,262.9 Z" id="Path" fill="#F28877"></path>
            <polygon id="Path" fill="#FCFAFE" points="252.04 273.844 245.652 272.42 248.848 259.096 254.136 261.828"></polygon>
            <path d="M79.032,193.864 C79.032,193.864 109.832,206.084 112.692,250.816 L81.308,255.6 L79.032,193.864 Z" id="Path" fill="#D2B0F7"></path>
            <polygon id="Path" fill="#F28877" points="33.12 151.368 33.12 186.504 57.452 186.504 53.368 151.368"></polygon>
            <path d="M57.452,133.6 C57.452,133.6 59.384,120.952 67.5,120.983939 C75.616,121.016 75.9,137.688 57.452,138.284 L57.452,133.6 Z" id="Path" fill="#FF9680"></path>
            <circle id="Oval" fill="#6E44A5" cx="247.88" cy="34.628" r="34.592"></circle>
            <path d="M272.668,58.74 L279.344,70.88 C279.715705,71.4958789 279.630696,72.2841047 279.136222,72.8065673 C278.641749,73.32903 277.859392,73.4572662 277.224,73.12 L262.4,66.028 L272.668,58.74 Z" id="Path" fill="#6E44A5"></path>
            <circle id="Oval" fill="#6E44A5" cx="107.148" cy="36.144" r="34.592"></circle>
            <path d="M82.356,60.256 L75.68,72.4 C75.3446845,73.0171802 75.4441414,73.7799809 75.9264972,74.2905499 C76.408853,74.8011189 77.1647755,74.9437293 77.8,74.644 L92.64,67.548 L82.356,60.256 Z" id="Path" fill="#6E44A5"></path>
            <circle id="Oval" fill="#DFBDFF" opacity="0.4" cx="182.276" cy="142.424" r="60.788"></circle>
            <path d="M161.628,121.6 C157.456,128.288 150.172,142.964 158.612,153.392 L204.268,157.832 C204.268,157.832 216.668,139.98 205.468,119.164 C194.924,99.516 175.648,96.272 165.716,114.536 C164.428,116.928 163.065333,119.282667 161.628,121.6 Z" id="Path" fill="#404047"></path>
            <polygon id="Path" fill="#EA8373" points="177.308 144.276 173.692 167.864 189.244 167.864 189.244 145.644"></polygon>
            <path d="M170.208,125.396 C170.208,125.396 166.064,149.316 177.316,151.864 C188.568,154.412 195.964,148.488 195.372,127.176 C194.78,105.864 170.952,115.928 170.208,125.396 Z" id="Path" fill="#FF9680"></path>
            <path d="M194.444,129.652 C194.444,129.652 197.032,125.124 200.356,129.232 C203.68,133.34 193.884,138.432 193.884,138.432 L194.444,129.652 Z" id="Path" fill="#FF9680"></path>
            <path d="M182.276,204.608 C147.988,204.608 120.092,176.712 120.092,142.424 C120.092,108.136 148,80.24 182.276,80.24 C216.552,80.24 244.456,108.136 244.456,142.424 C244.456,176.712 216.564,204.608 182.276,204.608 Z M182.276,83.032 C149.528,83.032 122.884,109.676 122.884,142.424 C122.884,175.172 149.528,201.816 182.276,201.816 C215.024,201.816 241.664,175.172 241.664,142.424 C241.664,109.676 215.024,83.032 182.276,83.032 Z" id="Shape" fill="#A161E5"></path>
            <path d="M156.464,195.908 C156.464,195.908 142.908,160.072 174.544,162.308 L189.12,162.208 C189.12,162.208 223.12,154.012 205.92,196.916 C205.904,196.912 182.172,208.556 156.464,195.908 Z" id="Path" fill="#BD78FD"></path>
            <path d="M180.02,163.528 C180.02,163.528 184.78,185.572 210.36,181.688 C210.36,181.688 212.876,169.288 205.064,164.116 C205.064,164.116 199.864,160.812 191.8,161.808 L180.02,163.528 Z" id="Path" fill="#323144" opacity="0.07"></path>
            <path d="M169.16,134.568 C169.16,134.568 179.836,131.008 185.008,122.568 C185.008,122.568 187.408,141.068 196.724,140.54 C196.724,140.54 203.4,134.012 200.324,126.268 C197.248,118.524 190.804,107.32 178.052,109.848 C165.3,112.376 169.16,134.568 169.16,134.568 Z" id="Path" fill="#404047"></path>
            <path d="M170.471935,162.232 C170.471935,162.232 170.372,157.2 178,157.496 C179.917676,157.570737 181.838224,157.513268 183.748,157.324 C186.668,157.024 190.984,157.372 191.792005,161.808 C191.8,161.808 182.372,165.38 170.471935,162.232 Z" id="Path" fill="#F4F5F7"></path>
            <path d="M16.596,111.768 C16.596,111.768 18.828,165.368 37.588,166.256 C56.348,167.144 67.512,149.732 61.26,110.428 C61.26,110.428 30,84.076 16.596,111.768 Z" id="Path" fill="#FF9680"></path>
            <path d="M19.624,136.56 C19.624,136.56 23.02,129.852 23.956,119.692 C24.1814117,116.990428 26.5309989,114.968359 29.236,115.148 C36.28,115.66 49.52,115.68 61.26,110.428 L62.976,132.696 L65.724,108.192 C65.724,108.192 74.124,96.592 63.004,79.608 C51.884,62.624 27.76,71.568 16.604,84.968 C16.596,84.968 -9.456,93.9 19.624,136.56 Z" id="Path" fill="#404047"></path>
            <path d="M22.104,136.56 C22.104,136.56 20.172,123.912 12.056,123.943939 C3.94,123.976 3.656,140.648 22.104,141.244 L22.104,136.56 Z" id="Path" fill="#FF9680"></path>
            <path d="M33.12,186.504 L57.452,186.504 C57.452,186.504 95.56,188.448 95.56,227.244 C95.56,266.04 85.268,315.132 85.268,315.132 L14.436,315.132 C14.436,315.132 -27.732,198.8 33.12,186.504 Z" id="Path" fill="#BD78FD"></path>
            <path d="M4.088,209.844 C-0.044,222.704 -0.612,243.576 15.9,274.004 L53.52,257.576 C53.52,257.576 46.176,226.464 27.012,204.916 C20.076,197.112 7.28,199.908 4.088,209.844 Z" id="Path" fill="#D2B0F7"></path>
            <path d="M19.6,272.4 C19.6,272.4 36,310.4 50.776,300.4 C65.552,290.4 50.964,259.052 50.964,259.052 L19.6,272.4 Z" id="Path" fill="#FF9680"></path>
            <path d="M50.872,277.232 L118.092,260.4 L122.356,273.388 C122.356,273.388 66.728,303.016 44.444,301.388 L50.872,277.232 Z" id="Path" fill="#FF9680"></path>
            <rect id="Rectangle" fill="#6E44A5" transform="translate(119.089391, 266.628597) rotate(-19.210000) translate(-119.089391, -266.628597) " x="115.427391" y="257.540597" width="7.324" height="18.176" rx="0.908"></rect>
            <path d="M120.284,258.928 C120.284,258.928 128.572,255.384 125.42,245.94 C122.268,236.496 127.732,235.504 130.712,239.228 C132.416,241.364 133.284,244.62 133.716,247.012 C133.845943,247.742449 134.277247,248.384508 134.904331,248.781001 C135.531414,249.177494 136.296393,249.291823 137.012,249.096 C140.688,248.092 146.528,247.496 146.212,254.052 C145.78,263.564 152.58,271.164 125.164,272.984 L120.284,258.928 Z" id="Path" fill="#FF9680"></path>
            <polygon id="Path" fill="#6E44A5" points="14.436 315.132 9.164 346.58 92.552 347.608 85.268 315.132"></polygon>
            <polygon id="Path" fill="#F28877" points="336.236 141.312 336.236 176.448 311.904 176.448 315.988 141.312"></polygon>
            <path d="M304.444,101.932 C304.444,101.932 301.38,155.484 319.956,158.224 C338.532,160.964 351.368,144.732 349.024,105.024 C349.024,105.004 320.512,75.696 304.444,101.932 Z" id="Path" fill="#FF9680"></path>
            <path d="M307.48,127.148 C307.48,127.148 306.8,114.372 298.728,113.6 C290.656,112.828 288.704,129.392 307.016,131.808 L307.48,127.148 Z" id="Path" fill="#FF9680"></path>
            <path d="M336.236,176.448 L316.972,176.448 C316.972,176.448 285.496,178.748 282.472,218.952 C279.56,257.64 284.072,305.076 284.072,305.076 L354.92,305.076 C354.92,305.076 403.452,178.748 336.236,176.448 Z" id="Path" fill="#FEFEFF"></path>
            <polygon id="Path" fill="#BD78FD" points="315 181.564 305.696 221.788 307.244 256.128 319.588 257.876 321.276 236.732 324.02 181.564"></polygon>
            <path d="M265.708,246.228 C265.708,246.228 256.604,243.796 258.464,233.556 C260.324,223.316 254.52,223.104 252,227.4 C250.552,229.864 250.14,233.36 250.048,235.9 C250.02249,236.67421 249.672337,237.40194 249.083282,237.904996 C248.494227,238.408052 247.72066,238.639984 246.952,238.544 C242.996,238.056 236.868,238.324 238.152,245.044 C240.016,254.816 234.108,263.692 262.74,261.496 L265.708,246.228 Z" id="Path" fill="#FF9680"></path>
            <polygon id="Path" fill="#6E44A5" points="354.92 298.412 361.88 346.58 274.78 346.58 284.088 298.412"></polygon>
            <path d="M303.088,115.62 L297.952,104.56 C296.306029,101.064147 294.105634,97.8574321 291.436,95.064 L291.268,94.88 C284.044,87.06 289.696,74.48 300.344,74.344 C303.255355,74.332337 306.142456,73.8139311 308.876,72.812 C320.032,68.648 361.364,69.612 359.98,94.708 L354.192,116.108 L346.992,135.772 L345.48,115.244 L345.22,104.748 C345.22,104.748 326.152,107.548 313.436,105.24 C311.583455,104.885866 309.666565,105.300984 308.126507,106.389816 C306.586448,107.478647 305.555884,109.147397 305.272,111.012 L304.4,117.148 L303.088,115.62 Z" id="Path" fill="#404047"></path>
            <path d="M344.8,130.948 C344.8,130.948 347.968,118.548 356.04,119.384 C364.112,120.22 362.764,136.836 344.336,135.608 L344.8,130.948 Z" id="Path" fill="#FF9680"></path>
            <path d="M306.312,179.548 C306.312,179.548 307.48,166.784 312.9,167.884 C323.816,170.096 337.08,162.572 340.656,167.776 C344.232,172.98 343.788,176.448 343.788,176.448 L306.312,179.548 Z" id="Path" fill="#FEFEFF"></path>
            <g id="Group" opacity="0.36" transform="translate(233.600000, 20.000000)" fill="#49326D">
                <path d="M14.4,0.096 C15.568,0.096 16,0.472 16,1.696 L16,3.116 C19.376,3.7 21.796,5.412 23.172,8.204 C23.716,9.372 23.508,9.956 22.212,10.5 L18.168,12.292 C17.044,12.792 16.568,12.628 15.956,11.416 C15.156,9.956 14.248,9.372 12.204,9.372 C9.744,9.372 8.74,9.916 8.74,11.248 C8.74,12.58 10.16,13 13.036,13.376 C14.1108611,13.4851625 15.1790713,13.6520703 16.236,13.876 C16.8144604,13.9627586 17.3864212,14.0883761 17.948,14.252 C18.7,14.504 20.284,15.052 20.992,15.628 C21.7,16.204 22.744,17.172 23.204,18.216 C23.7620081,19.5402824 24.048991,20.9629558 24.0480026,22.4 C24.0480026,26.948 21.212,29.868 16,30.828 L16,32.288 C16,33.488 15.6,33.912 14.4,33.912 L10.076,33.912 C8.876,33.912 8.476,33.512 8.476,32.288 L8.476,30.912 C4.30266667,30.2853333 1.636,28.3653333 0.476,25.152 C0.104,24.068 0.436,23.32 1.564,22.944 L5.44,21.568 C6.64,21.064 7.276,21.276 7.82,22.444 C8.444,23.82 9.82,24.484 11.948,24.484 C14.576,24.484 15.912,23.82 15.912,22.484 C15.912,21.148 14.576,20.732 11.864,20.4 C8.664,19.9413333 6.412,19.3986667 5.108,18.772 C2.064,17.396 0.56,14.892 0.56,11.304 C0.56,6.84 3.316,3.964 8.488,3.088 L8.488,1.68 C8.488,0.48 8.86,0.08 10.088,0.08 L14.4,0.096 Z" id="Path"></path>
            </g>
            <path d="M252.188,15.328 C253.356,15.328 253.788,15.704 253.788,16.928 L253.788,18.348 C257.168,18.932 259.588,20.64 260.964,23.436 C261.504,24.604 261.296,25.188 260.004,25.728 L255.956,27.524 C254.832,28.024 254.356,27.856 253.748,26.648 C252.948,25.188 252.036,24.604 249.992,24.604 C247.532,24.604 246.528,25.144 246.528,26.48 C246.528,27.816 247.948,28.232 250.828,28.608 C251.902783,28.717769 252.970961,28.8846718 254.028,29.108 C254.605078,29.1951235 255.175684,29.320737 255.736,29.484 C256.488,29.736 258.072,30.284 258.78,30.86 C259.488,31.436 260.532,32.404 260.992,33.448 C261.551473,34.7813747 261.835827,36.2140275 261.828157,37.66 C261.828157,42.208 258.992,45.124 253.776,46.084 L253.776,47.544 C253.776,48.744 253.376,49.172 252.176,49.172 L247.848,49.172 C246.648,49.172 246.248,48.772 246.248,47.544 L246.248,46.168 C242.082667,45.5226667 239.418667,43.6 238.256,40.4 C237.88,39.316 238.212,38.564 239.34,38.192 L243.22,36.812 C244.42,36.312 245.056,36.52 245.596,37.688 C246.224,39.064 247.596,39.732 249.724,39.732 C252.352,39.732 253.688,39.064 253.688,37.732 C253.688,36.4 252.352,35.98 249.644,35.644 C246.444,35.188 244.190667,34.6466667 242.884,34.02 C239.84,32.644 238.34,30.14 238.34,26.552 C238.34,22.088 241.092,19.212 246.264,18.336 L246.264,16.916 C246.264,15.716 246.64,15.316 247.864,15.316 L252.188,15.328 Z" id="Path" fill="#FFFFFF"></path>
            <circle id="Oval" fill="#49326D" opacity="0.36" cx="104.5" cy="39.332" r="16.284"></circle>
            <circle id="Oval" fill="#FCFCFF" cx="109.796" cy="34.628" r="16.284"></circle>
            <ellipse id="Oval" fill="#49326D" cx="115.68" cy="31.288" rx="1.864" ry="3.336"></ellipse>
            <ellipse id="Oval" fill="#49326D" cx="104.988" cy="31.288" rx="1.864" ry="3.336"></ellipse>
            <path d="M119.504,26.308 C119.218938,26.308 118.948858,26.1803415 118.768,25.96 C116.14424,23.10505 112.290583,21.7129536 108.448,22.232 C108.098671,22.3004594 107.740234,22.1691569 107.517788,21.8912443 C107.295342,21.6133317 107.24573,21.2348407 107.389035,20.908986 C107.532341,20.5831313 107.844828,20.3638855 108.2,20.34 C112.693134,19.7335255 117.196653,21.3793299 120.24,24.74 C120.575021,25.1467171 120.517771,25.7478345 120.112,26.084 C119.940755,26.2257245 119.726262,26.3047483 119.504,26.308 Z" id="Path" fill="#49326D" opacity="0.08"></path>
            <path d="M106.292,38.564 L115.524,38.164 C115.524,38.164 116.62,45.28 111.208,45.508 C111.2,45.52 105.328,46 106.292,38.564 Z" id="Path" fill="#49326D"></path>
            <circle id="Oval" fill="#6E44A5" cx="182.172" cy="198.848" r="20.104"></circle>
            <path d="M180.8,208.104 L180.8,208.104 C180.152003,208.100751 179.549752,207.769513 179.2,207.224 L174.64,200.116 C174.204138,199.544817 174.126102,198.777208 174.438103,198.129997 C174.750103,197.482785 175.399232,197.06572 176.117569,197.05094 C176.835906,197.036159 177.501641,197.42617 177.84,198.06 L180.8,202.676 L187.64,192.148 C188.226574,191.298473 189.382453,191.069576 190.248522,191.631439 C191.114591,192.193301 191.376684,193.342108 190.84,194.224 L182.4,207.236 C182.047954,207.777489 181.445869,208.104 180.8,208.104 Z" id="Path" fill="#FFFFFF"></path>
            <path d="M340.748,172.06 C342.299961,170.587113 344.650406,170.347137 346.468,171.476 C351.268,174.408 361.556,181.608 368.648,193.188 C377.764,208.064 377.648,252.064 366.044,310.052 C365.103719,314.786835 360.951294,318.199191 356.124,318.204 L306.76,316.704 C303.513665,316.607378 300.506687,314.972927 298.660034,312.301242 C296.813382,309.629557 296.3471,306.238992 297.404,303.168 C305.996,278.212 323.928,224.368 326.776,201.8 C329.36,181.332 337.224,175.46 340.748,172.06 Z" id="Path" fill="#6E44A5"></path>
            <rect id="Rectangle" fill="#A96DE8" x="313.34" y="170.2" width="12.496" height="12.496" rx="1.976"></rect>
            <path d="M307.48,174.252 C307.48,174.252 286.428,184.652 282.472,198.848 C278.824,211.932 278.4,275.508 275.556,304.4 C275.206129,308.056457 277.860362,311.314978 281.512,311.712 L301.6,314.4 C304.890779,314.83955 308.194588,313.688928 310.500377,311.300254 C312.806167,308.911579 313.839444,305.569212 313.284,302.296 C308.944,276.776 301.284,221.06 307.48,174.252 Z" id="Path" fill="#6E44A5"></path>
            <path d="M308.864,172.724 C308.864,172.724 299.44,181.392 294.916,188.748 C293.444469,191.157845 293.181179,194.116158 294.204,196.748 L300.872,214 L296.6,220.308 C295.127798,222.474816 294.82801,225.231367 295.8,227.664 L307.232,256.128 C307.232,256.128 307.312,190.212 308.864,172.724 Z" id="Path" fill="#5F3E93"></path>
            <path d="M372.612,205.14 C376.816,217.428 379.348,237.52 371.776,267.992 C371.776,267.992 362.372,297.56 347.336,280.744 C335.636,267.656 337.76,226.344 350.236,203.244 C355.348,193.784 369.132,194.964 372.612,205.14 Z" id="Path" fill="#704BAA"></path>
            <path d="M338.124,257.948 L267.6,240.764 L262.592,263.224 L354.472,285.688 L352.984,273.568 C352.011286,265.65687 345.976821,259.313778 338.124,257.948 L338.124,257.948 Z" id="Path" fill="#704BAA"></path>
            <path d="M313.896,252.044 C313.896,252.044 323.496,178.804 342.504,171.004 L343.632,200.18 C343.739589,202.954669 342.485124,205.606965 340.272,207.284 L328.572,216.144 L332.772,228.34 C333.535006,230.560085 333.167779,233.012746 331.788,234.912 L317.428,252.868 L313.896,252.044 Z" id="Path" fill="#5F3E93"></path>
            <polygon id="Path" fill="#FCFAFE" points="262.584 263.224 257.012 262.672 261.788 240.764 267.264 242.224"></polygon>
        </g>
    </g>
</svg>