<svg xmlns="http://www.w3.org/2000/svg" width="409.448" height="344.679" viewBox="0 0 409.448 344.679"><g transform="translate(-0.05 -0.248)"><path d="M0,2.358,11.228,15.246,13.1,6.386,5.879,0,0,2.358Z" transform="translate(31.021 253.991)" fill="#f28877"/><path d="M0,2.358,11.228,15.246,13.1,6.386,5.879,0,0,2.358Z" transform="translate(31.021 253.991)" fill="#212123" opacity="0.08"/><path d="M0,2.718,2.9,30.9l15.088-5.389L13.644,0,0,2.718Z" transform="translate(11.624 192.704)" fill="#f28877"/><path d="M0,2.718,2.9,30.9l15.088-5.389L13.644,0,0,2.718Z" transform="translate(11.624 192.704)" fill="#212123" opacity="0.08"/><path d="M19.811,0S-5.094,9.529.944,47.128L19.811,44.91Z" transform="translate(8.629 150.512)" fill="#83ddba"/><path d="M19.811,0S-5.094,9.529.944,47.128L19.811,44.91Z" transform="translate(8.629 150.512)" fill="#212123" opacity="0.08"/><rect width="54.868" height="36.302" transform="matrix(0.939, -0.344, 0.344, 0.939, 0.05, 229.036)" fill="#fbfbff"/><rect width="54.868" height="36.302" transform="matrix(0.939, -0.344, 0.344, 0.939, 0.05, 229.036)" fill="#212123" opacity="0.08"/><rect width="54.868" height="36.302" transform="matrix(0.939, -0.344, 0.344, 0.939, 3.546, 227.757)" fill="#83ddba"/><rect width="54.868" height="36.302" transform="matrix(0.939, -0.344, 0.344, 0.939, 3.546, 227.757)" fill="#212123" opacity="0.08"/><path d="M0,0A27.511,27.511,0,0,1,3.3,4.18a6.044,6.044,0,0,1-1.206,7.7h0Z" transform="translate(50.342 109.368)" fill="#f28877"/><path d="M24.192,0h247.68a24.8,24.8,0,0,1,24.8,24.8V218.142A24.376,24.376,0,0,1,272.3,242.518H24.361A24.376,24.376,0,0,1,0,218.142V24.2A24.2,24.2,0,0,1,24.192,0Z" transform="translate(95.4 0.248)" fill="#c5c5ff" opacity="0.4"/><path d="M18.85,0H277.286a19.44,19.44,0,0,1,19.44,19.44V223.524a19,19,0,0,1-19,19H19.019A19,19,0,0,1,0,223.513V18.832A18.832,18.832,0,0,1,18.832,0Z" transform="translate(73.44 17.863)" fill="#c5c5ff"/><path d="M18.36,0h260a18.36,18.36,0,0,1,18.36,18.36V43.128H0V18.36A18.36,18.36,0,0,1,18.36,0Z" transform="translate(73.44 17.863)" fill="#8180ff"/><path d="M29.635,7.5s12.643,15.9-6.8,19.321l2.448,20.9,1.13,28.2s-7.848.526-12.542-2.38-13-22.64-13-22.64L0,0Z" transform="translate(67.565 184.464)" fill="#6d6dbc" opacity="0.15"/><circle cx="6.289" cy="6.289" r="6.289" transform="translate(90.41 34.56)" fill="#fff"/><circle cx="6.289" cy="6.289" r="6.289" transform="translate(113.108 34.56)" fill="#fff" opacity="0.67"/><circle cx="6.289" cy="6.289" r="6.289" transform="translate(136.08 34.56)" fill="#fff" opacity="0.27"/><rect width="90.061" height="23.429" rx="1.602" transform="translate(106.07 204.372)" fill="#8180ff" opacity="0.28"/><rect width="39.391" height="23.429" rx="7.322" transform="translate(182.419 204.372)" fill="#8180ff"/><path d="M38.869,52.283,19.94,7.643A11.725,11.725,0,0,0,12.225.929C7.8-.284,2.17-.918.615,2.988c-2.38,5.972,2.441,10.181,9.4,10.188a3.575,3.575,0,0,1,3.413,2.678L22.856,51.34S33.566,65.624,38.869,52.283Z" transform="translate(57.273 133.985)" fill="#f28877"/><path d="M13.4.284A22.069,22.069,0,0,1,30.538,16.023c2.65,9.1,4.68,21.65-2.056,26.665-11.12,8.28-20.369-5.818-24.894-13.558C-.206,22.636-5.185-2.967,13.4.284Z" transform="translate(19.441 92.049)" fill="#ff9680"/><path d="M2.421,28.238c1.307,2.678,2.52,5.4,3.564,8.2,2.545,6.779,8.057,18.526,15.48,17.716,10.379-1.138,12.647-5.638,11.246-20.21-1.2-12.463,10.67-14.04,6.923-23.512S27.873-1.451,19.651.767C11.9,2.855-6.593,9.745,2.421,28.238Z" transform="translate(9.57 80.712)" fill="#404047"/><circle cx="49.964" cy="49.964" r="49.964" transform="translate(112.054 84.535)" fill="#6d6dbc"/><path d="M39.809,25.514l11.232-1.645S35.024-5.133,0,.8Z" transform="translate(153.547 84.462)" fill="#ededf2"/><circle cx="49.964" cy="49.964" r="49.964" transform="translate(100.364 85.41)" fill="#8180ff"/><path d="M0,49.159V.069A48.173,48.173,0,0,1,43.92,24.635Z" transform="translate(149.454 85.341)" fill="#fbfbff"/><path d="M0,4.608v18.7H19.321L13.1,0,0,4.608Z" transform="translate(31.021 130.655)" fill="#ff9680"/><path d="M31.139,0H13.405S-1.463,12.859.118,29.189,18.341,89.406,18.341,89.406L63.164,84.2,58.2,31.925S56.116,2.513,31.139,0Z" transform="translate(17.616 148)" fill="#29dd9c"/><path d="M17.3,2.573,38.447,20.865,23.536,44.909S1.317,31.017.024,10.968C-.584,1.8,10.367-3.443,17.3,2.573Z" transform="translate(45.073 150.513)" fill="#83ddba"/><path d="M12.226,0,23.591,7.92c7.664,5.332,3.96,17.525-5.4,17.435C13.813,25.312,7.924,23.771,0,19.71Z" transform="translate(69.833 173.711)" fill="#ff9680"/><path d="M.381,5.535,8.575.135A.846.846,0,0,1,9.8.495l1.346,2.851a.85.85,0,0,1-.36,1.105L2.1,9.131A.846.846,0,0,1,.914,8.7L.057,6.543A.839.839,0,0,1,.381,5.535Z" transform="translate(68.713 142.307)" fill="#31ba85"/><path d="M0,5.224,2.282,39.46l2.444,73.285H25.819L28.325,40l16.5-40L0,5.224Z" transform="translate(35.957 232.182)" fill="#8180ff"/><path d="M44.824,0,47.74,112.745H25.819l-9.346-81.31L0,5.224,44.824,0Z" transform="translate(35.957 232.182)" fill="#8180ff"/><path d="M43.971,148.59c1.411-15.008-6.764-46.508-15.84-56.009s0-33.25,0-33.25V44.755C24.387,39.316,29.737,19.7,15.294,9.72,10.614,6.48,8.094,3.1,6.783,0,1.106,4.262-2.731,11.038,2.42,21.6c1.307,2.678,2.52,5.4,3.56,8.2,2.545,6.779,8.06,18.526,15.48,17.716a19.033,19.033,0,0,0,2.16-.36l-2.178.767v12.73S6.575,73.508,8.155,89.838s18.223,60.221,18.223,60.221l2.279,34.236,2.434,73.274H48.435S42.557,163.609,43.971,148.59Z" transform="translate(9.589 87.311)" fill="#212123" opacity="0.08"/><rect width="51.509" height="14.375" rx="0.752" transform="translate(344.509 292.1)" fill="#6d6dbc"/><rect width="43.056" height="7.859" transform="translate(348.736 306.475)" fill="#fbfbff"/><path d="M2.758,0,0,30.6H8.3L13.925,0Z" transform="translate(351.605 314.33)" fill="#5f5f9e"/><path d="M11.167,0l3.96,30.6h-8.3L0,0Z" transform="translate(374.998 314.33)" fill="#5f5f9e"/><path d="M2.758,0,0,30.6H8.3L13.925,0Z" transform="translate(345.978 314.33)" fill="#6d6dbc"/><path d="M11.167,0l3.96,30.6h-8.3L0,0Z" transform="translate(380.736 314.33)" fill="#6d6dbc"/><path d="M20.809,56.624S-4.075,42.61.58,0C.58,0,40.5,5.7,35.86,56.624Z" transform="translate(334.025 195.584)" fill="#83ddba"/><path d="M0,0S14.911,13.2,35.64,10.685V4.82A4.82,4.82,0,0,0,30.82,0Z" transform="translate(360.22 292.1)" fill="#212123" opacity="0.14"/><path d="M4.771,36.176.055,5.476A4.752,4.752,0,0,1,4.735,0H40.451a4.756,4.756,0,0,1,4.7,5.465l-4.637,30.7a4.759,4.759,0,0,1-4.7,4.046H9.441A4.752,4.752,0,0,1,4.771,36.176Z" transform="translate(347.705 251.888)" fill="#8180ff"/><path d="M18.3,67.165S47.823,50.544,42.3,0C42.3,0-5.05,6.757.444,67.165Z" transform="translate(366.512 184.723)" fill="#29dd9c"/><path d="M0,0,28.39,53.5" transform="translate(336.528 198.385)" fill="none" stroke="#fff" stroke-linecap="round" stroke-linejoin="round" stroke-miterlimit="10" stroke-width="0.5"/><path d="M0,64.483,33.494,0" transform="translate(373.921 187.405)" fill="none" stroke="#fff" stroke-linecap="round" stroke-linejoin="round" stroke-miterlimit="10" stroke-width="0.5"/><path d="M46.278,0H3.665a3.683,3.683,0,0,0-3.6,4.37l.968,5.069a3.676,3.676,0,0,0,3.6,2.988h40.68a3.676,3.676,0,0,0,3.6-2.988l.968-5.069A3.683,3.683,0,0,0,46.278,0Z" transform="translate(345.294 251.888)" fill="#6d6dbc"/><path d="M0,0,4.828,9.014" transform="translate(393.656 195.584)" fill="none" stroke="#fff" stroke-linecap="round" stroke-linejoin="round" stroke-miterlimit="10" stroke-width="0.5"/><path d="M0,.576,12.168,0" transform="translate(391.064 218.308)" fill="none" stroke="#fff" stroke-linecap="round" stroke-linejoin="round" stroke-miterlimit="10" stroke-width="0.5"/><path d="M0,0,8.492,14.393" transform="translate(375.793 217.544)" fill="none" stroke="#fff" stroke-linecap="round" stroke-linejoin="round" stroke-miterlimit="10" stroke-width="0.5"/><path d="M0,.382,9.889,0" transform="translate(378.115 243.432)" fill="none" stroke="#fff" stroke-linecap="round" stroke-linejoin="round" stroke-miterlimit="10" stroke-width="0.5"/><path d="M0,8.345,2.311,0" transform="translate(342.968 202.183)" fill="none" stroke="#fff" stroke-linecap="round" stroke-linejoin="round" stroke-miterlimit="10" stroke-width="0.5"/><path d="M0,0,12.139,2.581" transform="translate(337.907 221.281)" fill="none" stroke="#fff" stroke-linecap="round" stroke-linejoin="round" stroke-miterlimit="10" stroke-width="0.5"/><path d="M4.45,0,0,17.8" transform="translate(356.699 218.596)" fill="none" stroke="#fff" stroke-linecap="round" stroke-linejoin="round" stroke-miterlimit="10" stroke-width="0.5"/><path d="M0,0,12.053,1.472" transform="translate(350.046 245.102)" fill="none" stroke="#fff" stroke-linecap="round" stroke-linejoin="round" stroke-miterlimit="10" stroke-width="0.5"/><rect width="13.669" height="13.669" rx="4.198" transform="translate(240.682 204.437)" fill="#8180ff"/><rect width="13.669" height="13.669" rx="4.198" transform="translate(240.682 224.456)" fill="#fbfbff"/><rect width="39.049" height="6.25" rx="0.702" transform="translate(260.503 208.156)" fill="#8180ff" opacity="0.48"/><rect width="39.049" height="6.25" rx="0.702" transform="translate(260.503 228.168)" fill="#8180ff" opacity="0.28"/><rect width="87.613" height="90.734" rx="10.465" transform="translate(243.738 87.293)" fill="#8180ff" opacity="0.12"/><rect width="19.127" height="58.367" transform="translate(268.42 104.602)" fill="#6d6dbc"/><rect width="19.127" height="58.367" transform="translate(263.912 104.602)" fill="#8180ff"/><rect width="19.127" height="29.185" transform="translate(295.618 133.787)" fill="#ededf2"/><rect width="19.127" height="29.185" transform="translate(291.845 133.787)" fill="#fbfbff"/><path d="M7.092,8.385S5.853-.288,1.98.007.317,14.35,5.155,14.152,7.092,8.385,7.092,8.385Z" transform="translate(38.34 109.368)" fill="#f28877"/></g></svg>