<?xml version="1.0" encoding="UTF-8"?>
<svg width="452px" height="349px" viewBox="0 0 452 349" version="1.1" xmlns="http://www.w3.org/2000/svg" xmlns:xlink="http://www.w3.org/1999/xlink">
    <!-- Generator: Sketch 57.1 (83088) - https://sketch.com -->
    <title>design asset 20</title>
    <desc>Created with Sketch.</desc>
    <g id="Page-1" stroke="none" stroke-width="1" fill="none" fill-rule="evenodd">
        <g id="design-asset-20" fill-rule="nonzero">
            <polygon id="Path" fill="#5E3D91" points="391.724 269.848 374.144 219.62 353.848 228.224 369.504 278.888"></polygon>
            <polygon id="Path" fill="#FCFBFF" points="355.424 227.556 353.728 222.736 371.912 216.08 373.104 220.064"></polygon>
            <path d="M356.296,221.792 L371.896,216.08 L370.64,212.636 C367.388,203.696 357.588,198.676 348.596,201.784 C346.164,202.624 344.504,203.864 344.596,205.684 C344.94,212.16 356.296,221.792 356.296,221.792 Z" id="Path" fill="#FF9680"></path>
            <circle id="Oval" fill="#DFBDFF" opacity="0.4" cx="42.688" cy="42.496" r="38.972"></circle>
            <polygon id="Path" fill="#EA8373" points="39.504 43.684 37.188 58.808 47.16 58.808 47.16 44.564"></polygon>
            <path d="M34.956,31.6 C34.956,31.6 32.296,46.932 39.508,48.564 C46.72,50.196 51.468,46.404 51.108,32.736 C50.748,19.068 35.432,25.512 34.956,31.6 Z" id="Path" fill="#FF9680"></path>
            <path d="M50.492,34.312 C50.492,34.312 52.148,31.408 54.28,34.044 C56.412,36.68 50.132,39.928 50.132,39.928 L50.492,34.312 Z" id="Path" fill="#FF9680"></path>
            <path d="M19.412,73.2 C19.412,73.2 20.684,59.488 37.384,57.548 L47.16,57.548 C47.16,57.548 65.068,59.268 67.616,71.82 C67.616,71.82 57.836,81.064 42.172,81.048 C42.172,81.036 29.6,81.752 19.412,73.2 Z" id="Path" fill="#BD78FD"></path>
            <path d="M37.384,57.536 C37.384,57.536 53.436,72.62 65.14,66.1 C65.14,66.1 61.58,58.012 47.14,57.536 L37.384,57.536 Z" id="Path" fill="#323144" opacity="0.07"></path>
            <path d="M32.692,29.772 L34.584,38.8 L35.916,32.16 C35.916,32.16 47.076,33.884 49.6,29.76 C49.6,29.76 48.976,36.756 50.748,39.568 L52.428,32.928 C52.428,32.928 57.172,26.436 53.452,22.716 C53.452,22.716 51.592,12.488 40.964,15.012 C30.336,17.536 31.656,24.844 32.692,29.772 Z" id="Path" fill="#404047"></path>
            <path d="M42.688,82.364 C26.5625352,82.364 12.0249627,72.6500407 5.85438827,57.7518991 C-0.316186195,42.8537574 3.09548386,25.705506 14.4984814,14.3036526 C25.9014789,2.90179917 43.0500725,-0.508150283 57.9475949,5.66391897 C72.8451174,11.8359882 82.5576179,26.3745353 82.556,42.5 C82.5295469,64.5068741 64.6948766,82.3397549 42.688,82.364 L42.688,82.364 Z M42.688,4.424 C21.6592059,4.424 4.612,21.4712059 4.612,42.5 C4.612,63.5287941 21.6592059,80.576 42.688,80.576 C63.7167941,80.576 80.764,63.5287941 80.764,42.5 C80.7419529,21.4803448 63.7076552,4.44604707 42.688,4.424 L42.688,4.424 Z" id="Shape" fill="#A161E5"></path>
            <circle id="Oval" fill="#DFBDFF" opacity="0.4" cx="220.892" cy="83.844" r="38.972"></circle>
            <path d="M207.652,70.492 C204.98,74.78 200.308,84.188 205.72,90.872 L234.992,93.72 C234.992,93.72 242.932,82.276 235.768,68.92 C229.008,56.324 216.652,54.248 210.284,65.956 C209.452,67.496 208.576,69.012 207.652,70.492 Z" id="Path" fill="#404047"></path>
            <polygon id="Path" fill="#EA8373" points="217.704 85.028 215.388 100.152 225.36 100.152 225.36 85.908"></polygon>
            <path d="M213.156,72.928 C213.156,72.928 210.5,88.26 217.708,89.892 C224.916,91.524 229.668,87.732 229.308,74.064 C228.948,60.396 213.632,66.856 213.156,72.928 Z" id="Path" fill="#FF9680"></path>
            <path d="M228.692,75.656 C228.692,75.656 230.352,72.752 232.48,75.388 C234.608,78.024 228.332,81.272 228.332,81.272 L228.692,75.656 Z" id="Path" fill="#FF9680"></path>
            <path d="M220.892,123.708 C204.766171,123.709618 190.227371,113.996684 184.055536,99.0986709 C177.883702,84.2006574 181.294384,67.0517499 192.697067,55.649067 C204.09975,44.2463842 221.248657,40.8357015 236.146671,47.0075364 C251.044684,53.1793712 260.757618,67.7181713 260.756,83.844 C260.729551,105.849315 242.897315,123.681551 220.892,123.708 L220.892,123.708 Z M220.892,45.768 C205.491332,45.7663821 191.606213,55.0422758 185.711511,69.2701738 C179.816809,83.4980717 183.073443,99.8758942 193.962788,110.766383 C204.852133,121.656872 221.229613,124.915227 235.45813,119.02202 C249.686647,113.128813 258.964,99.2446684 258.964,83.844 C258.939758,62.8268169 241.90918,45.7944505 220.892,45.768 L220.892,45.768 Z" id="Shape" fill="#A161E5"></path>
            <path d="M204.344,118.132 C204.344,118.132 195.652,95.156 215.944,96.588 L225.292,96.524 C225.292,96.524 247.08,91.268 236.048,118.772 C236.036,118.772 220.824,126.24 204.344,118.132 Z" id="Path" fill="#BD78FD"></path>
            <path d="M219.444,97.372 C219.444,97.372 222.496,111.504 238.896,109.016 C238.896,109.016 240.496,101.056 235.5,97.748 C235.5,97.748 232.164,95.632 226.996,96.268 L219.444,97.372 Z" id="Path" fill="#323144" opacity="0.07"></path>
            <path d="M212.48,78.8 C212.48,78.8 219.324,76.52 222.644,71.116 C222.644,71.116 224.192,82.976 230.152,82.636 C230.152,82.636 234.432,78.452 232.468,73.484 C230.504,68.516 226.368,61.34 218.192,62.96 C210.016,64.58 212.48,78.8 212.48,78.8 Z" id="Path" fill="#404047"></path>
            <path d="M213.323958,96.54 C213.323958,96.54 213.26,93.316 218.156,93.504 C219.385099,93.5546912 220.61625,93.517262 221.84,93.392 C223.712,93.204 226.48,93.428 226.996,96.268 C222.558553,97.6648722 217.813494,97.7592736 213.323958,96.54 Z" id="Path" fill="#F4F5F7"></path>
            <path d="M55.36,166.4 C57.0203351,168.134664 58.5086269,170.026174 59.804,172.048 C61.8705605,175.447729 61.1826225,179.842419 58.176,182.448 L58.176,182.448 L55.36,166.4 Z" id="Path" fill="#F28877"></path>
            <path d="M117.236,270.284 L91.66,209.972 C89.7600704,205.509705 85.9178311,202.165807 81.236,200.9 C75.256,199.264 67.656,198.404 65.552,203.7 C62.352,211.768 68.852,217.452 78.248,217.464 C80.4196825,217.491149 82.3064193,218.963883 82.86,221.064 L95.6,269.008 C95.6,269.008 110.068,288.312 117.236,270.284 Z" id="Path" fill="#F28877"></path>
            <path d="M31.716,143.376 C42.84,145.324 51.716,153.796 54.868,164.64 C58.448,176.936 61.2,193.892 52.092,200.668 C37.068,211.844 24.572,192.804 18.46,182.352 C13.332,173.576 6.608,138.984 31.716,143.376 Z" id="Path" fill="#FF9680"></path>
            <path d="M3.548,165.828 C5.312,169.448 6.944,173.132 8.348,176.904 C11.788,186.06 19.236,201.928 29.252,200.836 C43.252,199.3 46.34,193.236 44.452,173.532 C42.852,156.692 58.852,154.568 53.804,141.764 C48.756,128.96 37.92,125.716 26.8,128.712 C16.356,131.532 -8.632,140.844 3.548,165.828 Z" id="Path" fill="#404047"></path>
            <polygon id="Path" fill="#FF9680" points="29.256 201.376 29.256 226.64 55.36 226.64 46.96 195.152"></polygon>
            <path d="M53.2,218.584 L29.256,218.584 C29.256,218.584 9.168,235.956 11.304,258.02 C13.44,280.084 35.924,339.376 35.924,339.376 L96.48,332.32 L89.776,261.716 C89.776,261.716 86.96,222 53.2,218.584 Z" id="Path" fill="#BD78FD"></path>
            <path d="M71.6,225.456 L100.148,250.172 L80.004,282.652 C80.004,282.652 50,263.884 48.252,236.8 C47.452,224.4 62.228,217.328 71.6,225.456 Z" id="Path" fill="#D2B0F7"></path>
            <path d="M98.208,253.324 L113.564,264 C123.92,271.2 118.896,287.676 106.28,287.556 C100.368,287.496 92.412,285.416 81.708,279.932 L98.208,253.324 Z" id="Path" fill="#FF9680"></path>
            <path d="M80.692,218.368 L91.764,211.092 C92.0395894,210.910898 92.380099,210.858007 92.6976385,210.94698 C93.0151781,211.035952 93.2786323,211.258069 93.42,211.556 L95.244,215.408 C95.5013944,215.957125 95.2855449,216.611694 94.752,216.9 L83.016,223.236 C82.7294405,223.390183 82.3906504,223.414558 82.0849705,223.302985 C81.7792906,223.191412 81.5358605,222.954526 81.416,222.652 L80.26,219.744 C80.0587053,219.240953 80.2393007,218.665723 80.692,218.368 Z" id="Path" fill="#6E44A5"></path>
            <path d="M48.724,177.72 C48.724,177.72 47.056,166 41.836,166.4 C36.616,166.8 39.592,185.776 46.128,185.508 C52.664,185.24 48.724,177.72 48.724,177.72 Z" id="Path" fill="#F28877"></path>
            <polygon id="Path" fill="#6E44A5" points="32.264 328.116 30.528 347.132 105.672 348.208 96.304 329.472"></polygon>
            <path d="M30.528,347.132 L32.264,328.116 C32.264,328.116 13.436,280 11.304,257.948 C9.172,235.896 29.256,218.512 29.256,218.512 L29.256,201.312 L32.2,200.276 C31.2312941,200.49568 30.2511114,200.661269 29.264,200.772 C19.264,201.864 11.796,185.996 8.36,176.84 C6.944,173.072 5.312,169.384 3.56,165.764 C-3.4,151.488 1.784,142.332 9.452,136.564 C11.216,140.776 14.652,145.364 20.948,149.72 C40.464,163.208 33.236,189.72 38.296,197.052 L38.296,216.744 C38.296,216.744 26.008,248.836 38.296,261.668 C50.584,274.5 61.6,317.064 59.704,337.34 L64.172,347.132 L30.528,347.132 Z" id="Path" fill="#212123" opacity="0.08"></path>
            <path d="M387.4,162.612 C385.892359,164.781215 384.597051,167.090534 383.532,169.508 C381.865745,173.55425 383.36153,178.212311 387.072,180.532 L387.072,180.532 L387.4,162.612 Z" id="Path" fill="#F28877"></path>
            <path d="M409.2,133.568 C397.44,137.568 389.24,148.3 387.656,160.624 C385.86,174.6 385.756,193.496 396.812,199.312 C415.044,208.912 425.384,186.076 430.248,173.672 C434.308,163.26 435.724,124.516 409.2,133.568 Z" id="Path" fill="#FF9680"></path>
            <polygon id="Path" fill="#FF9680" points="421.54 194.96 426.036 223.652 397.66 228.1 401.428 192.444"></polygon>
            <path d="M352.8,347.668 L366.24,272.088 C366.24,272.088 362.532,228.416 398.64,218.98 L424.68,214.896 C424.68,214.896 449.48,230.356 450.912,254.704 C451.568,265.78 442.112,322.372 440.912,345.388 L352.8,347.668 Z" id="Path" fill="#6E44A5"></path>
            <path d="M396.54,173.792 C396.54,173.792 396.36,160.752 402.1,160.32 C407.84,159.888 407.844,181 400.692,181.82 C393.54,182.64 396.54,173.792 396.54,173.792 Z" id="Path" fill="#F28877"></path>
            <path d="M397.24,166.904 C397.24,166.904 379.6,155.356 380.488,134.924 C380.736,129.292 386.548,125.38 391.656,127.76 C395.216,129.416 400.288,129.932 407.344,127.144 C425.304,120.044 448.892,138.156 432.5,176.06 L426.28,190.18 C424.683912,193.801802 421.034719,196.078581 417.08,195.92 L415.204,195.84 C410.173468,195.579184 406.221058,191.437227 406.196,186.4 L406.116,172.32 C406.116,172.32 407.72,158.304 397.24,166.904 Z" id="Path" fill="#404047"></path>
            <path d="M374.748,244.82 L344.4,299.108 C338.4,309.864 348,322.772 359.976,319.908 C368.84,317.8 379.496,311.056 390.808,294.768 C390.808,294.768 408.408,272.932 408.252,253.168 C408.132,234.944 383.652,228.892 374.748,244.82 Z" id="Path" fill="#704BAA"></path>
            <path d="M387.272,223.728 C387.272,223.728 389.62,214.376 399.456,211.116 C406.324,208.844 416.072,207.692 421.328,207.204 C423.539043,207.00001 425.638024,208.213859 426.564,210.232 L430.88,219.6 C430.88,219.6 411.276,218.368 387.272,223.728 Z" id="Path" fill="#5F3E93"></path>
            <circle id="Oval" fill="#DFBDFF" opacity="0.4" cx="391.444" cy="39.928" r="38.972"></circle>
            <polygon id="Path" fill="#EA8373" points="388.256 41.116 385.94 56.24 395.912 56.24 395.912 41.996"></polygon>
            <path d="M383.92,30.96 C383.92,30.96 381.204,46.648 388.58,48.316 C395.956,49.984 400.808,46.104 400.42,32.128 C400.032,18.152 384.4,24.752 383.92,30.96 Z" id="Path" fill="#FF9680"></path>
            <path d="M399.812,33.752 C399.812,33.752 401.508,30.78 403.688,33.476 C405.868,36.172 399.444,39.5 399.444,39.5 L399.812,33.752 Z" id="Path" fill="#FF9680"></path>
            <path d="M368.164,70.616 C368.164,70.616 369.436,56.904 386.136,54.968 L395.912,54.968 C395.912,54.968 411.512,58.064 414.08,70.616 C414.08,70.616 406.592,78.484 390.924,78.468 C390.924,78.468 378.356,79.2 368.164,70.616 Z" id="Path" fill="#FEFEFF"></path>
            <path d="M391.444,79.796 C375.318535,79.7976179 360.779988,70.0851174 354.607919,55.1875949 C348.43585,40.2900725 351.845799,23.1414789 363.247653,11.7384814 C374.649506,0.33548386 391.797757,-3.07618619 406.695899,3.09438827 C421.594041,9.26496273 431.308,23.8025352 431.308,39.928 C431.283755,61.9348766 413.450874,79.7695469 391.444,79.796 L391.444,79.796 Z M391.444,1.852 C376.043332,1.85038211 362.158213,11.1262758 356.263511,25.3541738 C350.368809,39.5820717 353.625443,55.9598942 364.514788,66.8503833 C375.404133,77.7408724 391.781613,80.9992265 406.01013,75.1060196 C420.238647,69.2128127 429.516,55.3286684 429.516,39.928 C429.491758,18.9108169 412.46118,1.87845049 391.444,1.852 L391.444,1.852 Z" id="Shape" fill="#A161E5"></path>
            <path d="M383.512,34.708 C383.512,34.708 378.776,30 378.747974,23.6 C378.743488,22.4671131 379.319725,21.4109073 380.27477,20.8015286 C381.229815,20.19215 382.430482,20.1145789 383.456,20.596 C384.703263,21.1661602 386.136737,21.1661602 387.384,20.596 C389.982349,19.6186978 392.740138,19.1344228 395.516,19.168 C400.792,19.272 404.368,24.616 402.716,29.62 L401.804,32.356 C401.804,32.356 399.668,36.316 399.46,39.508 C397.641444,37.9431764 396.64418,35.6285216 396.756,33.232 C396.785975,32.8153553 396.587271,32.4153109 396.237168,32.1874529 C395.887065,31.959595 395.440825,31.9398893 395.072,32.136 C391.524977,34.0305667 387.5277,34.9199263 383.512,34.708 L383.512,34.708 Z" id="Path" fill="#404047"></path>
            <path d="M386.332,53.672 C386.332,53.672 384.88,68.644 386.136,77.632 C386.136,77.632 376.452,76.988 368.164,70.616 C368.164,70.616 369.744,56.384 383.896,54.968 L386.332,53.672 Z" id="Path" fill="#6E44A5"></path>
            <path d="M395.912,53.672 C395.912,53.672 397.368,68.644 396.108,77.632 C396.108,77.632 405.792,76.988 414.08,70.616 C414.08,70.616 412.48,56.384 398.352,54.968 L395.912,53.672 Z" id="Path" fill="#6E44A5"></path>
            <path d="M386.516,52.488 C386.516,52.488 382.66,56.044 380.592,58.056 C379.905695,58.7226688 379.680937,59.7332944 380.02,60.628 C381.012,63.28 383.152,68.9 384.492,71.576 L385.088,77.516 L386.136,77.632 C386.136,77.632 386.4,58.4 386.516,52.488 Z" id="Path" fill="#5F3E93"></path>
            <path d="M395.912,52.488 C395.912,52.488 399.768,56.044 401.832,58.056 C402.518305,58.7226688 402.743063,59.7332944 402.404,60.628 C401.416,63.28 399.272,68.9 397.936,71.576 L397.336,77.516 L396.292,77.632 C396.292,77.632 396.032,58.4 395.912,52.488 Z" id="Path" fill="#5F3E93"></path>
            <polygon id="Path" fill="#FEFEFF" points="386.516 52.488 390.252 53.672 390.564 58.164 386.432 57.06"></polygon>
            <polygon id="Path" fill="#FEFEFF" points="395.912 52.488 391.992 53.672 391.684 58.164 396 57.596"></polygon>
            <path d="M390.052,53.4 L392.908,53.4 C393.265881,53.4 393.556,53.6901195 393.556,54.048 L393.556,56.904 C393.556,57.0769212 393.487307,57.2427599 393.365034,57.3650336 C393.24276,57.4873073 393.076921,57.556 392.904,57.556 L390.048,57.556 C389.68791,57.556 389.396,57.2640897 389.396,56.904 L389.396,54.048 C389.396,53.6901195 389.686119,53.4 390.044,53.4 L390.052,53.4 Z" id="Path" fill="#A96DE8"></path>
            <path d="M389.972,57.2 L388.108,77.86 C390.322499,78.1294784 392.561501,78.1294784 394.776,77.86 L392.988,57.2 L389.972,57.2 Z" id="Path" fill="#BD78FD"></path>
            <path d="M296.164,265.944 C296.164,265.944 298.54,257.784 308.516,257.388 C318.492,256.992 320.564,271.752 302.6,270.4 L296.164,265.944 Z" id="Path" fill="#FF9680"></path>
            <path d="M250.564,274.044 L266.196,299.148 L296.164,264.884 L304.1,270.4 L274.944,316.572 C273.265372,319.229523 270.541812,321.053861 267.445429,321.594814 C264.349045,322.135767 261.168255,321.342946 258.688,319.412 L240,304.852 L250.564,274.044 Z" id="Path" fill="#BD78FD"></path>
            <path d="M188.512,251.848 C188.512,251.848 168.912,271.88 160.544,300.116 C160.544,300.116 149.26,315.06 164.98,321.988 C180.7,328.916 192.412,319.688 188.512,296.204 C184.612,272.72 188.512,251.848 188.512,251.848 Z" id="Path" fill="#BD78FD"></path>
            <path d="M187.272,252.688 C181.464,256.88 176.072,264.52 177.748,278.312 L179.6,322 L243.28,322 C243.28,322 263.6,251.176 230.66,249.6 L204.016,248 C198.072,247.676 192.1,249.2 187.272,252.688 Z" id="Path" fill="#BD78FD"></path>
            <path d="M286.12,318.528 L281.32,318.528 L281.32,317.624 L286.12,317.624 C288.074174,317.621796 289.657796,316.038174 289.66,314.084 L289.66,310.556 C289.657796,308.601826 288.074174,307.018204 286.12,307.016 L281.776,307.016 L281.776,306.112 L286.12,306.112 C288.573439,306.114205 290.561795,308.102561 290.564,310.556 L290.564,314.084 C290.561795,316.537439 288.573439,318.525795 286.12,318.528 Z" id="Path" fill="#D2B0F7"></path>
            <rect id="Rectangle" fill="#6E44A5" x="262.444" y="300.992" width="20.44" height="21.228"></rect>
            <polygon id="Path" fill="#212123" opacity="0.08" points="262.444 319.7 282.884 315.436 282.884 322.22 262.444 322.22"></polygon>
            <rect id="Rectangle" fill="#5F3E93" x="129.032" y="321.988" width="170.292" height="11.48" rx="1.212"></rect>
            <rect id="Rectangle" fill="#D2B0F7" x="131.456" y="333.44" width="164.192" height="13.252"></rect>
            <path d="M189.572,193.708 C184.64,201.616 176.024,218.976 186.004,231.308 L240.004,236.556 C240.004,236.556 254.652,215.444 241.436,190.824 C228.968,167.588 206.172,163.752 194.424,185.352 C192.888,188.18 191.276,190.976 189.572,193.708 Z" id="Path" fill="#404047"></path>
            <polygon id="Path" fill="#6D6DBC" opacity="0.1" points="131.456 333.44 131.456 342.476 295.648 337.96 295.648 333.44"></polygon>
            <path d="M174.032,313.576 L249.488,313.576 L249.488,320.232 C249.488,321.215067 248.691067,322.012 247.708,322.012 L175.812,322.012 C174.828933,322.012 174.032,321.215067 174.032,320.232 L174.032,313.576 Z" id="Path" fill="#5A82A7"></path>
            <path d="M174.032,313.576 L249.488,313.576 L249.488,320.232 C249.488,321.215067 248.691067,322.012 247.708,322.012 L175.812,322.012 C174.828933,322.012 174.032,321.215067 174.032,320.232 L174.032,313.576 Z" id="Path" fill="#6E44A5"></path>
            <path d="M173.396,308.608 L167.72,262.4 C167.492819,260.402488 168.133939,258.403548 169.480551,256.910798 C170.827163,255.418049 172.74972,254.575095 174.76,254.595594 L249.848,254.595594 C251.883669,254.574102 253.82825,255.43849 255.175932,256.964328 C256.523614,258.490165 257.141183,260.526626 256.868,262.544 L250.196,308.608 L173.396,308.608 Z" id="Path" fill="#D2B0F7"></path>
            <path d="M174.032,313.576 L168.432,267.348 C168.194171,265.369289 168.814498,263.383392 170.136311,261.89186 C171.458125,260.400328 173.355049,259.545766 175.348,259.544 L249.144,259.544 C251.163227,259.544 253.083316,260.419217 254.407054,261.94401 C255.730793,263.468802 256.32799,265.492844 256.044,267.492 L249.488,313.576 L174.032,313.576 Z" id="Path" fill="#6E44A5"></path>
            <path d="M174.032,313.576 L249.488,313.576 L255.6,270.732 C255.6,270.732 217.748,303.2 172.716,302.676 L174.032,313.576 Z" id="Path" fill="#212123" opacity="0.08"></path>
            <circle id="Oval" fill="#6D6DBC" opacity="0.33" cx="214.864" cy="286.56" r="5.044"></circle>
            <circle id="Oval" fill="#FEFFFF" cx="214.864" cy="284.58" r="5.044"></circle>
            <path d="M202.124,207.6 C202.124,207.6 196.484,236.856 215.04,235.684 C228.936,234.804 231.964,221.4 232.608,214.728 C232.872846,212.18306 233.379125,209.669075 234.12,207.22 C235.964,200.988 237.972,188.688 227.672,182.796 C213.54,174.716 203.384,191.38 202.124,207.6 Z" id="Path" fill="#FF9680"></path>
            <polygon id="Path" fill="#FF9680" points="208.004 228.74 203.3 247.984 219.912 248.972 219.912 228.572"></polygon>
            <path d="M150.92,312.352 C144.92,313.492 141.096,306.132 145.576,301.952 C147.716,299.952 151.028,298.42 156.1,298.996 C168.4,300.396 166.444,311.02 159.176,311.02 C156.144,311.024 153.408,311.884 150.92,312.352 Z" id="Path" fill="#FF9680"></path>
            <path d="M142.12,322 C142.12,322 140.724,310.4 151.628,308.62 C162.532,306.84 166.316,314.512 164.98,322 L142.12,322 Z" id="Path" fill="#6E44A5"></path>
            <polygon id="Path" fill="#D2B0F7" points="142.428 317.792 165.08 317.792 165.08 321.988 142.22 321.988"></polygon>
            <path d="M206.852,233.448 C206.852,233.448 211.528,237.448 219.912,234.756 L219.912,238.4 C219.912,238.4 210.612,242.028 205.976,237.052 L206.852,233.448 Z" id="Path" fill="#212123" opacity="0.08"></path>
            <path d="M202.124,207.6 C202.124,207.6 215.092,203.276 221.38,193.036 C221.38,193.036 224.312,215.512 235.616,214.864 C235.616,214.864 243.724,206.936 240.016,197.528 C236.308,188.12 228.436,174.512 212.944,177.6 C197.452,180.688 202.124,207.6 202.124,207.6 Z" id="Path" fill="#404047"></path>
            <path d="M166.892,82.36 C166.846761,82.364 166.801239,82.364 166.756,82.36 C119.452,75.616 89.436,58.692 89.156,58.52 C88.8601841,58.3513706 88.6768016,58.0377348 88.6749165,57.697236 C88.6730603,57.3567372 88.8529857,57.0411054 89.1469309,56.869236 C89.4408762,56.6973666 89.8041841,56.6953706 90.1,56.864 C90.396,57.032 120.12,73.78 167.04,80.464 C167.529243,80.5416952 167.878094,80.9802425 167.843761,81.4744255 C167.809428,81.9686085 167.403287,82.3547038 166.908,82.364 L166.892,82.36 Z" id="Path" fill="#BD78FD"></path>
            <path d="M162.116,78 L161.236,83.6 C161.196135,83.8491218 161.285234,84.1014727 161.47268,84.270336 C161.660126,84.4391992 161.920377,84.5015642 162.164,84.436 L168.4,82.8 C168.6756,82.7248224 168.884316,82.4992347 168.937885,82.2186326 C168.991455,81.9380305 168.880523,81.6514193 168.652,81.48 L163.308,77.54 C163.101104,77.3809297 162.826258,77.341195 162.582781,77.4351543 C162.339304,77.5291136 162.162402,77.7431804 162.116,78 Z" id="Path" fill="#6E44A5"></path>
            <path d="M271.096,82.36 C270.600062,82.3525683 270.192176,81.96709 270.156764,81.4723622 C270.121352,80.9776344 270.470177,80.5379915 270.96,80.46 C317.88,73.768 347.604,57.02 347.9,56.86 C348.352797,56.6376534 348.900436,56.8053815 349.151052,57.2431658 C349.401668,57.6809501 349.269009,58.2381244 348.848,58.516 C348.548,58.688 318.536,75.612 271.248,82.356 C271.197575,82.3621562 271.146679,82.3634956 271.096,82.36 Z" id="Path" fill="#BD78FD"></path>
            <path d="M275.868,78 L276.752,83.6 C276.791865,83.8491218 276.702766,84.1014727 276.51532,84.270336 C276.327874,84.4391992 276.067623,84.5015642 275.824,84.436 L269.6,82.8 C269.32217,82.727523 269.110842,82.5016436 269.056999,82.2196092 C269.003156,81.9375749 269.11641,81.64973 269.348,81.48 L274.692,77.54 C274.897929,77.3865056 275.168464,77.35008 275.407657,77.4436419 C275.64685,77.5372038 275.820871,77.7475203 275.868,78 L275.868,78 Z" id="Path" fill="#6E44A5"></path>
            <path d="M343.312,311.056 L324.4,245.496 L342.204,237.44 L372.94,306.896 L359.16,316.62 C356.435161,318.543205 352.948207,319.029206 349.801331,317.924384 C346.654454,316.819562 344.236589,314.260465 343.312,311.056 L343.312,311.056 Z" id="Path" fill="#704BAA"></path>
            <polygon id="Path" fill="#FFFFFF" points="324.396 245.496 322.664 239.876 340.164 231.976 342.2 237.44"></polygon>
            <path d="M323.636,239.876 C323.636,239.876 312.92,221.832 325.2,210.532 C337.48,199.232 339.34,232.8 339.34,232.8 L323.636,239.876 Z" id="Path" fill="#FF9680"></path>
            <path d="M415.2,195.84 L415.2,207.2 L418.668,219.636 C418.668,219.636 447.468,288.984 399.468,346.476 L440.932,345.404 L450.932,257.404 C450.932,257.404 454.572,238.88 430.932,219.608 L426.616,210.256 C426.616,210.256 425.596,207.756 423.488,207.492 L421.592,194.984 C421.592,194.984 424.628,194.072 426.332,190.204 C426.332,190.204 433.752,173.9 435.024,169.648 C435.024,169.648 443.148,148.592 433.2,135.248 C433.2,135.248 426.636,123.88 410.332,126.252 C410.332,126.252 426.468,136.32 423.248,150.272 C420.028,164.224 411.836,181.352 415.2,195.84 Z" id="Path" fill="#212123" opacity="0.08"></path>
        </g>
    </g>
</svg>