<svg xmlns="http://www.w3.org/2000/svg" width="190" height="230" viewBox="0 0 190 230">
    <path d="M180,225a5,5,0,1,1,5,5A5,5,0,0,1,180,225Zm-20,0a5,5,0,1,1,5,5A5,5,0,0,1,160,225Zm-20,0a5,5,0,1,1,5,5A5,5,0,0,1,140,225Zm-20,0a5,5,0,1,1,5,5A5,5,0,0,1,120,225Zm-20,0a5,5,0,1,1,5,5A5,5,0,0,1,100,225Zm-20,0a5,5,0,1,1,5,5A5,5,0,0,1,80,225Zm-20,0a5,5,0,1,1,5,5A5,5,0,0,1,60,225Zm-20,0a5,5,0,1,1,5,5A5,5,0,0,1,40,225Zm-20,0a5,5,0,1,1,5,5A5,5,0,0,1,20,225ZM0,225a5,5,0,1,1,5,5A5,5,0,0,1,0,225Zm180-20a5,5,0,1,1,5,5A5,5,0,0,1,180,205Zm-20,0a5,5,0,1,1,5,5A5,5,0,0,1,160,205Zm-20,0a5,5,0,1,1,5,5A5,5,0,0,1,140,205Zm-20,0a5,5,0,1,1,5,5A5,5,0,0,1,120,205Zm-20,0a5,5,0,1,1,5,5A5,5,0,0,1,100,205Zm-20,0a5,5,0,1,1,5,5A5,5,0,0,1,80,205Zm-20,0a5,5,0,1,1,5,5A5,5,0,0,1,60,205Zm-20,0a5,5,0,1,1,5,5A5,5,0,0,1,40,205Zm-20,0a5,5,0,1,1,5,5A5,5,0,0,1,20,205ZM0,205a5,5,0,1,1,5,5A5,5,0,0,1,0,205Zm180-20a5,5,0,1,1,5,5A5,5,0,0,1,180,185Zm-20,0a5,5,0,1,1,5,5A5,5,0,0,1,160,185Zm-20,0a5,5,0,1,1,5,5A5,5,0,0,1,140,185Zm-20,0a5,5,0,1,1,5,5A5,5,0,0,1,120,185Zm-20,0a5,5,0,1,1,5,5A5,5,0,0,1,100,185Zm-20,0a5,5,0,1,1,5,5A5,5,0,0,1,80,185Zm-20,0a5,5,0,1,1,5,5A5,5,0,0,1,60,185Zm-20,0a5,5,0,1,1,5,5A5,5,0,0,1,40,185Zm-20,0a5,5,0,1,1,5,5A5,5,0,0,1,20,185ZM0,185a5,5,0,1,1,5,5A5,5,0,0,1,0,185Zm180-20a5,5,0,1,1,5,5A5,5,0,0,1,180,165Zm-20,0a5,5,0,1,1,5,5A5,5,0,0,1,160,165Zm-20,0a5,5,0,1,1,5,5A5,5,0,0,1,140,165Zm-20,0a5,5,0,1,1,5,5A5,5,0,0,1,120,165Zm-20,0a5,5,0,1,1,5,5A5,5,0,0,1,100,165Zm-20,0a5,5,0,1,1,5,5A5,5,0,0,1,80,165Zm-20,0a5,5,0,1,1,5,5A5,5,0,0,1,60,165Zm-20,0a5,5,0,1,1,5,5A5,5,0,0,1,40,165Zm-20,0a5,5,0,1,1,5,5A5,5,0,0,1,20,165ZM0,165a5,5,0,1,1,5,5A5,5,0,0,1,0,165Zm180-20a5,5,0,1,1,5,5A5,5,0,0,1,180,145Zm-20,0a5,5,0,1,1,5,5A5,5,0,0,1,160,145Zm-20,0a5,5,0,1,1,5,5A5,5,0,0,1,140,145Zm-20,0a5,5,0,1,1,5,5A5,5,0,0,1,120,145Zm-20,0a5,5,0,1,1,5,5A5,5,0,0,1,100,145Zm-20,0a5,5,0,1,1,5,5A5,5,0,0,1,80,145Zm-20,0a5,5,0,1,1,5,5A5,5,0,0,1,60,145Zm-20,0a5,5,0,1,1,5,5A5,5,0,0,1,40,145Zm-20,0a5,5,0,1,1,5,5A5,5,0,0,1,20,145ZM0,145a5,5,0,1,1,5,5A5,5,0,0,1,0,145Zm180-20a5,5,0,1,1,5,5A5,5,0,0,1,180,125Zm-20,0a5,5,0,1,1,5,5A5,5,0,0,1,160,125Zm-20,0a5,5,0,1,1,5,5A5,5,0,0,1,140,125Zm-20,0a5,5,0,1,1,5,5A5,5,0,0,1,120,125Zm-20,0a5,5,0,1,1,5,5A5,5,0,0,1,100,125Zm-20,0a5,5,0,1,1,5,5A5,5,0,0,1,80,125Zm-20,0a5,5,0,1,1,5,5A5,5,0,0,1,60,125Zm-20,0a5,5,0,1,1,5,5A5,5,0,0,1,40,125Zm-20,0a5,5,0,1,1,5,5A5,5,0,0,1,20,125ZM0,125a5,5,0,1,1,5,5A5,5,0,0,1,0,125Zm180-20a5,5,0,1,1,5,5A5,5,0,0,1,180,105Zm-20,0a5,5,0,1,1,5,5A5,5,0,0,1,160,105Zm-20,0a5,5,0,1,1,5,5A5,5,0,0,1,140,105Zm-20,0a5,5,0,1,1,5,5A5,5,0,0,1,120,105Zm-20,0a5,5,0,1,1,5,5A5,5,0,0,1,100,105Zm-20,0a5,5,0,1,1,5,5A5,5,0,0,1,80,105Zm-20,0a5,5,0,1,1,5,5A5,5,0,0,1,60,105Zm-20,0a5,5,0,1,1,5,5A5,5,0,0,1,40,105Zm-20,0a5,5,0,1,1,5,5A5,5,0,0,1,20,105ZM0,105a5,5,0,1,1,5,5A5,5,0,0,1,0,105ZM180,85a5,5,0,1,1,5,5A5,5,0,0,1,180,85Zm-20,0a5,5,0,1,1,5,5A5,5,0,0,1,160,85Zm-20,0a5,5,0,1,1,5,5A5,5,0,0,1,140,85Zm-20,0a5,5,0,1,1,5,5A5,5,0,0,1,120,85Zm-20,0a5,5,0,1,1,5,5A5,5,0,0,1,100,85ZM80,85a5,5,0,1,1,5,5A5,5,0,0,1,80,85ZM60,85a5,5,0,1,1,5,5A5,5,0,0,1,60,85ZM40,85a5,5,0,1,1,5,5A5,5,0,0,1,40,85ZM20,85a5,5,0,1,1,5,5A5,5,0,0,1,20,85ZM0,85a5,5,0,1,1,5,5A5,5,0,0,1,0,85ZM180,65a5,5,0,1,1,5,5A5,5,0,0,1,180,65Zm-20,0a5,5,0,1,1,5,5A5,5,0,0,1,160,65Zm-20,0a5,5,0,1,1,5,5A5,5,0,0,1,140,65Zm-20,0a5,5,0,1,1,5,5A5,5,0,0,1,120,65Zm-20,0a5,5,0,1,1,5,5A5,5,0,0,1,100,65ZM80,65a5,5,0,1,1,5,5A5,5,0,0,1,80,65ZM60,65a5,5,0,1,1,5,5A5,5,0,0,1,60,65ZM40,65a5,5,0,1,1,5,5A5,5,0,0,1,40,65ZM20,65a5,5,0,1,1,5,5A5,5,0,0,1,20,65ZM0,65a5,5,0,1,1,5,5A5,5,0,0,1,0,65ZM180,45a5,5,0,1,1,5,5A5,5,0,0,1,180,45Zm-20,0a5,5,0,1,1,5,5A5,5,0,0,1,160,45Zm-20,0a5,5,0,1,1,5,5A5,5,0,0,1,140,45Zm-20,0a5,5,0,1,1,5,5A5,5,0,0,1,120,45Zm-20,0a5,5,0,1,1,5,5A5,5,0,0,1,100,45ZM80,45a5,5,0,1,1,5,5A5,5,0,0,1,80,45ZM60,45a5,5,0,1,1,5,5A5,5,0,0,1,60,45ZM40,45a5,5,0,1,1,5,5A5,5,0,0,1,40,45ZM20,45a5,5,0,1,1,5,5A5,5,0,0,1,20,45ZM0,45a5,5,0,1,1,5,5A5,5,0,0,1,0,45ZM180,25a5,5,0,1,1,5,5A5,5,0,0,1,180,25Zm-20,0a5,5,0,1,1,5,5A5,5,0,0,1,160,25Zm-20,0a5,5,0,1,1,5,5A5,5,0,0,1,140,25Zm-20,0a5,5,0,1,1,5,5A5,5,0,0,1,120,25Zm-20,0a5,5,0,1,1,5,5A5,5,0,0,1,100,25ZM80,25a5,5,0,1,1,5,5A5,5,0,0,1,80,25ZM60,25a5,5,0,1,1,5,5A5,5,0,0,1,60,25ZM40,25a5,5,0,1,1,5,5A5,5,0,0,1,40,25ZM20,25a5,5,0,1,1,5,5A5,5,0,0,1,20,25ZM0,25a5,5,0,1,1,5,5A5,5,0,0,1,0,25ZM180,5a5,5,0,1,1,5,5A5,5,0,0,1,180,5ZM160,5a5,5,0,1,1,5,5A5,5,0,0,1,160,5ZM140,5a5,5,0,1,1,5,5A5,5,0,0,1,140,5ZM120,5a5,5,0,1,1,5,5A5,5,0,0,1,120,5ZM100,5a5,5,0,1,1,5,5A5,5,0,0,1,100,5ZM80,5a5,5,0,1,1,5,5A5,5,0,0,1,80,5ZM60,5a5,5,0,1,1,5,5A5,5,0,0,1,60,5ZM40,5a5,5,0,1,1,5,5A5,5,0,0,1,40,5ZM20,5a5,5,0,1,1,5,5A5,5,0,0,1,20,5ZM0,5a5,5,0,1,1,5,5A5,5,0,0,1,0,5Z"
          fill="#dcbfdf"/>
</svg>