<svg xmlns="http://www.w3.org/2000/svg" width="386.461" height="331.234" viewBox="0 0 386.461 331.234"><g transform="translate(-0.104 0.128)"><rect width="381.892" height="216.439" rx="31.208" transform="translate(0.104 30.762)" fill="#c5c5ff" opacity="0.4"/><path d="M64.9,0l4.6,29.387H0l4.378-27L64.9,0Z" transform="translate(294.948 301.72)" fill="#8180ff"/><path d="M381.892,0s-31.241.317-39.272,21.287-30.539,37.35-49.633,21.6S230.094-6.3,200.221,19.008s-77.069,34.218-95.886,13.943S61.315,55.436,0,42.16v6.048a29.7,29.7,0,0,0,29.7,29.7H362.016c10.976,0,19.876-7.528,19.876-16.812Z" transform="translate(0.104 168.991)" fill="#6d6dbc" opacity="0.07"/><path d="M0,0S35.01,7.459,34.816,58.543l-25.484,1Z" transform="translate(351.749 184.939)" fill="#83ddba"/><path d="M0,0S35.01,7.459,34.816,58.543l-25.484,1Z" transform="translate(351.749 184.939)" fill="#212123" opacity="0.08"/><path d="M4.1,0A37.033,37.033,0,0,0,.611,6.224a8.1,8.1,0,0,0,3.2,9.954h0Z" transform="translate(310.059 134.935)" fill="#f28877"/><path d="M20.256,1.231C9.639,4.831,2.23,14.533.816,25.66-.8,38.278-.9,55.342,9.1,60.58c16.463,8.64,25.8-11.948,30.19-23.148C42.943,28.029,44.224-6.956,20.256,1.231Z" transform="translate(313.572 107.489)" fill="#ff9680"/><path d="M21.733,3.388l3.888,24.793L0,32.2,3.4,0,21.733,3.388Z" transform="translate(323.428 161.867)" fill="#ff9680"/><path d="M29.351,3.668,52.862,0S75.247,13.961,76.547,35.942,64.9,119.578,64.9,119.578l-60.52,2.387L.1,51.624S-3.251,12.19,29.351,3.668Z" transform="translate(294.948 182.16)" fill="#29dd9c"/><path d="M7.56,12.337,0,46.1l38.2,3.74s10.85-23.4-5.814-44.6C24.743-4.454,9.115.1,7.56,12.337Z" transform="translate(290.52 195.999)" fill="#83ddba"/><path d="M.563,12.17S.4.395,5.582.006s5.184,18.67-1.271,19.411S.563,12.17.563,12.17Z" transform="translate(321.853 132.859)" fill="#f28877"/><rect width="60.869" height="129.042" transform="translate(126.688 117.842)" fill="#8180ff"/><rect width="6.163" height="83.542" transform="translate(175.104 123.584)" fill="#c5c5ff" opacity="0.49"/><rect width="6.163" height="83.542" transform="translate(161.752 123.584)" fill="#c5c5ff" opacity="0.49"/><rect width="6.163" height="83.542" transform="translate(147.521 123.584)" fill="#c5c5ff" opacity="0.49"/><rect width="6.163" height="83.542" transform="translate(134.071 123.584)" fill="#c5c5ff" opacity="0.49"/><rect width="60.869" height="8.485" transform="translate(126.688 109.357)" fill="#fefeff"/><path d="M0,44.435V26.478L52.8,0V44.435Z" transform="translate(130.752 64.922)" fill="#6d6dbc"/><rect width="60.869" height="8.672" transform="translate(126.688 213.289)" fill="#fefeff"/><rect width="22.482" height="16.7" transform="translate(145.429 230.18)" fill="#c5c5ff" opacity="0.49"/><rect width="60.592" height="97.474" transform="translate(209.038 149.728)" fill="#c5c5ff"/><rect width="39.251" height="6.966" transform="translate(224.215 161.021)" fill="#fefeff" opacity="0.49"/><rect width="39.251" height="6.966" transform="translate(224.215 175.586)" fill="#fefeff" opacity="0.49"/><rect width="39.251" height="6.966" transform="translate(224.215 189.13)" fill="#fefeff" opacity="0.49"/><rect width="49.295" height="12.049" transform="translate(214.175 137.678)" fill="#6d6dbc"/><rect width="60.592" height="5.648" transform="translate(209.038 209.038)" fill="#8180ff"/><rect width="22.482" height="16.7" transform="translate(227.578 230.18)" fill="#fefeff" opacity="0.49"/><rect width="60.592" height="72.126" transform="translate(45.41 175.075)" fill="#c5c5ff"/><rect width="22.482" height="16.7" transform="translate(63.95 230.18)" fill="#fefeff" opacity="0.49"/><rect width="34.963" height="15.246" transform="translate(221.058 122.432)" fill="#fefeff"/><rect width="50.386" height="12.028" transform="translate(50.512 162.976)" fill="#8180ff"/><rect width="9.788" height="12.665" transform="translate(87.293 181.652)" fill="#fefeff" opacity="0.49"/><rect width="9.788" height="12.665" transform="translate(71.377 181.652)" fill="#fefeff" opacity="0.49"/><rect width="9.788" height="12.665" transform="translate(55.242 181.652)" fill="#fefeff" opacity="0.49"/><rect width="9.788" height="12.665" transform="translate(87.293 201.928)" fill="#fefeff" opacity="0.49"/><rect width="9.788" height="12.665" transform="translate(71.377 201.928)" fill="#fefeff" opacity="0.49"/><rect width="9.788" height="12.665" transform="translate(55.242 201.928)" fill="#fefeff" opacity="0.49"/><rect width="60.592" height="4.964" transform="translate(45.41 219.481)" fill="#8180ff"/><circle cx="33.235" cy="33.235" r="33.235" transform="translate(211.378 35.194)" fill="#8180ff"/><path d="M1.976,0,0,12.9H8.5V.749L1.976,0Z" transform="translate(239.911 69.368)" fill="#9f605f"/><path d="M.408,5.936S-1.86,19.011,4.293,20.4s10.2-1.847,9.871-13.5S.812.763.408,5.936Z" transform="translate(237.602 53.104)" fill="#be706c"/><path d="M3.619,1.172S2.2-1.3.379.942,3.918,5.964,3.918,5.964Z" transform="translate(234.111 60.2)" fill="#be706c"/><path d="M.3,1.172S1.714-1.3,3.539.942,0,5.964,0,5.964Z" transform="translate(250.96 60.2)" fill="#be706c"/><path d="M4.557,15.632s-.659,6.8.6,8.4H6.991s-1.595-4.619-.767-8.4,2.16-4.543,4.846-4.68,7.006-.558,7.006,4.655-1.138,7.78-1.138,7.78l1.138.061a21.24,21.24,0,0,0,1.472-8.489L20.03,10s3.535,1.465,3.73-2.232-2.552-3-2.552-3,1.282-2.549-1.177-2.93S17,2.474,17,2.474,18.079.5,14.961.051s-2.678,2.16-2.678,2.16-1.8-3-4.59-1.465S5.781,4.062,5.781,4.062,4.575,2.147,3.2,3.551s0,3.186,0,3.186a2.223,2.223,0,0,0-2.84.7C-.681,9.033.55,12.8,3.866,11.2Z" transform="translate(232.877 45.337)" fill="#404047"/><path d="M.354.574S-.7,2.1.83,2.058s2.585.428,2.2-1.483C3.029.574,1.308-.718.354.574Z" transform="translate(243.229 72.761)" fill="#404047"/><path d="M0,13.453S1.134,1.652,15.376,0H23.7S38.981,1.631,41.152,12.337A31.618,31.618,0,0,1,19.444,20.03C19.458,20.03,8.69,20.758,0,13.453Z" transform="translate(224.705 81.18)" fill="#83ddba"/><path d="M0,0S14.134,13.806,24.12,8.248c0,0-4.608-6.84-15.782-8.248Z" transform="translate(240.08 81.18)" fill="#323144" opacity="0.07"/><circle cx="33.235" cy="33.235" r="33.235" transform="translate(211.378 35.194)" fill="none" stroke="#6d6dbc" stroke-miterlimit="10" stroke-width="0.5"/><circle cx="30.64" cy="30.64" r="30.64" transform="translate(120.611 0.122)" fill="#8180ff"/><path d="M1.822,0,0,11.891H7.841V.691L1.822,0Z" transform="translate(146.923 31.694)" fill="#ea8373"/><path d="M.374,5.471s-2.088,12.056,3.6,13.342,9.4-1.7,9.1-12.445S.752.7.374,5.471Z" transform="translate(144.792 16.708)" fill="#ff9680"/><path d="M3.327,1.08S2.02-1.2.346.868,3.608,5.5,3.608,5.5Z" transform="translate(141.584 23.245)" fill="#ff9680"/><path d="M.284,1.08S1.588-1.2,3.262.868,0,5.5,0,5.5Z" transform="translate(157.1 23.245)" fill="#ff9680"/><path d="M0,12.308S1,1.526,14.13,0h7.686S35.9,1.354,37.9,11.225A30.993,30.993,0,0,1,17.9,18.479,28,28,0,0,1,0,12.308Z" transform="translate(132.948 42.584)" fill="#29dd9c"/><path d="M0,0S12.622,11.858,21.823,6.736c0,0-2.8-6.358-14.137-6.736Z" transform="translate(147.078 42.584)" fill="#323144" opacity="0.07"/><path d="M.541,11.908l1.49,7.1,1.044-5.22s8.773,1.357,10.76-1.883c0,0-.49,5.5.9,7.715L16.057,14.4s3.733-5.1.806-8.024c0,0-1.462-8.046-9.817-6.059S-.287,8.034.541,11.908Z" transform="translate(142.847 8.846)" fill="#e8c05b"/><circle cx="30.64" cy="30.64" r="30.64" transform="translate(120.611 0.122)" fill="none" stroke="#6d6dbc" stroke-miterlimit="10" stroke-width="0.5"/><circle cx="32.296" cy="32.296" r="32.296" transform="translate(40.378 86.148)" fill="#8180ff"/><path d="M2.236,0,0,12.409l5.944.407.8-11.776L2.236,0Z" transform="translate(68.904 117.504)" fill="#ea8373"/><path d="M1.627.711s3.362-1.829,5.566.382,5.544,9.306,1.08,18.59-1.8,13.291-1.8,13.291S-1.447,30.522.234,20.925A117.461,117.461,0,0,0,1.627.711Z" transform="translate(77.81 97.047)" fill="#bc5b3c"/><path d="M.8,5.23S-2.265,17.758,3.607,19.515,13.615,18.4,14.072,7.081,1.533.237.8,5.23Z" transform="translate(66.237 103.267)" fill="#ff9680"/><path d="M3.551,1.25S2.345-1.245.434.814s3.118,5.1,3.118,5.1Z" transform="translate(63.049 109.482)" fill="#ff9680"/><path d="M.612,1.026s1.537-2.308,3.15,0S0,5.662,0,5.662Z" transform="translate(79.114 110.603)" fill="#ff9680"/><path d="M.807,0S5.559-.043,4.346,5.04-1.947,2.761.807,0Z" transform="translate(78.033 97.657)" fill="#fff"/><path d="M.935,13.323l.641,4.766S3.527,15.7,3.163,13.474c0,0,8.312,1.08,10.879-.936,0,0-.871,5.238.626,6.444L16.343,14s3.6-6.725-.443-9.576A5.508,5.508,0,0,0,12.89.463C10.111-1.052-3.673.636.935,13.323Z" transform="translate(65.061 96.603)" fill="#e26d44"/><path d="M13.77.738l5.839.4s5.3-1.991,7.664,2.142,3.352,16.006,3.352,16.006S16.477,27.126,0,17.021C0,17.021,2.189-4.172,13.77.738Z" transform="translate(55.303 128.246)" fill="#29dd9c"/><path d="M0,1.521s4.367,9.5,12.96,9.119c0,0-1.21-9.36-4.81-10.156A6.282,6.282,0,0,0,4.028.236Z" transform="translate(71.964 128.853)" fill="#323144" opacity="0.07"/><path d="M0,2.148A1.9,1.9,0,0,1,2.289.031C4.747.362,8.049-.992,7.861,2.6A5.954,5.954,0,0,1,0,2.148Z" transform="translate(68.142 126.488)" fill="#fff"/><circle cx="32.296" cy="32.296" r="32.296" transform="translate(40.378 86.148)" fill="none" stroke="#6d6dbc" stroke-miterlimit="10" stroke-width="0.5"/><path d="M9.508,0,0,18.173l8.057-3.78,5.767-12.5L9.508,0Z" transform="translate(34.456 152.698)" fill="#6d6dbc"/><path d="M9.767,1.962l-7.214,19.2L0,12.632,5.479,0,9.767,1.962Z" transform="translate(42.505 154.422)" fill="#fefeff"/><path d="M4.32,0l9.508,18.173-8.057-3.78L0,1.894,4.32,0Z" transform="translate(56.88 152.698)" fill="#6d6dbc"/><path d="M0,1.962l7.214,19.2,2.552-8.525L4.288,0,0,1.962Z" transform="translate(52.891 154.422)" fill="#fefeff"/><circle cx="11.12" cy="11.12" r="11.12" transform="translate(41.461 134.147)" fill="#ad592a"/><circle cx="11.12" cy="11.12" r="11.12" transform="translate(41.461 136.238)" fill="#df8a53"/><circle cx="9.216" cy="9.216" r="9.216" transform="translate(43.366 138.143)" fill="#d16b2b"/><path d="M1.758,2.366a.4.4,0,0,1-.331-.18A7.56,7.56,0,0,0,.109.674a.4.4,0,0,1,.526-.6,8.172,8.172,0,0,1,1.44,1.674.4.4,0,0,1-.112.551.41.41,0,0,1-.205.065Z" transform="translate(57.177 141.274)" fill="#df8a53"/><path d="M4.293,2.027a.36.36,0,0,1-.2-.058A8.964,8.964,0,0,0,.38.792.4.4,0,0,1,.413,0,9.493,9.493,0,0,1,4.495,1.282a.4.4,0,0,1-.2.745Z" transform="translate(51.985 139.118)" fill="#df8a53"/><path d="M1.3.857A6.566,6.566,0,0,1,.341.789.4.4,0,1,1,.452,0,6.246,6.246,0,0,0,1.7.051a.4.4,0,0,1,.421.36.4.4,0,0,1-.36.421A4.023,4.023,0,0,1,1.3.857Z" transform="translate(50.859 154.854)" fill="#df8a53" opacity="0.47"/><path d="M4.36,3.919A.472.472,0,0,1,4.224,3.9,9.176,9.176,0,0,1,.069.625.4.4,0,1,1,.732.175a8.514,8.514,0,0,0,3.78,2.974.4.4,0,0,1-.151.77Z" transform="translate(45.528 151.385)" fill="#df8a53" opacity="0.47"/><path d="M9.209,0,0,17.611,7.8,13.95,13.4,1.836,9.209,0Z" transform="translate(111.938 53.496)" fill="#6d6dbc"/><path d="M9.464,1.9,2.47,20.5,0,12.24,5.306,0,9.464,1.9Z" transform="translate(119.74 55.17)" fill="#fefeff"/><path d="M4.183,0,13.4,17.611l-7.8-3.661L0,1.836,4.183,0Z" transform="translate(133.672 53.496)" fill="#6d6dbc"/><path d="M0,1.9,6.991,20.5,9.464,12.24,4.158,0,0,1.9Z" transform="translate(129.802 55.17)" fill="#fefeff"/><circle cx="10.775" cy="10.775" r="10.775" transform="translate(118.728 35.521)" fill="#dca925"/><circle cx="10.775" cy="10.775" r="10.775" transform="translate(118.728 37.548)" fill="#f6d439"/><circle cx="8.932" cy="8.932" r="8.932" transform="translate(120.571 39.391)" fill="#e8b81e"/><path d="M1.75,2.336a.389.389,0,0,1-.32-.173A7.3,7.3,0,0,0,.155.694.385.385,0,1,1,.663.118a7.978,7.978,0,0,1,1.411,1.62.385.385,0,0,1-.112.533A.36.36,0,0,1,1.75,2.336Z" transform="translate(133.909 42.394)" fill="#f6d439"/><path d="M4.155,1.955A.36.36,0,0,1,3.96,1.9,8.665,8.665,0,0,0,.36.76.382.382,0,0,1,0,.36.385.385,0,0,1,.4,0,9.36,9.36,0,0,1,4.36,1.25a.385.385,0,0,1-.194.72Z" transform="translate(128.934 40.345)" fill="#f6d439"/><path d="M1.295.835A6.635,6.635,0,0,1,.366.77.385.385,0,1,1,.474.01,6.12,6.12,0,0,0,1.68.054a.392.392,0,0,1,.41.36A.385.385,0,0,1,1.73.82C1.586.831,1.442.835,1.295.835Z" transform="translate(127.798 55.581)" fill="#f6d439" opacity="0.47"/><path d="M4.222,3.787a.407.407,0,0,1-.13-.022A8.9,8.9,0,0,1,.064.594.382.382,0,0,1,.176.061.389.389,0,0,1,.708.173a8.28,8.28,0,0,0,3.647,2.88.385.385,0,0,1-.133.745Z" transform="translate(122.671 52.236)" fill="#f6d439" opacity="0.47"/><path d="M59.08,0,58,35.413a8.744,8.744,0,0,1-8.946,8.474L0,42.725S.436,35.3,4.622,29.84A11.658,11.658,0,0,1,20.628,27.76L27.8,32.911l12.7-4.835L44.935.634Z" transform="translate(324.81 243.587)" fill="#f28877"/><path d="M8.755,0,0,16.744l7.42-3.481L12.737,1.746,8.755,0Z" transform="translate(209.833 97.582)" fill="#6d6dbc"/><path d="M9,1.807,2.351,19.49,0,11.639,5.044,0,9,1.807Z" transform="translate(217.249 99.173)" fill="#fefeff"/><path d="M3.978,0l8.759,16.744L5.314,13.262,0,1.746,3.978,0Z" transform="translate(230.494 97.582)" fill="#6d6dbc"/><path d="M0,1.807,6.649,19.49,9,11.639,3.953,0,0,1.807Z" transform="translate(226.814 99.173)" fill="#fefeff"/><circle cx="10.246" cy="10.246" r="10.246" transform="translate(216.284 80.492)" fill="#93a099"/><circle cx="10.246" cy="10.246" r="10.246" transform="translate(216.284 82.418)" fill="#cad8cd"/><circle cx="8.492" cy="8.492" r="8.492" transform="translate(218.038 84.172)" fill="#a8b9b0"/><path d="M1.643,2.2a.36.36,0,0,1-.306-.166A6.869,6.869,0,0,0,.128.644.36.36,0,0,1,.092.129.36.36,0,0,1,.61.093,7.722,7.722,0,0,1,1.949,1.638a.366.366,0,0,1-.306.565Z" transform="translate(230.74 87.045)" fill="#cad8cd"/><path d="M3.953,1.851a.36.36,0,0,1-.184-.05A8.244,8.244,0,0,0,.346.72.36.36,0,0,1,.375,0,8.856,8.856,0,0,1,4.137,1.185a.36.36,0,0,1-.184.684Z" transform="translate(225.986 85.089)" fill="#cad8cd"/><path d="M1.2.789A6.019,6.019,0,0,1,.317.728.36.36,0,0,1,0,.318.36.36,0,0,1,.418,0,5.548,5.548,0,0,0,1.566.048a.361.361,0,1,1,.047.72A3.19,3.19,0,0,1,1.2.789Z" transform="translate(224.942 99.568)" fill="#cad8cd"/><path d="M4.016,3.608a.36.36,0,0,1-.122-.022A8.42,8.42,0,0,1,.063.57a.36.36,0,0,1,.1-.508A.36.36,0,0,1,.675.17,7.848,7.848,0,0,0,4.142,2.9a.365.365,0,0,1-.126.709Z" transform="translate(220.034 96.378)" fill="#cad8cd"/><path d="M2.07,0S-5.566,46.494,8.492,46.523s62.536,3.6,62.536,3.6S85.255,57.564,86.7,47.664s-2.815-21.9-18.8-17.525c-12.294,3.366-31.223-1.7-39.3-4.219A4.086,4.086,0,0,1,25.9,20.812L31.543,2.538Z" transform="translate(291.906 242.442)" fill="#ff9680"/><path d="M8.791,2.639l-1.926,18.3a2.282,2.282,0,0,1-2.588,2.02l-2.315-.324a2.286,2.286,0,0,1-1.948-2.52L2.005,2.279A2.52,2.52,0,0,1,4.493.025L6.4,0A2.38,2.38,0,0,1,8.791,2.639Z" transform="translate(351.151 270.731)" fill="#31ba85"/><path d="M15.15,37.282S-.78,26.842.03,8.406C.249,3.323,5.5-.212,10.11,1.926,13.321,3.42,17.9,3.888,24.276,1.368c16.2-6.412,37.512,9.947,22.712,44.172L41.372,58.284a8.694,8.694,0,0,1-8.32,5.184L31.361,63.4a8.586,8.586,0,0,1-8.125-8.521l-.072-12.715S24.614,29.513,15.15,37.282Z" transform="translate(307.896 101.527)" fill="#404047"/></g></svg>