<?xml version="1.0" encoding="UTF-8"?>
<svg width="437px" height="354px" viewBox="0 0 437 354" version="1.1" xmlns="http://www.w3.org/2000/svg" xmlns:xlink="http://www.w3.org/1999/xlink">
    <!-- Generator: Sketch 57.1 (83088) - https://sketch.com -->
    <title>design asset 19</title>
    <desc>Created with Sketch.</desc>
    <g id="Page-1" stroke="none" stroke-width="1" fill="none" fill-rule="evenodd">
        <g id="design-asset-19" fill-rule="nonzero">
            <path d="M372.524,195.124 L413.92,195.124 C414.324272,195.124 414.652,195.451728 414.652,195.856 L414.652,201.824 C414.652,202.559643 414.055643,203.156 413.32,203.156 L373.124,203.156 C372.388357,203.156 371.792,202.559643 371.792,201.824 L371.792,195.856 C371.792,195.451728 372.119728,195.124 372.524,195.124 L372.524,195.124 Z" id="Path" fill="#FFFFFF"></path>
            <polygon id="Path" fill="#663398" points="401.552 184.108 393.368 159.404 385.184 184.108 373.276 161.192 373.276 195.124 393.368 195.124 413.46 195.124 413.46 161.192"></polygon>
            <circle id="Oval" fill="#FFFFFF" cx="373.864" cy="162.392" r="3.448"></circle>
            <circle id="Oval" fill="#FFFFFF" cx="412.8" cy="162.392" r="3.448"></circle>
            <circle id="Oval" fill="#FFFFFF" cx="393.396" cy="160.064" r="3.448"></circle>
            <path d="M384.616,166.512 C385.891769,166.087803 386.663145,164.791849 386.427742,163.468174 C386.192339,162.144499 385.021446,161.193959 383.677647,161.235627 C382.333849,161.277295 381.224096,162.298553 381.071155,163.63427 C380.918214,164.969987 381.7684,166.215659 383.068,166.56 L380.856,175.78 L385.2,184.108 L387.96,175.78 L384.616,166.512 Z" id="Path" fill="#7F5BB2"></path>
            <path d="M402.176,166.512 C400.900231,166.087803 400.128855,164.791849 400.364258,163.468174 C400.599661,162.144499 401.770554,161.193959 403.114353,161.235627 C404.458151,161.277295 405.567904,162.298553 405.720845,163.63427 C405.873786,164.969987 405.0236,166.215659 403.724,166.56 L405.936,175.78 L401.6,184.108 L398.84,175.78 L402.176,166.512 Z" id="Path" fill="#7F5BB2"></path>
            <g id="Group" opacity="0.59" transform="translate(0.000000, 7.200000)">
                <rect id="Rectangle" fill="#DFBDFF" opacity="0.4" x="0.264" y="0.076" width="435.124" height="279.02" rx="9.848"></rect>
                <rect id="Rectangle" fill="#AC8EDD" opacity="0.25" x="210.236" y="131.704" width="55.944" height="64.896"></rect>
                <rect id="Rectangle" fill="#AC8EDD" opacity="0.25" x="337.076" y="151.14" width="55.944" height="128.052"></rect>
                <rect id="Rectangle" fill="#AC8EDD" opacity="0.56" x="100.56" y="145.62" width="69.036" height="133.476"></rect>
                <rect id="Rectangle" fill="#AC8EDD" opacity="0.56" x="204.76" y="196.836" width="69.036" height="82.26"></rect>
                <rect id="Rectangle" fill="#AC8EDD" opacity="0.34" x="266.776" y="96.724" width="70.304" height="182.012"></rect>
                <rect id="Rectangle" fill="#AC8EDD" opacity="0.34" x="39.584" y="112.4" width="61.068" height="166.336"></rect>
                <path d="M436.344,190 C436.344,190 400.744,190.36 391.596,214.256 C382.448,238.152 356.8,256.8 335.044,238.832 C313.288,220.864 263.388,182.8 229.352,211.628 C195.316,240.456 141.54,250.612 120.096,227.512 C98.652,204.412 71.08,253.132 1.2,238 L1.2,255.6 C1.2,268.379869 11.5601309,278.74 24.34,278.74 L413.68,278.74 C426.188,278.74 436.328,270.164 436.328,259.584 L436.344,190 Z" id="Path" fill="#6D6DBC" opacity="0.07"></path>
                <rect id="Rectangle" fill="#945ECC" x="189.14" y="131.704" width="76.06" height="147.032"></rect>
                <rect id="Rectangle" fill="#C5C5FF" opacity="0.49" x="249.64" y="138.248" width="7.7" height="95.188"></rect>
                <rect id="Rectangle" fill="#C5C5FF" opacity="0.49" x="232.956" y="138.248" width="7.7" height="95.188"></rect>
                <rect id="Rectangle" fill="#C5C5FF" opacity="0.49" x="215.172" y="138.248" width="7.7" height="95.188"></rect>
                <rect id="Rectangle" fill="#C5C5FF" opacity="0.49" x="198.364" y="138.248" width="7.7" height="95.188"></rect>
                <rect id="Rectangle" fill="#FEFEFF" x="189.14" y="122.036" width="76.06" height="9.668"></rect>
                <polygon id="Path" fill="#6E44A5" points="194.22 122.036 194.22 101.576 260.196 71.408 260.196 122.036"></polygon>
                <rect id="Rectangle" fill="#FEFEFF" x="189.14" y="240.46" width="76.06" height="9.884"></rect>
                <rect id="Rectangle" fill="#C5C5FF" opacity="0.49" x="212.564" y="259.704" width="28.096" height="19.032"></rect>
                <rect id="Rectangle" fill="#AC8EDD" x="277.356" y="168.036" width="75.712" height="111.06"></rect>
                <rect id="Rectangle" fill="#FEFEFF" opacity="0.49" x="290.688" y="180.904" width="49.048" height="7.94"></rect>
                <rect id="Rectangle" fill="#FEFEFF" opacity="0.49" x="290.688" y="197.5" width="49.048" height="7.94"></rect>
                <rect id="Rectangle" fill="#FEFEFF" opacity="0.49" x="290.688" y="212.928" width="49.048" height="7.94"></rect>
                <rect id="Rectangle" fill="#6E44A5" x="283.772" y="154.304" width="61.596" height="13.732"></rect>
                <rect id="Rectangle" fill="#945ECC" x="277.356" y="235.616" width="75.712" height="6.436"></rect>
                <rect id="Rectangle" fill="#FEFEFF" opacity="0.49" x="300.524" y="259.704" width="28.096" height="19.032"></rect>
                <rect id="Rectangle" fill="#AC8EDD" x="100.984" y="196.916" width="75.712" height="82.18"></rect>
                <rect id="Rectangle" fill="#FEFEFF" opacity="0.49" x="124.152" y="259.704" width="28.096" height="19.032"></rect>
                <rect id="Rectangle" fill="#FEFEFF" x="292.376" y="136.936" width="43.688" height="17.372"></rect>
                <rect id="Rectangle" fill="#6E44A5" x="107.36" y="183.132" width="62.96" height="13.704"></rect>
                <rect id="Rectangle" fill="#FEFEFF" opacity="0.49" x="153.32" y="204.412" width="12.232" height="14.432"></rect>
                <rect id="Rectangle" fill="#FEFEFF" opacity="0.49" x="133.432" y="204.412" width="12.232" height="14.432"></rect>
                <rect id="Rectangle" fill="#FEFEFF" opacity="0.49" x="113.268" y="204.412" width="12.232" height="14.432"></rect>
                <rect id="Rectangle" fill="#FEFEFF" opacity="0.49" x="153.32" y="227.512" width="12.232" height="14.432"></rect>
                <rect id="Rectangle" fill="#FEFEFF" opacity="0.49" x="133.432" y="227.512" width="12.232" height="14.432"></rect>
                <rect id="Rectangle" fill="#FEFEFF" opacity="0.49" x="113.268" y="227.512" width="12.232" height="14.432"></rect>
                <rect id="Rectangle" fill="#945ECC" x="100.984" y="247.516" width="75.712" height="5.656"></rect>
            </g>
            <polygon id="Path" fill="#5E3D91" points="362.916 231.304 328.616 190.62 312.712 205.88 345.368 247.66"></polygon>
            <polygon id="Path" fill="#6E44A5" points="33.988 320.788 28.888 353.336 105.864 353.336 101.016 323.432"></polygon>
            <path d="M42.956,191.452 C42.956,191.452 4.184,199.716 4.4,256.288 L32.62,257.404 L42.956,191.452 Z" id="Path" fill="#D2B0F7"></path>
            <path d="M42.956,191.452 C42.956,191.452 4.184,199.716 4.4,256.288 L32.62,257.404 L42.956,191.452 Z" id="Path" fill="#854DC1" opacity="0.16"></path>
            <path d="M84.584,136.072 C86.092655,138.24058 87.3880196,140.55 88.452,142.968 C90.1227956,147.016455 88.6264661,151.679593 84.912,154 L84.912,154 L84.584,136.072 Z" id="Path" fill="#F28877"></path>
            <path d="M62.8,107.028 C74.56,111.028 82.76,121.76 84.344,134.084 C86.14,148.056 86.244,166.956 75.188,172.772 C56.956,182.372 46.616,159.536 41.752,147.132 C37.676,136.72 36.26,97.976 62.8,107.028 Z" id="Path" fill="#FF9680"></path>
            <polygon id="Path" fill="#FF9680" points="50.252 169.652 45.948 197.112 74.324 201.56 70.556 165.9"></polygon>
            <path d="M73.36,192.436 L47.32,188.356 C47.32,188.356 22.52,203.816 21.088,228.16 C19.656,252.504 34,320.8 34,320.8 L101.024,323.444 L105.768,245.56 C105.768,245.56 109.464,201.876 73.36,192.436 Z" id="Path" fill="#BD78FD"></path>
            <path d="M102.4,217.364 L110.8,254.764 L68.484,258.904 C68.484,258.904 56.484,232.984 74.924,209.508 C83.364,198.768 100.672,203.816 102.4,217.364 Z" id="Path" fill="#D2B0F7"></path>
            <path d="M75.44,147.252 C75.44,147.252 75.624,134.212 69.884,133.78 C64.144,133.348 64.14,154.456 71.292,155.28 C78.444,156.104 75.44,147.252 75.44,147.252 Z" id="Path" fill="#F28877"></path>
            <path d="M7.36,256.4 L8.54,295.6 C8.70122408,300.918965 13.1240216,305.111334 18.444,304.988 L72.772,303.7 C72.772,303.7 72.292,295.476 67.656,289.432 C63.464,283.968 55.524,283.108 49.928,287.124 L42,292.856 L27.932,287.5 L23.028,257.1 L7.36,256.4 Z" id="Path" fill="#F28877"></path>
            <path d="M106.94,255.14 C106.94,255.14 115.396,306.628 99.828,306.66 C84.26,306.692 30.568,310.66 30.568,310.66 C30.568,310.66 14.8,318.88 13.2,307.92 C11.6,296.96 16.316,283.664 34.02,288.512 C47.62,292.24 68.6,286.624 77.548,283.836 C79.9314491,283.095459 81.264906,280.564575 80.528,278.18 L74.284,257.94 L106.94,255.14 Z" id="Path" fill="#FF9680"></path>
            <path d="M33.88,289.388 L36,309.656 C36.0714264,310.337516 36.4168831,310.960698 36.9570128,311.382392 C37.4971424,311.804085 38.1855152,311.98804 38.864,311.892 L41.428,311.532 C42.7880062,311.339386 43.745362,310.096067 43.584,308.732 L41.38,288.984 C41.2260807,287.574071 40.0422379,286.501911 38.624,286.488 L36.516,286.459974 C35.7636441,286.456649 35.0456,286.774459 34.542211,287.333611 C34.0388221,287.892762 33.7979165,288.640128 33.88,289.388 Z" id="Path" fill="#6E44A5"></path>
            <path d="M49.852,172.196 C49.852,172.196 59.196,173.052 63.424,169.744 C67.652,166.436 62.744,144.328 65.9,140.364 C69.056,136.4 84.556,141.088 86.864,128.964 C89.172,116.84 89.232,107.472 74.32,100.856 C59.408,94.24 41.776,99.756 35.716,108.572 C35.716,108.572 28.276,117.392 32.116,129.516 C35.956,141.64 41.944,162.8 49.852,172.196 Z" id="Path" fill="#404047"></path>
            <circle id="Oval" fill="#6E44A5" cx="130.404" cy="45.404" r="42.052"></circle>
            <path d="M100.268,74.72 L92.152,89.476 C91.7386328,90.2256392 91.8572791,91.1565123 92.4454693,91.778496 C93.0336595,92.4004797 93.9564608,92.570889 94.728,92.2 L112.768,83.6 L100.268,74.72 Z" id="Path" fill="#6E44A5"></path>
            <circle id="Oval" fill="#6E44A5" cx="316.916" cy="42.064" r="42.052"></circle>
            <path d="M347.052,71.38 L354.652,85.208 C355.136403,86.0881926 354.996919,87.1804742 354.306866,87.9106886 C353.616814,88.640903 352.53416,88.8418896 351.628,88.408 L334.548,80.244 L347.052,71.38 Z" id="Path" fill="#6E44A5"></path>
            <polygon id="Path" fill="#6E44A5" points="420.456 320.788 425.556 353.336 348.58 353.336 353.432 323.432"></polygon>
            <path d="M369.86,136.072 C368.351345,138.24058 367.05598,140.55 365.992,142.968 C364.327497,147.01432 365.822914,151.671234 369.532,153.992 L369.532,153.992 L369.86,136.072 Z" id="Path" fill="#F28877"></path>
            <path d="M391.64,107.028 C379.88,111.028 371.68,121.76 370.096,134.084 C368.3,148.056 368.196,166.956 379.252,172.772 C397.484,182.372 407.824,159.536 412.688,147.132 C416.768,136.72 418.184,97.976 391.64,107.028 Z" id="Path" fill="#FF9680"></path>
            <polygon id="Path" fill="#FF9680" points="404 168.42 408.496 197.112 380.124 201.56 383.888 165.9"></polygon>
            <path d="M381.084,192.436 L407.124,188.356 C407.124,188.356 431.924,203.816 433.356,228.16 C434.012,239.24 426.752,260.088 425.556,283.1 C424.124,310.656 428.636,339.9 428.636,339.9 L348.588,337.544 C344.530476,337.425159 340.72549,335.54659 338.164013,332.397548 C335.602537,329.248506 334.538127,325.140712 335.248,321.144 L348.688,245.544 C348.688,245.544 344.98,201.876 381.084,192.436 Z" id="Path" fill="#6E44A5"></path>
            <path d="M379.004,147.252 C379.004,147.252 378.82,134.212 384.56,133.78 C390.3,133.348 390.304,154.456 383.152,155.28 C376,156.104 379.004,147.252 379.004,147.252 Z" id="Path" fill="#F28877"></path>
            <path d="M379.7,140.364 C379.7,140.364 362.06,128.816 362.948,108.364 C363.196,102.732 369.008,98.82 374.116,101.196 C377.676,102.856 382.748,103.372 389.804,100.58 C407.764,93.48 431.352,111.596 414.96,149.5 L408.744,163.616 C407.14738,167.237837 403.499082,169.515644 399.544,169.36 L397.668,169.28 C392.643725,169.013145 388.698814,164.875285 388.672,159.844 L388.592,145.764 C388.592,145.764 390.18,131.764 379.7,140.364 Z" id="Path" fill="#404047"></path>
            <path d="M368.62,205.444 L319.624,243.752 C309.916,251.352 313.772,266.952 325.928,268.976 C334.916,270.468 347.356,268.372 364.088,257.732 C364.088,257.732 388.752,244.404 396.276,226.132 C403.224,209.26 382.992,194.208 368.62,205.444 Z" id="Path" fill="#6E44A5"></path>
            <circle id="Oval" fill="#49326D" opacity="0.36" cx="136.844" cy="51.128" r="19.796"></circle>
            <circle id="Oval" fill="#FCFCFF" cx="130.404" cy="45.404" r="19.796"></circle>
            <ellipse id="Oval" fill="#49326D" cx="123.252" cy="41.348" rx="2.264" ry="4.056"></ellipse>
            <ellipse id="Oval" fill="#49326D" cx="136.248" cy="41.348" rx="2.264" ry="4.056"></ellipse>
            <path d="M136.248,56.488 C135.890676,56.4895631 135.562829,56.2900717 135.4,55.972 C133.764,52.8 132.012,51.172 130.2,51.136 L130.136,51.136 C127.444,51.136 124.864,54.64 124.092,56.004 C123.832426,56.4623963 123.250396,56.6235738 122.792,56.3639999 C122.333604,56.1044261 122.172426,55.5223963 122.432,55.064 C122.568,54.824 125.776,49.228 130.132,49.228 L130.232,49.228 C132.812,49.28 135.128,51.252 137.104,55.096 C137.222037,55.3191588 137.246189,55.5801812 137.171103,55.8212095 C137.096016,56.0622378 136.927893,56.2633616 136.704,56.38 C136.564135,56.4554559 136.406851,56.4927075 136.248,56.488 L136.248,56.488 Z" id="Path" fill="#49326D"></path>
            <path d="M118.6,35.088 C118.230314,35.0873246 117.894152,34.8735632 117.73674,34.5390636 C117.579328,34.204564 117.628885,33.8092879 117.864,33.524 C121.517257,29.4902467 126.922454,27.5139763 132.316,28.24 C132.837357,28.3084833 133.204483,28.7866432 133.136,29.308 C133.067517,29.8293568 132.589357,30.1964833 132.068,30.128 C127.327867,29.5156765 122.584313,31.2339668 119.336,34.74 C119.155142,34.9603415 118.885062,35.088 118.6,35.088 L118.6,35.088 Z" id="Path" fill="#49326D" opacity="0.08"></path>
            <circle id="Oval" fill="#49326D" opacity="0.36" cx="322.52" cy="50.184" r="19.796"></circle>
            <circle id="Oval" fill="#FCFCFF" cx="316.08" cy="44.46" r="19.796"></circle>
            <ellipse id="Oval" fill="#49326D" cx="308.928" cy="40.404" rx="2.264" ry="4.056"></ellipse>
            <ellipse id="Oval" fill="#49326D" cx="321.92" cy="40.404" rx="2.264" ry="4.056"></ellipse>
            <path d="M321.924,55.5440091 C321.566676,55.5455631 321.238829,55.3460717 321.076,55.028 C319.44,51.856 317.688,50.228 315.876,50.192 L315.812,50.192 C313.12,50.192 310.54,53.696 309.768,55.06 C309.600085,55.3565305 309.286728,55.5409545 308.945968,55.5438012 C308.605208,55.546648 308.288813,55.367485 308.115968,55.0738012 C307.943122,54.7801174 307.940085,54.4165304 308.108,54.12 C308.244,53.88 311.452,48.284 315.808,48.284 L315.908,48.284 C318.488,48.332 320.804,50.308 322.78,54.152 C322.931338,54.4472933 322.918734,54.7999417 322.746699,55.0836766 C322.574664,55.3674116 322.267807,55.5416483 321.936,55.5440091 L321.924,55.5440091 Z" id="Path" fill="#49326D"></path>
            <path d="M304.276,34.14 C303.906327,34.1413389 303.569302,33.928549 303.411565,33.5942154 C303.253828,33.2598817 303.303902,32.8644606 303.54,32.58 C307.196153,28.5455112 312.604026,26.5693563 318,27.296 C318.521357,27.3644833 318.888483,27.8426432 318.82,28.364 C318.751517,28.8853568 318.273357,29.2524833 317.752,29.184 C313.011867,28.5716765 308.268313,30.2899668 305.02,33.796 C304.836951,34.0174968 304.563318,34.1440153 304.276,34.14 Z" id="Path" fill="#49326D" opacity="0.08"></path>
            <path d="M345.44,266.904 C345.44,266.904 369.892,256.62 389.408,237.212 C389.408,237.212 387.324,287.18 337.076,310.836 L345.44,266.904 Z" id="Path" fill="#212123" opacity="0.08"></path>
            <polygon id="Path" fill="#212123" opacity="0.08" points="351.132 337.612 423.424 339.74 425.556 353.336 349.856 345.472"></polygon>
            <path d="M369.736,197.2 C369.736,197.2 372.08,187.848 381.916,184.592 C388.784,182.32 398.532,181.168 403.788,180.68 C405.997808,180.476575 408.095841,181.688274 409.024,183.704 L413.34,193.06 C413.34,193.06 393.736,191.828 369.736,197.2 Z" id="Path" fill="#5F3E93"></path>
            <polygon id="Path" fill="#FCFBFF" points="313.944 204.7 310.644 200.796 325.272 188.104 327.8 191.404"></polygon>
            <path d="M312.712,199 L325.272,188.104 L322.872,185.332 C316.648,178.132 305.704,176.932 298.408,183.036 C296.432,184.688 295.324,186.436 296.06,188.104 C298.668,194.04 312.712,199 312.712,199 Z" id="Path" fill="#FF9680"></path>
        </g>
    </g>
</svg>