<svg width="432px" height="343px" viewBox="0 0 432 343" version="1.1" xmlns="http://www.w3.org/2000/svg" xmlns:xlink="http://www.w3.org/1999/xlink">
    <!-- Generator: Sketch 57.1 (83088) - https://sketch.com -->
    <title>illustration assets 3</title>
    <desc>Created with Sketch.</desc>
    <g id="Final-Design" stroke="none" stroke-width="1" fill="none" fill-rule="evenodd">
        <g id="full-design-v.2" transform="translate(-1050.000000, -2107.000000)" fill-rule="nonzero">
            <g id="illustration-assets-3" transform="translate(1050.000000, 2107.000000)">
                <circle id="Oval" fill="#C5C5FF" opacity="0.71" cx="227.7324" cy="129.1824" r="39.1824"></circle>
                <polygon id="Path" fill="#9F605F" points="224.5176 130.2876 222.1884 145.494 232.2144 145.494 232.2144 131.1696"></polygon>
                <path d="M219.96,118.1196 C219.96,118.1196 217.2852,133.5384 224.5392,135.18 C231.7932,136.8216 236.5596,133.002 236.178,119.2644 C235.7964,105.5268 220.4244,112.014 219.96,118.1196 Z" id="Path" fill="#BE706C"></path>
                <path d="M219.6,120.8628 C219.6,120.8628 217.9296,117.9432 215.7876,120.5928 C213.6456,123.2424 219.96,126.5112 219.96,126.5112 L219.6,120.8628 Z" id="Path" fill="#BE706C"></path>
                <path d="M235.566,120.8628 C235.566,120.8628 237.2328,117.9432 239.3748,120.5928 C241.5168,123.2424 235.2024,126.5112 235.2024,126.5112 L235.566,120.8628 Z" id="Path" fill="#BE706C"></path>
                <path d="M219.2652,120.3876 C219.2652,120.3876 218.4912,128.4084 219.9852,130.2876 L222.1452,130.2876 C222.1452,130.2876 220.266,124.8444 221.2452,120.3876 C222.2244,115.9308 223.8012,115.0308 226.9584,114.8796 C230.1156,114.7284 235.2132,114.2208 235.2132,120.366 C235.2132,126.5112 233.874,129.5352 233.874,129.5352 L235.2132,129.6108 C236.471508,126.427668 237.063311,123.020205 236.952,119.5992 L237.51,113.76 C237.51,113.76 241.6788,115.488 241.9056,111.1284 C242.1324,106.7688 238.8996,107.5932 238.8996,107.5932 C238.8996,107.5932 240.408,104.5872 237.51,104.1372 C234.612,103.6872 233.9388,104.8896 233.9388,104.8896 C233.9388,104.8896 235.2168,102.5568 231.5304,102.0312 C227.844,101.5056 228.3732,104.5872 228.3732,104.5872 C228.3732,104.5872 226.2708,101.0556 222.9732,102.8592 C219.6756,104.6628 220.7196,106.7688 220.7196,106.7688 C220.7196,106.7688 219.2796,104.5116 217.6776,106.1676 C216.0756,107.8236 217.6776,109.926 217.6776,109.926 C217.6776,109.926 215.5176,108.8712 214.3296,110.7504 C213.1416,112.6296 214.5564,117.0648 218.4624,115.1856 L219.2652,120.3876 Z" id="Path" fill="#404047"></path>
                <path d="M226.5156,134.9676 C226.5156,134.9676 225.2736,136.7676 227.0772,136.7136 C228.8808,136.6596 230.1228,137.2212 229.6728,134.9676 C229.68,134.9676 227.6424,133.4448 226.5156,134.9676 Z" id="Path" fill="#404047"></path>
                <path d="M204.2604,160.0776 C204.2604,160.0776 205.5924,146.1636 222.3864,144.216 L232.2,144.216 C232.2,144.216 250.2216,146.1384 252.7812,158.76 C252.7812,158.76 242.8812,168.3684 227.1888,167.832 C227.2032,167.832 214.506,168.6888 204.2604,160.0776 Z" id="Path" fill="#83DDBA"></path>
                <path d="M222.3864,144.216 C222.3864,144.216 239.0508,160.4952 250.8264,153.936 C250.8264,153.936 245.3904,145.8792 232.218,144.216 L222.3864,144.216 Z" id="Path" fill="#323144" opacity="0.07"></path>
                <path d="M227.7324,169.2684 C211.518799,169.269856 196.900884,159.504139 190.695198,144.525143 C184.489513,129.546146 187.918212,112.303853 199.382445,100.838591 C210.846677,89.3733285 228.088663,85.9430806 243.068216,92.1474208 C258.04777,98.3517609 267.8148,112.968799 267.8148,129.1824 C267.790994,151.310013 249.860011,169.242607 227.7324,169.2684 L227.7324,169.2684 Z M227.7324,90.9 C212.246503,90.8985439 198.284706,100.226095 192.357837,114.532919 C186.430969,128.839743 189.706327,145.308107 200.65651,156.25829 C211.606693,167.208473 228.075057,170.483831 242.381881,164.556963 C256.688705,158.630094 266.016256,144.668297 266.0148,129.1824 C265.990993,108.049483 248.865317,90.9238073 227.7324,90.9 Z" id="Shape" fill="#7F7EFE"></path>
                <circle id="Oval" fill="#C5C5FF" opacity="0.71" cx="328.2984" cy="191.7468" r="39.1824"></circle>
                <polygon id="Path" fill="#EA8373" points="325.0944 192.942 322.7652 208.1448 332.7912 208.1448 332.7912 193.824"></polygon>
                <path d="M320.5188,180.7704 C320.5188,180.7704 317.8476,196.1892 325.098,197.8308 C332.3484,199.4724 337.122,195.6708 336.7404,181.9152 C336.3588,168.1596 320.9976,174.6648 320.5188,180.7704 Z" id="Path" fill="#FF9680"></path>
                <path d="M320.1876,183.5136 C320.1876,183.5136 318.5208,180.594 316.3788,183.2436 C314.2368,185.8932 320.5512,189.162 320.5512,189.162 L320.1876,183.5136 Z" id="Path" fill="#FF9680"></path>
                <path d="M336.1428,183.5136 C336.1428,183.5136 337.8096,180.594 339.9516,183.2436 C342.0936,185.8932 335.7792,189.162 335.7792,189.162 L336.1428,183.5136 Z" id="Path" fill="#FF9680"></path>
                <path d="M304.8912,222.6024 C304.8912,222.6024 306.1692,208.8144 322.9596,206.8668 L332.7912,206.8668 C332.7912,206.8668 350.7912,208.5984 353.3616,221.22 C353.3616,221.22 343.53,230.5116 327.7764,230.4972 C327.7764,230.4972 315.1404,231.2172 304.8912,222.6024 Z" id="Path" fill="#29DD9C"></path>
                <path d="M322.9596,206.8668 C322.9596,206.8668 339.102,222.0336 350.8704,215.478 C350.8704,215.478 347.292,207.3456 332.7912,206.8668 L322.9596,206.8668 Z" id="Path" fill="#323144" opacity="0.07"></path>
                <path d="M318.24,178.9488 L320.1444,188.0352 L321.48,181.3536 C321.48,181.3536 332.7012,183.0924 335.2392,178.9488 C335.2392,178.9488 334.6164,185.9868 336.3984,188.8128 L338.0832,182.1348 C338.0832,182.1348 342.8532,175.6116 339.1128,171.8712 C339.1128,171.8712 337.2444,161.586 326.556,164.124 C315.8676,166.662 317.2032,173.9952 318.24,178.9488 Z" id="Path" fill="#E8C05B"></path>
                <path d="M328.2984,231.84 C312.084471,231.841456 297.466329,222.075349 291.260854,207.095911 C285.05538,192.116473 288.484739,174.873897 299.949718,163.408918 C311.414697,151.943939 328.657273,148.51458 343.636711,154.720054 C358.616149,160.925529 368.382256,175.543671 368.3808,191.7576 C368.355011,213.883807 350.424607,231.814211 328.2984,231.84 Z M328.2984,153.4716 C312.812831,153.470144 298.851261,162.797305 292.924182,177.103687 C286.997102,191.41007 290.271801,207.878151 301.221237,218.828617 C312.170673,229.779083 328.638447,233.05533 342.945386,227.129596 C357.252326,221.203862 366.5808,207.243169 366.5808,191.7576 C366.562948,170.619881 349.43611,153.486602 328.2984,153.4608 L328.2984,153.4716 Z" id="Shape" fill="#7F7EFE"></path>
                <circle id="Oval" fill="#C5C5FF" opacity="0.71" cx="92.052" cy="214.5312" r="39.8556"></circle>
                <polygon id="Path" fill="#EA8373" points="90.1584 213.372 87.4008 228.6864 94.7376 229.1868 95.7276 214.6536"></polygon>
                <path d="M100.4004,189 C100.4004,189 104.5476,186.7392 107.2656,189.468 C109.9836,192.1968 114.1056,200.952 108.6084,212.4072 C103.1112,223.8624 106.398,228.8088 106.398,228.8088 C106.398,228.8088 96.6204,225.7812 98.6976,213.9408 C100.7748,202.1004 100.4004,189 100.4004,189 Z" id="Path" fill="#BC5B3C"></path>
                <path d="M85.0932,202.2552 C85.0932,202.2552 81.3168,217.7172 88.56,219.8952 C95.8032,222.0732 100.9116,218.52 101.4732,204.552 C102.0348,190.584 86.004,196.092 85.0932,202.2552 Z" id="Path" fill="#FF9680"></path>
                <path d="M84.5676,205.0164 C84.5676,205.0164 83.0808,201.9384 80.7228,204.4764 C78.3648,207.0144 84.546,210.7728 84.546,210.7728 L84.5676,205.0164 Z" id="Path" fill="#FF9680"></path>
                <path d="M100.7568,206.1216 C100.7568,206.1216 102.6504,203.274 104.6412,206.1216 C106.632,208.9692 99.9972,211.8384 99.9972,211.8384 L100.7568,206.1216 Z" id="Path" fill="#FF9680"></path>
                <path d="M99.6804,188.877587 C99.6804,188.877587 105.5448,188.8272 104.04,195.12 C102.5352,201.4128 96.264,192.2904 99.6804,188.877587 Z" id="Path" fill="#FFFFFF"></path>
                <path d="M83.8116,204.0192 L84.6036,209.898 C84.6036,209.898 87.0084,206.9496 86.562,204.2064 C86.562,204.2064 96.8184,205.5564 99.9864,203.0508 C99.9864,203.0508 98.9064,209.5308 100.7604,210.9996 L102.8268,204.84 C102.8268,204.84 107.2836,196.56 102.2796,193.0284 C102.2796,193.0284 101.9952,190.0116 98.5644,188.1432 C95.1336,186.2748 78.12,188.3664 83.8116,204.0192 Z" id="Path" fill="#E26D44"></path>
                <path d="M87.6096,227.52 L94.8096,228.0132 C94.8096,228.0132 101.3472,225.5544 104.2668,230.6556 C107.1864,235.7568 108.4032,250.4052 108.4032,250.4052 C108.4032,250.4052 90.9432,260.0856 70.6032,247.6152 C70.6176,247.6296 73.3212,221.4756 87.6096,227.52 Z" id="Path" fill="#29DD9C"></path>
                <path d="M91.1772,229.2516 C91.1772,229.2516 96.5772,240.9768 107.1828,240.5052 C107.1828,240.5052 105.6888,228.9672 101.25,227.9736 C99.6375748,227.300816 97.845317,227.191733 96.1632,227.664 L91.1772,229.2516 Z" id="Path" fill="#323144" opacity="0.07"></path>
                <path d="M86.4648,227.106 C86.4648,227.106 86.2488,224.082 89.2872,224.496 C92.3256,224.91 96.4116,223.2324 96.1632,227.664 C96.1632,227.664 91.3464,231.606 86.4648,227.106 Z" id="Path" fill="#FFFFFF"></path>
                <path d="M92.0808,255.2868 C91.152,255.2868 90.2196,255.258 89.28,255.1932 C72.8334877,254.073054 58.6812903,243.155773 53.4229018,227.532334 C48.1645132,211.908895 52.8355505,194.656268 65.257802,183.819748 C77.6800535,172.983228 95.40701,170.697022 110.172186,178.027239 C124.937361,185.357456 133.832818,200.860443 132.7104,217.3068 L131.814,217.2456 L132.7104,217.3068 C131.227727,238.665018 113.49038,255.24565 92.0808,255.2868 L92.0808,255.2868 Z M91.9944,175.5756 C71.0055445,175.604663 53.8130228,192.25714 53.1143313,213.234383 C52.4156397,234.211626 68.4619953,251.971194 89.4024,253.3968 C90.3,253.4568 91.1916,253.4868 92.0772,253.4868 C112.996018,253.37005 130.088053,236.752275 130.793248,215.845021 C131.498444,194.937766 115.565007,177.206051 94.7016,175.68 C93.7992,175.6128 92.8968,175.578 91.9944,175.5756 L91.9944,175.5756 Z" id="Shape" fill="#7F7EFE"></path>
                <circle id="Oval" fill="#C5C5FF" opacity="0.12" cx="19.3464" cy="144.648" r="18.7524"></circle>
                <polygon id="Path" fill="#EA8373" points="17.7264 146.6316 16.6104 153.9072 21.4092 153.9072 21.4092 147.0564"></polygon>
                <path d="M15.534,140.8104 C15.534,140.8104 14.256,148.1868 17.7264,148.9716 C21.1968,149.7564 23.4864,147.9312 23.2992,141.3576 C23.112,134.784 15.7644,137.88 15.534,140.8104 Z" id="Path" fill="#FF9680"></path>
                <path d="M15.3756,142.1208 C15.3756,142.1208 14.58,140.724 13.554,141.9912 C12.528,143.2584 15.552,144.8244 15.552,144.8244 L15.3756,142.1208 Z" id="Path" fill="#FF9680"></path>
                <path d="M23.0112,142.1208 C23.0112,142.1208 23.8104,140.724 24.8364,141.9912 C25.8624,143.2584 22.8384,144.8244 22.8384,144.8244 L23.0112,142.1208 Z" id="Path" fill="#FF9680"></path>
                <path d="M8.5788,159.6708 C8.5788,159.6708 8.8092,153.8568 16.8588,152.9244 L21.564,152.9244 C21.564,152.9244 29.844,153 31.0716,159.0444 C27.7035592,161.773179 23.4975208,163.25699 19.1628,163.2456 C15.3135191,163.408064 11.5412615,162.133965 8.5788,159.6708 L8.5788,159.6708 Z" id="Path" fill="#83DDBA"></path>
                <path d="M16.8444,152.9244 C16.8444,152.9244 24.57,160.182 30.2004,157.0464 C30.2004,157.0464 28.4904,153.1512 21.5604,152.9244 L16.8444,152.9244 Z" id="Path" fill="#323144" opacity="0.07"></path>
                <path d="M14.814,139.68 L15.534,144.3276 L16.2792,141.8364 C16.4989634,141.094106 17.1164785,140.537786 17.8776,140.3964 C19.423462,140.087682 21.0161606,140.098708 22.5576,140.4288 C25.3728,141.1308 27.9072,138.7224 26.1828,135.972 C24.4584,133.2216 22.8132,135.0792 20.5776,135.0792 C18.342,135.0792 13.68,134.244 14.814,139.68 Z" id="Path" fill="#404047"></path>
                <path d="M22.6584,140.4504 L23.13,144.54 C23.13,144.54 23.85,142.2648 23.6844,140.5476 C23.5188,138.8304 22.248,139.1508 22.6584,140.4504 Z" id="Path" fill="#404047"></path>
                <path d="M19.3464,163.9404 C8.69150169,163.9404 0.054,155.302898 0.054,144.648 C0.054,133.993102 8.69150169,125.3556 19.3464,125.3556 C30.0012983,125.3556 38.6388,133.993102 38.6388,144.648 C38.6268962,155.297964 29.9963637,163.928496 19.3464,163.9404 L19.3464,163.9404 Z M19.3464,126.4356 C9.28796922,126.4356 1.134,134.589569 1.134,144.648 C1.134,154.706431 9.28796922,162.8604 19.3464,162.8604 C29.4048308,162.8604 37.5588,154.706431 37.5588,144.648 C37.5468977,134.594503 29.3998965,126.447502 19.3464,126.4356 L19.3464,126.4356 Z" id="Shape" fill="#7F7EFE"></path>
                <circle id="Oval" fill="#C5C5FF" opacity="0.12" cx="56.8548" cy="97.3728" r="18.7524"></circle>
                <polygon id="Path" fill="#9F605F" points="55.2312 99.36 54.1152 106.6356 58.914 106.6356 58.914 99.7812"></polygon>
                <path d="M52.812,92.4012 C52.812,92.4012 51.7644,100.9152 55.2348,101.7 C58.7052,102.4848 61.3296,100.3896 61.1496,93.816 C60.9696,87.2424 53.0388,89.478 52.812,92.4012 Z" id="Path" fill="#BE706C"></path>
                <path d="M52.884,94.8456 C52.884,94.8456 52.0848,93.4488 51.0588,94.7196 C50.0328,95.9904 53.0568,97.5492 53.0568,97.5492 L52.884,94.8456 Z" id="Path" fill="#BE706C"></path>
                <path d="M60.516,94.8456 C60.516,94.8456 61.3152,93.4488 62.3412,94.7196 C63.3672,95.9904 60.3432,97.5492 60.3432,97.5492 L60.516,94.8456 Z" id="Path" fill="#BE706C"></path>
                <path d="M46.08,112.3956 C46.08,112.3956 46.3104,106.5816 54.36,105.6492 L59.04,105.6492 C59.04,105.6492 67.32,105.7248 68.5512,111.7692 C65.1831592,114.497979 60.9771208,115.98179 56.6424,115.9704 C52.8002636,116.128834 49.0361773,114.854894 46.08,112.3956 L46.08,112.3956 Z" id="Path" fill="#29DD9C"></path>
                <path d="M54.36,105.6492 C54.36,105.6492 62.0856,112.9068 67.7196,109.7712 C67.7196,109.7712 66.006,105.8796 59.0796,105.6492 L54.36,105.6492 Z" id="Path" fill="#323144" opacity="0.07"></path>
                <path d="M56.8548,116.6652 C49.0517526,116.6652 42.0170435,111.964758 39.0309465,104.755682 C36.0448495,97.5466061 37.6954254,89.2486009 43.2130131,83.7310131 C48.7306009,78.2134254 57.0286061,76.5628495 64.2376819,79.5489465 C71.4467576,82.5350435 76.1472,89.5697526 76.1472,97.3728 C76.1333171,108.021943 67.5039425,116.651317 56.8548,116.6652 Z M56.8548,79.1604 C46.7963692,79.1604 38.6424,87.3143692 38.6424,97.3728 C38.6424,107.431231 46.7963692,115.5852 56.8548,115.5852 C66.9132308,115.5852 75.0672,107.431231 75.0672,97.3728 C75.0533192,87.3201245 66.9074755,79.1742808 56.8548,79.1604 L56.8548,79.1604 Z" id="Shape" fill="#7F7EFE"></path>
                <circle id="Oval" fill="#C5C5FF" opacity="0.12" cx="104.292" cy="130.2876" r="18.7524"></circle>
                <path d="M99.1836,129.492 C99.1836,129.492 99.5436,131.9508 98.442,133.1316 C97.3404,134.3124 100.188,137.0016 102.5496,134.8308 C104.9112,132.66 106.0884,136.9908 108.8712,134.4996 C111.654,132.0084 108.7524,131.2092 108.27,127.7352 C107.7876,124.2612 99.1836,129.492 99.1836,129.492 Z" id="Path" fill="#E8C05B"></path>
                <polygon id="Path" fill="#EA8373" points="102.6684 132.2748 101.5524 139.5504 106.3512 139.5504 106.3512 132.696"></polygon>
                <path d="M100.4796,126.45 C100.4796,126.45 99.2016,133.83 102.672,134.6148 C106.1424,135.3996 108.432,133.5708 108.2412,126.9972 C108.0504,120.4236 100.7064,123.5268 100.4796,126.45 Z" id="Path" fill="#FF9680"></path>
                <path d="M100.3212,127.7604 C100.3212,127.7604 99.522,126.3636 98.496,127.6308 C97.47,128.898 100.494,130.464 100.494,130.464 L100.3212,127.7604 Z" id="Path" fill="#FF9680"></path>
                <path d="M107.9568,127.7604 C107.9568,127.7604 108.7524,126.3636 109.7784,127.6308 C110.8044,128.898 107.7804,130.464 107.7804,130.464 L107.9568,127.7604 Z" id="Path" fill="#FF9680"></path>
                <path d="M93.5208,145.3104 C93.5208,145.3104 93.7512,139.4964 101.8008,138.564 L106.506,138.564 C106.506,138.564 114.786,138.6396 116.0172,144.684 C112.649159,147.412779 108.443121,148.89659 104.1084,148.8852 C100.257747,149.049609 96.4836816,147.775332 93.5208,145.3104 Z" id="Path" fill="#83DDBA"></path>
                <path d="M101.7864,138.564 C101.7864,138.564 109.512,145.8216 115.146,142.686 C115.146,142.686 113.4324,138.7944 106.506,138.564 L101.7864,138.564 Z" id="Path" fill="#323144" opacity="0.07"></path>
                <path d="M107.6004,126.09 L108.0756,130.1796 C108.0756,130.1796 108.7956,127.908 108.63,126.1872 C108.4644,124.4664 107.19,124.794 107.6004,126.09 Z" id="Path" fill="#E8C05B"></path>
                <path d="M104.292,149.58 C93.6371017,149.58 84.9996,140.942498 84.9996,130.2876 C84.9996,119.632702 93.6371017,110.9952 104.292,110.9952 C114.946898,110.9952 123.5844,119.632702 123.5844,130.2876 C123.572496,140.937564 114.941964,149.568096 104.292,149.58 L104.292,149.58 Z M104.292,112.0752 C96.9257718,112.0752 90.2848699,116.512509 87.4659364,123.318016 C84.6470029,130.123524 86.2051786,137.957002 91.4138885,143.165712 C96.6225984,148.374421 104.456076,149.932597 111.261584,147.113664 C118.067091,144.29473 122.5044,137.653828 122.5044,130.2876 C122.492498,120.234103 114.345497,112.087102 104.292,112.0752 Z" id="Shape" fill="#7F7EFE"></path>
                <circle id="Oval" fill="#C5C5FF" opacity="0.12" cx="176.4072" cy="53.3196" r="18.7524"></circle>
                <polygon id="Path" fill="#EA8373" points="174.7872 55.3068 173.6712 62.5824 178.47 62.5824 178.47 55.728"></polygon>
                <path d="M172.5948,49.482 C172.5948,49.482 171.3168,56.862 174.7872,57.6468 C178.2576,58.4316 180.5472,56.6064 180.36,50.0292 C180.1728,43.452 172.8252,46.5588 172.5948,49.482 Z" id="Path" fill="#FF9680"></path>
                <path d="M172.44,50.796 C172.44,50.796 171.6444,49.3992 170.6184,50.6664 C169.5924,51.9336 172.6164,53.4996 172.6164,53.4996 L172.44,50.796 Z" id="Path" fill="#FF9680"></path>
                <path d="M180.072,50.796 C180.072,50.796 180.8712,49.3992 181.8972,50.6664 C182.9232,51.9336 179.8992,53.4996 179.8992,53.4996 L180.072,50.796 Z" id="Path" fill="#FF9680"></path>
                <path d="M165.6396,68.3424 C165.6396,68.3424 165.87,62.5284 173.9196,61.596 L178.6248,61.596 C178.6248,61.596 186.9048,61.6716 188.136,67.716 C184.766611,70.4452894 180.559694,71.9302334 176.2236,71.9208 C172.373751,72.0829534 168.601197,70.8074707 165.6396,68.3424 Z" id="Path" fill="#83DDBA"></path>
                <path d="M173.9052,61.596 C173.9052,61.596 181.6308,68.8536 187.2612,65.718 C187.2612,65.718 185.5512,61.8264 178.6212,61.596 L173.9052,61.596 Z" id="Path" fill="#323144" opacity="0.07"></path>
                <path d="M176.4,72.6156003 C168.595169,72.6170561 161.558042,67.91666 158.570254,60.7063543 C155.582465,53.4960487 157.232461,45.1959047 162.750795,39.6765409 C168.269129,34.1571771 176.568965,32.5056333 183.779828,35.4920764 C190.990691,38.4785195 195.6924,45.5147689 195.6924,53.3196 C195.68248,63.9709695 187.051368,72.6036926 176.4,72.6156003 Z M176.4,35.1071996 C169.031661,35.105744 162.388114,39.5433961 159.5677,46.3505755 C156.747286,53.1577548 158.30554,60.993654 163.515743,66.2038568 C168.725946,71.4140595 176.561845,72.9723144 183.369025,70.1519004 C190.176204,67.3314864 194.613856,60.6879393 194.6124,53.3196 C194.600498,43.2661035 186.453497,35.1191023 176.4,35.1071996 Z" id="Shape" fill="#7F7EFE"></path>
                <circle id="Oval" fill="#C5C5FF" opacity="0.12" cx="281.286" cy="54.5616" r="18.7524"></circle>
                <polygon id="Path" fill="#9F605F" points="279.6624 56.5452 278.5464 63.8208 283.3452 63.8208 283.3452 56.9664"></polygon>
                <path d="M277.4736,50.7204 C277.4736,50.7204 276.1956,58.1004 279.666,58.8852 C283.1364,59.67 285.426,57.8448 285.2352,51.2676 C285.0444,44.6904 277.7004,47.8008 277.4736,50.7204 Z" id="Path" fill="#BE706C"></path>
                <path d="M277.3152,52.0344 C277.3152,52.0344 276.516,50.6376 275.49,51.9048 C274.464,53.172 277.488,54.738 277.488,54.738 L277.3152,52.0344 Z" id="Path" fill="#BE706C"></path>
                <path d="M284.9508,52.0344 C284.9508,52.0344 285.7464,50.6376 286.7724,51.9048 C287.7984,53.172 284.7744,54.738 284.7744,54.738 L284.9508,52.0344 Z" id="Path" fill="#BE706C"></path>
                <path d="M270.5148,69.5808 C270.5148,69.5808 270.7452,63.7668 278.7948,62.8344 L283.5,62.8344 C283.5,62.8344 291.78,62.91 293.0112,68.9544 C289.643938,71.6849951 285.43766,73.1701622 281.1024,73.1592 C277.251427,73.321563 273.477672,72.0461084 270.5148,69.5808 Z" id="Path" fill="#83DDBA"></path>
                <path d="M278.7804,62.8344 C278.7804,62.8344 286.506,70.092 292.14,66.96 C292.14,66.96 290.4264,63.0684 283.5,62.838 L278.7804,62.8344 Z" id="Path" fill="#323144" opacity="0.07"></path>
                <path d="M276.75,49.5936 L277.47,54.2412 L278.2152,51.75 C278.434963,51.0077062 279.052479,50.4513863 279.8136,50.31 C280.9872,50.0976 282.7656,50.5404 284.4936,50.3388 C286.398,50.1228 287.3736,50.6196 287.406,47.3724 C287.406,43.2648 281.9052,44.1936 279.666,44.1936 C277.4268,44.1936 275.598,44.1576 276.75,49.5936 Z" id="Path" fill="#404047"></path>
                <path d="M284.5944,50.364 L285.0696,54.4536 C285.0696,54.4536 285.7896,52.1784 285.624,50.4612 C285.4584,48.744 284.184,49.0644 284.5944,50.364 Z" id="Path" fill="#404047"></path>
                <path d="M281.286,73.8540003 C273.480842,73.8554561 266.443487,69.1546703 263.45591,61.9439226 C260.468332,54.733175 262.118987,46.4327485 267.638068,40.9136679 C273.157148,35.3945873 281.457575,33.7439322 288.668323,36.7315097 C295.87907,39.7190872 300.579856,46.7564415 300.5784,54.5616 C300.566496,65.2115637 291.935964,73.8420962 281.286,73.8540003 Z M281.286,36.3455996 C273.917988,36.3441439 267.274669,40.7814065 264.454044,47.5881438 C261.633419,54.3948811 263.191014,62.2304978 268.40047,67.4409838 C273.609926,72.6514698 281.445235,74.2106133 288.25253,71.3913337 C295.059824,68.5720541 299.4984,61.9296118 299.4984,54.5616 C299.48055,44.5123214 291.335287,36.3718885 281.286,36.36 L281.286,36.3455996 Z" id="Shape" fill="#7F7EFE"></path>
                <circle id="Oval" fill="#C5C5FF" opacity="0.12" cx="327.7764" cy="111.5352" r="18.7524"></circle>
                <polygon id="Path" fill="#EA8373" points="326.1564 113.5188 325.0404 120.798 329.8392 120.798 329.8392 113.9436"></polygon>
                <path d="M323.964,107.6976 C323.964,107.6976 322.686,115.074 326.1564,115.8624 C329.6268,116.6508 331.9164,114.8184 331.7292,108.2448 C331.542,101.6712 324.1944,104.76 323.964,107.6976 Z" id="Path" fill="#FF9680"></path>
                <path d="M323.8056,109.008 C323.8056,109.008 323.01,107.6112 321.984,108.8784 C320.958,110.1456 323.982,111.7116 323.982,111.7116 L323.8056,109.008 Z" id="Path" fill="#FF9680"></path>
                <path d="M331.4412,109.008 C331.4412,109.008 332.2404,107.6112 333.2664,108.8784 C334.2924,110.1456 331.2684,111.7116 331.2684,111.7116 L331.4412,109.008 Z" id="Path" fill="#FF9680"></path>
                <path d="M317.0088,126.558 C317.0088,126.558 317.2392,120.744 325.2888,119.8116 L329.994,119.8116 C329.994,119.8116 338.274,119.8872 339.5016,125.9316 C336.133559,128.660379 331.927521,130.14419 327.5928,130.1328 C323.743222,130.297347 319.970235,129.023001 317.0088,126.558 L317.0088,126.558 Z" id="Path" fill="#83DDBA"></path>
                <path d="M325.2744,119.8116 C325.2744,119.8116 333,127.0692 338.6304,123.9336 C338.6304,123.9336 336.9204,120.042 329.9904,119.8116 L325.2744,119.8116 Z" id="Path" fill="#323144" opacity="0.07"></path>
                <path d="M331.0884,107.3376 L331.56,111.4272 C331.56,111.4272 332.28,109.152 332.1144,107.4348 C331.9488,105.7176 330.678,106.0416 331.0884,107.3376 Z" id="Path" fill="#404047"></path>
                <path d="M327.7764,130.8276 C317.121502,130.8276 308.484,122.190098 308.484,111.5352 C308.484,100.880302 317.121502,92.2428 327.7764,92.2428 C338.431298,92.2428 347.0688,100.880302 347.0688,111.5352 C347.056896,122.185164 338.426364,130.815696 327.7764,130.8276 Z M327.7764,93.3228 C317.717969,93.3228 309.564,101.476769 309.564,111.5352 C309.564,121.593631 317.717969,129.7476 327.7764,129.7476 C337.834831,129.7476 345.9888,121.593631 345.9888,111.5352 C345.976898,101.481703 337.829897,93.3347023 327.7764,93.3228 Z" id="Shape" fill="#7F7EFE"></path>
                <circle id="Oval" fill="#C5C5FF" opacity="0.12" cx="393.1812" cy="115.992" r="18.7524"></circle>
                <circle id="Oval" fill="#C5C5FF" opacity="0.12" cx="411.9336" cy="176.2668" r="18.7524"></circle>
                <polygon id="Path" fill="#EA8373" points="410.31 178.2504 409.194 185.5296 413.9928 185.5296 413.9928 178.6752"></polygon>
                <path d="M407.88,171.2448 C407.88,171.2448 406.8324,179.8056 410.3028,180.6048 C413.7732,181.404 415.7028,179.4132 416.3184,172.8648 C416.9736,165.834 407.7432,167.04 407.88,171.2448 Z" id="Path" fill="#FF9680"></path>
                <path d="M407.9628,173.7396 C407.9628,173.7396 407.1636,172.3428 406.1376,173.61 C405.1116,174.8772 408.1356,176.4432 408.1356,176.4432 L407.9628,173.7396 Z" id="Path" fill="#FF9680"></path>
                <path d="M415.5984,173.7396 C415.5984,173.7396 416.394,172.3428 417.42,173.61 C418.446,174.8772 415.422,176.4432 415.422,176.4432 L415.5984,173.7396 Z" id="Path" fill="#FF9680"></path>
                <path d="M401.1624,191.2896 C401.1624,191.2896 401.3928,185.4756 409.4424,184.5432 L414.1476,184.5432 C414.1476,184.5432 422.4276,184.6188 423.6588,190.6632 C420.290759,193.391979 416.084721,194.87579 411.75,194.8644 C407.899644,195.026727 404.126307,193.752697 401.1624,191.2896 Z" id="Path" fill="#83DDBA"></path>
                <path d="M409.428,184.5432 C409.428,184.5432 417.1536,191.8008 422.7876,188.6652 C422.7876,188.6652 421.074,184.77 414.1476,184.5432 L409.428,184.5432 Z" id="Path" fill="#323144" opacity="0.07"></path>
                <path d="M411.9336,195.5592 C404.130553,195.5592 397.095843,190.858758 394.109747,183.649682 C391.12365,176.440606 392.774225,168.142601 398.291813,162.625013 C403.809401,157.107425 412.107406,155.45685 419.316482,158.442947 C426.525558,161.429043 431.226,168.463753 431.226,176.2668 C431.214096,186.916764 422.583564,195.547296 411.9336,195.5592 Z M411.9336,158.0544 C401.875169,158.0544 393.7212,166.208369 393.7212,176.2668 C393.7212,186.325231 401.875169,194.4792 411.9336,194.4792 C421.992031,194.4792 430.146,186.325231 430.146,176.2668 C430.144018,166.206859 421.993536,158.049933 411.9336,158.04 L411.9336,158.0544 Z" id="Shape" fill="#7F7EFE"></path>
                <path d="M407.7468,173.4588 L407.7468,174.762 L408.582,175.068 L408.582,172.0476 C410.800141,172.726529 413.155673,172.82323 415.422,172.3284 L415.422,174.762 L416.0916,174.762 L416.3292,172.8504 C416.3292,172.8504 416.9268,169.992 414.6228,168.5304 C414.6228,168.5304 411.876,166.7772 409.194,168.7788 C408.519142,169.158633 408.058935,169.830322 407.9484,170.5968 L407.7468,173.4588 Z" id="Path" fill="#404047" opacity="0.16"></path>
                <path d="M278.766,277.848 C278.766,277.848 280.6596,271.3464 288.6048,271.0296 C296.55,270.7128 298.2024,282.4704 283.8924,281.4084 L278.766,277.848 Z" id="Path" fill="#FF9680"></path>
                <path d="M242.4456,284.2956 L254.88,304.2972 L278.7516,277.002 L285.0732,281.3904 L261.864,318.1752 C260.526778,320.295314 258.354987,321.750696 255.885677,322.181454 C253.416367,322.612211 250.880079,321.978127 248.904,320.436 L234.018,308.8404 L242.4456,284.2956 Z" id="Path" fill="#83DDBA"></path>
                <path d="M193.014,266.616 C193.014,266.616 177.3936,282.5748 170.7336,305.0676 C170.7336,305.0676 161.7336,316.9692 174.2688,322.488 C186.804,328.0068 196.1208,320.6592 193.014,301.968 C189.9072,283.2768 193.014,266.616 193.014,266.616 Z" id="Path" fill="#83DDBA"></path>
                <path d="M192.0276,267.2856 C187.398,270.6264 183.1068,276.714 184.4388,287.6976 L185.9184,322.488 L236.646,322.488 C236.646,322.488 252.846,266.0832 226.5876,264.8376 L205.3476,263.574 C200.613087,263.24459 195.909511,264.555235 192.0276,267.2856 L192.0276,267.2856 Z" id="Path" fill="#29DD9C"></path>
                <path d="M270.7668,319.734 L266.958,319.734 L266.958,319.014 L270.7668,319.014 C272.322758,319.012017 273.583617,317.751158 273.5856,316.1952 L273.5856,313.3836 C273.585601,311.826236 272.324162,310.563186 270.7668,310.5612 L267.3036,310.5612 L267.3036,309.8412 L270.7668,309.8412 C272.721807,309.843187 274.3056,311.428592 274.3056,313.3836 L274.3056,316.1952 C274.303616,318.148803 272.720403,319.732016 270.7668,319.734 L270.7668,319.734 Z" id="Path" fill="#C5C5FF"></path>
                <rect id="Rectangle" fill="#7F7EFE" x="251.9064" y="305.7624" width="16.2792" height="16.9092"></rect>
                <polygon id="Path" fill="#6D6DBC" opacity="0.33" points="251.9064 320.6664 268.1892 317.2716 268.1892 322.6752 251.9064 322.6752"></polygon>
                <rect id="Rectangle" fill="#7F7EFE" x="145.6308" y="322.488" width="135.6516" height="9.144" rx="1.0908"></rect>
                <rect id="Rectangle" fill="#C5C5FF" x="147.564" y="331.614" width="130.7916" height="10.5588"></rect>
                <path d="M193.8564,220.32 C189.9288,226.62 183.0564,240.4512 191.016,250.272 L234.0288,254.4552 C234.0288,254.4552 245.7,237.6396 235.1736,218.0268 C225.2376,199.5156 207.0936,196.4592 197.7336,213.6672 C196.4988,215.9028 195.2136,218.1276 193.8564,220.32 Z" id="Path" fill="#404047"></path>
                <polygon id="Path" fill="#6D6DBC" opacity="0.1" points="147.564 331.614 147.564 338.8104 278.3556 335.2104 278.3556 331.614"></polygon>
                <path d="M181.4796,315.7884 L241.5996,315.7884 L241.5996,320.904 C241.5996,321.78876 240.88236,322.506 239.9976,322.506 L183.0816,322.506 C182.19684,322.506 181.4796,321.78876 181.4796,320.904 L181.4796,315.7884 Z" id="Path" fill="#5A82A7"></path>
                <path d="M181.4796,315.7884 L241.5996,315.7884 L241.5996,320.904 C241.5996,321.78876 240.88236,322.506 239.9976,322.506 L183.0816,322.506 C182.19684,322.506 181.4796,321.78876 181.4796,320.904 L181.4796,315.7884 Z" id="Path" fill="#6D6DBC"></path>
                <path d="M180.972,311.832 L176.4504,275.0076 C176.269728,273.416269 176.780633,271.823917 177.853424,270.634759 C178.926214,269.445601 180.45773,268.773985 182.0592,268.790102 L241.8732,268.790102 C243.494674,268.77365 245.043336,269.462628 246.116561,270.678212 C247.189786,271.893797 247.681549,273.515899 247.464,275.1228 L242.1504,311.8428 L180.972,311.832 Z" id="Path" fill="#C5C5FF"></path>
                <path d="M181.4796,315.7884 L177.0336,278.964 C176.84415,277.387669 177.338717,275.80566 178.392272,274.617916 C179.445826,273.430173 180.957525,272.7504 182.5452,272.7504 L241.3116,272.7504 C242.919434,272.7504 244.448342,273.44724 245.502308,274.661442 C246.556274,275.875644 247.031611,277.487387 246.8052,279.0792 L241.5852,315.7992 L181.4796,315.7884 Z" id="Path" fill="#7F7EFE"></path>
                <path d="M181.4796,315.7884 L241.5996,315.7884 L246.456,281.6568 C246.456,281.6568 216.3132,307.5156 180.4464,307.1052 L181.4796,315.7884 Z" id="Path" fill="#6D6DBC" opacity="0.33"></path>
                <circle id="Oval" fill="#6D6DBC" opacity="0.33" cx="214.0056" cy="294.2676" r="4.0212"></circle>
                <circle id="Oval" fill="#FEFFFF" cx="214.0056" cy="292.6908" r="4.0212"></circle>
                <path d="M203.8572,231.3756 C203.8572,231.3756 199.3644,254.6784 214.1424,253.7424 C225.216,253.044 227.628,242.3664 228.1392,237.0492 C228.349962,235.022158 228.753794,233.019872 229.3452,231.0696 C230.814,226.1088 232.4124,216.3096 224.2044,211.6296 C212.9508,205.1748 204.858,218.448 203.8572,231.3756 Z" id="Path" fill="#FF9680"></path>
                <polygon id="Path" fill="#FF9680" points="208.5408 248.2092 204.7932 263.5416 218.0268 264.3264 218.0268 248.076"></polygon>
                <path d="M163.08,314.8128 C158.2884,315.72 155.2536,309.8592 158.8212,306.5328 C160.5276,304.9416 163.1664,303.7248 167.2056,304.182 C177.0048,305.2944 175.4424,313.758 169.6536,313.758 C167.2308,313.7544 165.0492,314.4384 163.08,314.8128 Z" id="Path" fill="#FF9680"></path>
                <path d="M156.06,322.488 C156.06,322.488 154.944,313.2468 163.62,311.832 C172.296,310.4172 175.32,316.512 174.258,322.488 L156.06,322.488 Z" id="Path" fill="#7F7EFE"></path>
                <polygon id="Path" fill="#C5C5FF" points="156.3012 319.1472 174.348 319.1472 174.348 322.488 156.1392 322.488"></polygon>
                <path d="M207.6228,251.9604 C207.6228,251.9604 211.3452,255.1464 218.0268,253.0008 L218.0268,255.8988 C218.0268,255.8988 210.618,258.7788 206.9244,254.8188 L207.6228,251.9604 Z" id="Path" fill="#212123" opacity="0.08"></path>
                <path d="M203.8572,231.3756 C203.8572,231.3756 214.1892,227.9268 219.1968,219.7728 C219.1968,219.7728 221.5332,237.6756 230.5332,237.1608 C230.5332,237.1608 237.0132,230.8464 234.0288,223.3476 C231.0444,215.8488 224.8164,205.0128 212.4756,207.4608 C200.1348,209.9088 203.8572,231.3756 203.8572,231.3756 Z" id="Path" fill="#404047"></path>
                <path d="M45.7848,211.5432 C35.2944,211.5432 27.1944,208.3032 21.708,201.8916 C10.7964,189.1476 14.0652,167.9796 14.1012,167.7672 L15.1812,167.94 C15.1488,168.1488 11.9592,188.82 22.5468,201.1932 C27.8676,207.4032 35.7912,210.5172 46.0944,210.4596 L46.0944,211.5396 L45.7848,211.5432 Z" id="Path" fill="#7F7EFE"></path>
                <path d="M120.7044,179.5068 L119.79,178.9308 C128.5524,164.9268 118.5336,150.7284 118.4292,150.588 L119.3076,149.9544 C119.412,150.12 129.852,164.88 120.7044,179.5068 Z" id="Path" fill="#7F7EFE"></path>
                <path d="M68.1372,175.0068 C56.4264,159.804 54.2088,145.4868 54.4104,136.1268 C54.6264,125.9784 57.5784,119.5272 57.7044,119.2572 L58.6836,119.7108 C58.6512,119.7756 55.6884,126.2664 55.4868,136.2024 C55.2996,145.3644 57.492,159.4224 68.994,174.3624 L68.1372,175.0068 Z" id="Path" fill="#7F7EFE"></path>
                <path d="M161.6148,232.3548 C147.5424,232.3548 134.5608,227.4264 134.3952,227.3616 L134.784,226.3536 C134.9928,226.4364 155.7216,234.2988 172.962,229.9896 L173.2248,231.0372 C169.422724,231.946572 165.523964,232.389036 161.6148,232.3548 Z" id="Path" fill="#7F7EFE"></path>
                <path d="M169.56,227.7648 L170.9028,234.45 C170.961747,234.747951 171.167559,234.995786 171.449611,235.108461 C171.731664,235.221137 172.051587,235.183325 172.2996,235.008 L178.6428,230.5404 C178.92461,230.341078 179.067594,229.998138 179.010848,229.657659 C178.954101,229.317179 178.707622,229.03915 178.3764,228.942 L170.6904,226.7244 C170.388838,226.638106 170.064101,226.715041 169.833309,226.927458 C169.602516,227.139876 169.498964,227.45713 169.56,227.7648 Z" id="Path" fill="#6D6DBC"></path>
                <path d="M198.8208,190.26 C181.116,177.1632 177.9408,163.5444 178.416,154.4256 C178.9164,144.5328 183.5532,137.8656 183.7512,137.5776 L184.6332,138.2004 C181.553308,143.115318 179.783481,148.737123 179.4924,154.53 C178.866,167.2092 185.76,179.28 199.4616,189.3924 L198.8208,190.26 Z" id="Path" fill="#7F7EFE"></path>
                <path d="M198.9756,185.256 L194.4,190.296 C194.202401,190.520504 194.129784,190.828768 194.206395,191.117867 C194.283006,191.406966 194.498753,191.638814 194.7816,191.736 L202.1472,194.1732 C202.474496,194.28207 202.835226,194.193488 203.074866,193.945399 C203.314506,193.697311 203.390541,193.333729 203.2704,193.0104 L200.4804,185.5116 C200.363865,185.223135 200.106091,185.015724 199.799369,184.963625 C199.492648,184.911526 199.180847,185.022192 198.9756,185.256 L198.9756,185.256 Z" id="Path" fill="#6D6DBC"></path>
                <path d="M52.83,92.2608 C52.83,92.2608 57.6792,90.7056 60.9228,92.2608 L60.8724,91.7712 C60.7382092,90.4682197 59.8648629,89.3593643 58.6296,88.9236 L57.9852,88.6968 C57.0516692,88.3670604 56.0206578,88.4617452 55.1628,88.956 L54.5292,89.316 C53.4783192,89.922726 52.8306788,91.0437477 52.83,92.2572 L52.83,92.2608 Z" id="Path" fill="#404047"></path>
                <path d="M52.6608,94.5576 L52.7436,95.868 L53.6688,95.7744 L53.6688,94.6944 C53.6713601,93.7736387 53.9946986,92.8825483 54.5832,92.1744 L54.9072,91.7856 C54.9072,91.7856 53.5392,91.692 52.83,92.2608 C52.83,92.2608 52.6464,94.284 52.6608,94.5576 Z" id="Path" fill="#404047" opacity="0.24"></path>
                <path d="M61.1568,94.1868 L60.9228,95.8644 L60.2676,95.8644 L60.3216,94.7844 C60.2995817,94.0026295 59.9525253,93.265461 59.364,92.7504 L59.04,91.692 C59.710814,91.7505429 60.3613564,91.9518428 60.948,92.2824 C61.0962712,92.9060908 61.1664094,93.5457991 61.1568,94.1868 Z" id="Path" fill="#404047" opacity="0.24"></path>
                <path d="M100.3212,127.7604 L100.44,129.6288 C100.44,129.6288 100.854,126.2304 101.9844,125.8524 C103.1148,125.4744 108.6372,127.1016 108.6372,127.1016 L108.8856,127.1016 C108.8856,127.1016 110.574,123.7284 108.8856,121.9356 C107.1972,120.1428 101.7864,118.7748 99.6732,121.8888 C98.5932,123.4656 99.3888,127.1016 99.3888,127.1016 C99.3888,127.1016 100.296,127.3932 100.3212,127.7604 Z" id="Path" fill="#E8C05B"></path>
                <circle id="Oval" fill="#C5C5FF" opacity="0.12" cx="232.2144" cy="19.3032" r="18.7524"></circle>
                <path d="M187.0992,112.05 C172.1124,107.28 166.824,96.9732 165.024,89.1504 C163.838044,83.9082488 163.732701,78.4794131 164.7144,73.1952 L165.7692,73.4292 C164.839439,78.5706076 164.947151,83.8460285 166.086,88.9452 C168.606,99.9036 175.806,107.3304 187.4268,111.0204 L187.0992,112.05 Z" id="Path" fill="#7F7EFE"></path>
                <path d="M227.3868,17.0928 C227.3868,17.0928 226.7316,18.5544 225.99,20.0484 C224.46,23.1336 227.7576,24.6888 231.9696,24.408 C236.1816,24.1272 239.2308,23.8392 239.5944,21.7188 C239.958,19.5984 238.32,19.3572 238.32,13.5072 C238.32,7.6572 226.6704,14.8356 227.3868,17.0928 Z" id="Path" fill="#404047"></path>
                <polygon id="Path" fill="#9F605F" points="231.3324 19.7676 230.0832 26.6976 233.406 26.9244 233.8524 20.3472"></polygon>
                <path d="M229.0392,14.7384 C229.0392,14.7384 227.3292,21.7332 230.6088,22.716 C233.8884,23.6988 236.1996,22.0932 236.4552,15.7716 C236.7108,9.45 229.4532,11.9484 229.0392,14.7384 Z" id="Path" fill="#BE706C"></path>
                <path d="M228.8016,15.9876 C228.8016,15.9876 228.1284,14.5944 227.0628,15.7428 C225.9972,16.8912 228.7908,18.594 228.7908,18.594 L228.8016,15.9876 Z" id="Path" fill="#BE706C"></path>
                <path d="M236.1276,16.4844 C236.1276,16.4844 236.9844,15.1992 237.888,16.4844 C238.7916,17.7696 235.8,19.08 235.8,19.08 L236.1276,16.4844 Z" id="Path" fill="#BE706C"></path>
                <path d="M230.1768,26.1792 L233.4384,26.4024 C233.4384,26.4024 236.4012,25.2864 237.7224,27.5976 C239.0436,29.9088 239.5944,36.5364 239.5944,36.5364 C239.5944,36.5364 231.6924,40.914 222.48,35.28 C222.48,35.28 223.7112,23.436 230.1768,26.1792 Z" id="Path" fill="#29DD9C"></path>
                <path d="M231.7932,26.28 C231.7932,26.28 234.2304,32.256 239.0364,32.04 C239.0364,32.04 238.3596,26.82 236.3508,26.37 C235.621789,26.0650587 234.811085,26.0155791 234.0504,26.2296 L231.7932,26.28 Z" id="Path" fill="#323144" opacity="0.07"></path>
                <path d="M171.8316,50.22 L172.5192,52.0848 L173.124,50.2848 C173.270964,49.8490364 173.695106,49.5687469 174.1536,49.6044 L175.5432,49.7088 C176.341229,49.7699854 177.142771,49.7699854 177.9408,49.7088 L178.7328,49.6404 C179.302758,49.6035851 179.802843,50.0169044 179.874,50.5836 L180.0072,51.8148 L181.0044,50.1336 L181.4616,47.07 C181.4616,47.07 182.79,45.63 180.5832,44.208 C178.3764,42.786 178.0956,43.8012 177.0552,42.408 C176.0148,41.0148 173.4372,41.778 173.4372,42.8184 C173.4372,43.8588 172.5336,45.144 171.5076,44.6184 C170.4816,44.0928 168.3072,47.016 171.8316,50.22 Z" id="Path" fill="#E26D44"></path>
                <path d="M227.8116,12.3732 C227.5272,13.194 228.0204,14.418 227.9124,15.2892 C227.8404,15.8544 227.8116,17.3988 228.8016,17.7552 C229.2156,17.9028 229.0536,17.3412 229.2876,15.2892 C229.5576,12.9456 230.3208,14.0436 232.488,13.7916 C237.2148,13.2372 235.278,15.9516 235.6272,17.5608 C235.6596,17.7228 235.7568,17.7984 235.9584,17.7588 C236.6784,17.6112 236.6568,16.2072 237.1284,15.9228 C238.176,15.2892 239.058,13.2696 237.4056,10.7244 C235.8504,8.3268 230.2164,5.4288 227.8116,12.3732 Z" id="Path" fill="#404047"></path>
                <path d="M232.2,38.5956 C221.545102,38.5956 212.9076,29.9580983 212.9076,19.3032 C212.9076,8.64830169 221.545102,0.0108 232.2,0.0108 C242.854898,0.0108 251.4924,8.64830169 251.4924,19.3032 C251.480496,29.9531637 242.849964,38.5836962 232.2,38.5956 L232.2,38.5956 Z M232.2,1.08 C222.141569,1.08 213.9876,9.23396922 213.9876,19.2924 C213.9876,29.3508308 222.141569,37.5048 232.2,37.5048 C242.258431,37.5048 250.4124,29.3508308 250.4124,19.2924 C250.402478,9.23808207 242.254318,1.08992236 232.2,1.08 Z" id="Shape" fill="#7F7EFE"></path>
                <path d="M229.32,85.2264 L228.3084,84.8484 C236.2572,63.5148 232.542,43.254 232.5024,43.0524 L233.5824,42.8508 C233.5932,43.056 237.3624,63.6156 229.32,85.2264 Z" id="Path" fill="#7F7EFE"></path>
                <path d="M264.3264,107.8452 L264.1788,106.7652 C270.2736,105.93 274.9788,103.32 278.19,99.0144 C284.8284,90.0972 282.834,76.752 282.8124,76.6188 L283.8924,76.4496 C283.9824,77.0148 285.9768,90.3816 279.072,99.6588 C275.6736,104.2164 270.72,106.9668 264.3264,107.8452 Z" id="Path" fill="#7F7EFE"></path>
                <path d="M304.8948,257.8788 C297.864,257.8788 289.4148,255.78 279.5904,251.5896 C272.529015,248.540148 265.728764,244.918485 259.2576,240.7608 L259.8588,239.8644 C260.2188,240.0984 295.3476,263.3004 314.7912,254.9628 C321.2712,252.1908 325.3284,246.1752 326.9052,237.078 L327.9852,237.2652 C326.34,246.744 322.0488,253.0296 315.2304,255.9564 C312.2244,257.238 308.7756,257.8788 304.8948,257.8788 Z" id="Path" fill="#7F7EFE"></path>
                <path d="M259.3548,244.08 L262.08,237.816 C262.202335,237.53709 262.174686,237.215145 262.006587,236.961177 C261.838488,236.707209 261.552938,236.555967 261.2484,236.559536 L253.4904,236.6172 C253.146081,236.620323 252.833984,236.820399 252.687405,237.131975 C252.540826,237.443551 252.585676,237.81155 252.8028,238.0788 L257.8428,244.2816 C258.040637,244.520226 258.347347,244.640252 258.654598,244.599286 C258.961849,244.558319 259.226397,244.362125 259.3548,244.08 L259.3548,244.08 Z" id="Path" fill="#6D6DBC"></path>
                <polygon id="Path" fill="#404047" points="327.0384 112.3812 325.4652 113.9796 330.0912 113.9796 328.4856 112.4064"></polygon>
                <path d="M322.7292,108.36 C322.7292,108.36 323.0568,110.43 323.9316,110.9664 L324.4608,107.4132 C324.4608,107.4132 328.8096,109.3644 331.0056,106.8156 L331.9524,106.74 C331.9524,106.74 332.9244,104.112 331.5708,102.6972 C330.2172,101.2824 321.7716,98.784 322.7292,108.36 Z" id="Path" fill="#404047"></path>
                <polygon id="Path" fill="#EA8373" points="392.85 116.1576 391.6044 123.0876 394.9236 123.3108 395.3736 116.7336"></polygon>
                <path d="M395.118,120.438 L401.112,118.8216 C401.112,118.8216 398.2572,116.7192 398.952,114.0264 L395.9964,114.9804 L395.1216,119.1024 L395.118,120.438 Z" id="Path" fill="#E8C05B"></path>
                <polygon id="Path" fill="#E8C05B" points="398.5668 111.8628 398.9484 113.328 397.3032 114.2928 397.8144 111.2724"></polygon>
                <path d="M390.5604,111.1248 C390.5604,111.1248 388.8504,118.1232 392.1264,119.1024 C395.4024,120.0816 397.7172,118.4796 397.9728,112.158 C398.2284,105.8364 390.96,108.3348 390.5604,111.1248 Z" id="Path" fill="#FF9680"></path>
                <path d="M390.3228,112.374 C390.3228,112.374 389.646,110.9808 388.5804,112.1292 C387.5148,113.2776 390.312,114.9804 390.312,114.9804 L390.3228,112.374 Z" id="Path" fill="#FF9680"></path>
                <path d="M397.6488,112.8744 C397.6488,112.8744 398.5056,111.5856 399.4056,112.8744 C400.3056,114.1632 397.3032,115.4628 397.3032,115.4628 L397.6488,112.8744 Z" id="Path" fill="#FF9680"></path>
                <path d="M391.698,122.5656 L394.9596,122.7888 C394.9596,122.7888 397.9188,121.6764 399.24,123.984 C400.5612,126.2916 401.112,132.9228 401.112,132.9228 C401.112,132.9228 393.192,137.304 384.0084,131.6592 C384.0084,131.6592 385.2288,119.8224 391.698,122.5656 Z" id="Path" fill="#29DD9C"></path>
                <path d="M393.3108,122.6772 C393.3108,122.6772 395.7516,128.6496 400.5576,128.4372 C400.5576,128.4372 399.8808,123.2136 397.872,122.7636 C397.141727,122.458666 396.329896,122.409195 395.568,122.6232 L393.3108,122.6772 Z" id="Path" fill="#323144" opacity="0.07"></path>
                <path d="M389.9052,111.8628 L390.3228,113.7852 C390.3228,113.7852 395.4384,114.8472 397.98,112.5252 C399.306902,111.336476 399.67668,109.40803 398.8836,107.8128 C397.5624,104.9184 388.2852,104.4 389.9052,111.8628 Z" id="Path" fill="#E8C05B"></path>
                <path d="M389.9052,111.8628 C389.9052,111.8628 389.43,115.2504 388.3392,116.1576 C387.574446,116.761096 386.7435,117.275606 385.8624,117.6912 L392.1516,120.438 L392.5584,119.2176 C392.5584,119.2176 389.3868,118.7532 390.582,113.7852 L389.9052,111.8628 Z" id="Path" fill="#E8C05B"></path>
                <path d="M305.406,154.6992 C296.8164,146.61 297.2772,137.7036 299.1744,131.6592 C300.501286,127.557355 302.604689,123.748987 305.37,120.4416 L306.18,121.1616 C303.517995,124.371177 301.486731,128.055057 300.1932,132.0192 C297.5832,140.3748 299.5848,147.7404 306.144,153.918 L305.406,154.6992 Z" id="Path" fill="#7F7EFE"></path>
                <path d="M363.9888,163.0404 C363.2076,163.0404 362.4156,163.0116 361.6056,162.9612 L361.6776,161.8812 C369.126,162.3672 375.1668,160.5456 379.6308,156.4632 C387.4212,149.3388 387.7956,137.6568 387.7992,137.538 L388.8792,137.5632 C388.8792,138.06 388.4868,149.8284 380.358,157.2588 C376.1568,161.1 370.6596,163.0404 363.9888,163.0404 Z" id="Path" fill="#7F7EFE"></path>
                <path d="M393.1812,135.2844 C382.526302,135.2844 373.8888,126.646898 373.8888,115.992 C373.8888,105.337102 382.526302,96.6996 393.1812,96.6996 C403.836098,96.6996 412.4736,105.337102 412.4736,115.992 C412.459717,126.641143 403.830343,135.270517 393.1812,135.2844 Z M393.1812,97.7796 C385.814972,97.7796 379.17407,102.216909 376.355136,109.022416 C373.536203,115.827924 375.094379,123.661402 380.303088,128.870112 C385.511798,134.078821 393.345276,135.636997 400.150784,132.818064 C406.956291,129.99913 411.3936,123.358228 411.3936,115.992 C411.379719,105.939324 403.233876,97.7934808 393.1812,97.7796 L393.1812,97.7796 Z" id="Shape" fill="#7F7EFE"></path>
                <path d="M388.9548,224.1108 C381.8988,224.1108 373.518,221.9508 363.8736,217.6308 L364.3164,216.6444 C380.7792,224.0352 393.4152,225.036 401.868,219.618 C412.3692,212.8932 412.6248,198.342 412.6248,198.198 L413.7048,198.198 C413.7048,198.3528 413.4384,213.4836 402.4512,220.518 C398.7072,222.912 394.2,224.1108 388.9548,224.1108 Z" id="Path" fill="#7F7EFE"></path>
            </g>
        </g>
    </g>
</svg>