<?xml version="1.0" encoding="UTF-8"?>
<svg width="460px" height="380px" viewBox="0 0 460 380" version="1.1" xmlns="http://www.w3.org/2000/svg" xmlns:xlink="http://www.w3.org/1999/xlink">
    <!-- Generator: Sketch 63.1 (92452) - https://sketch.com -->
    <title>img-retouch-learn</title>
    <desc>Created with Sketch.</desc>
    <g id="Page-2" stroke="none" stroke-width="1" fill="none" fill-rule="evenodd">
        <g id="draft-v11.2" transform="translate(-890.000000, -7323.000000)">
            <g id="Group-45" transform="translate(175.000000, 7283.000000)">
                <g id="Group-20" transform="translate(30.000000, 40.000000)">
                    <g id="img-retouch-learn" transform="translate(685.000000, 0.000000)">
                        <g id="Group-7" transform="translate(0.000000, 160.000000)">
                            <path d="M22.2462367,220 C9.96094491,220 0,210.039908 0,197.753974 L0,42.2456466 C0,29.959713 9.96094491,20 22.2462367,20 L177.757555,20 C190.042847,20 200,29.959713 200,42.2456466 L200,197.753974 C200,210.039908 190.042847,220 177.757555,220 L22.2462367,220 Z" id="Clip-3" fill="#C7C7F5"></path>
                            <g id="Group-27" transform="translate(39.000000, 0.000000)">
                                <path d="M121.39182,134.998201 L112.03478,134.998201 C111.8623,134.623596 111.724855,134.297501 111.60897,134.036086 C108.83312,127.479151 94.52267,112.443746 94.52267,112.443746 C94.52267,112.443746 94.52267,112.451831 94.52267,112.476086 L94.514585,112.492256 L94.514585,112.511121 L94.49033,112.575801 C94.482245,112.608141 94.47416,112.648566 94.45799,112.697076 L94.44182,112.777926 C94.433735,112.802181 94.42565,112.818351 94.417565,112.842606 C93.830055,115.033641 90.946405,125.948391 89.50458,134.998201 L26.17747,134.998201 C26.03194,134.160056 25.862155,133.359641 25.66542,132.618516 C25.08869,130.370886 24.69522,128.147511 24.444585,126.069666 C24.4365,125.964561 24.42033,125.867541 24.412245,125.762436 C24.363735,125.379746 24.320615,124.997056 24.288275,124.619756 C23.743885,118.936001 24.15083,114.578186 24.18317,114.138901 C24.0053,114.521591 22.725175,119.213586 21.048885,125.002446 C20.127195,128.179851 19.08423,131.691436 18.04935,134.998201 L3.09749,134.998201 L21.862775,80.858616 C22.277805,80.5327905 27.14767,78.1789775 30.69968,76.4849005 C34.324455,74.758214 38.69844,72.224914 42.646615,70.058673 C44.667865,68.9507585 46.57323,67.9487575 48.22796,67.1914625 L48.478595,67.077464 L48.478595,67.0696485 C51.20863,65.823211 53.02506,65.0004275 53.02506,65.0004275 L53.033145,65.0004275 C53.097825,64.992612 53.529025,64.9513785 54.213555,64.886429 C58.024285,64.519909 69.85264,63.412264 73.811595,63.1845365 C74.134995,63.1597425 74.41258,63.151927 74.625485,63.143303 C74.803355,63.1354875 74.943495,63.1354875 75.024345,63.143303 C75.520225,63.176182 77.96459,64.0232205 81.16625,65.244864 C81.287525,65.285828 81.4088,65.334338 81.530075,65.383387 C81.686385,65.440521 81.831915,65.4973855 81.988225,65.55425 C82.26581,65.660433 82.548785,65.7663465 82.834455,65.880345 C83.405795,66.1080725 83.998695,66.336339 84.59429,66.572421 C84.796415,66.6540795 85.00932,66.7354685 85.222225,66.8168575 C91.630935,69.3582425 98.977505,72.510045 100.72117,73.7645675 C101.877325,74.5870815 105.46976,81.3558435 109.63084,89.7284 C114.10993,104.078466 119.59156,124.784151 121.39182,134.998201" id="Fill-95" fill="#DECBC4"></path>
                                <path d="M74.921935,61.3028875 C74.75215,69.815584 58.26953,74.472544 58.26953,74.472544 C58.26953,74.472544 51.37572,65.82914 53.022365,65.0015055 C53.669165,64.676219 53.933275,63.3861225 54.014125,61.939716 C54.08689,60.562571 54.00065,59.043669 53.9198,58.0785895 C53.87129,57.4765265 53.82278,57.0895245 53.82278,57.0895245 C53.82278,57.0895245 56.17821,54.6047345 59.17505,51.6445465 C64.40874,46.4679905 71.607085,39.836943 71.617865,42.4750785 C71.617865,42.6146795 71.599,42.7817695 71.558575,42.975001 C70.291925,48.9118165 74.921935,61.3028875 74.921935,61.3028875" id="Fill-96" fill="#FF9680" fill-rule="nonzero"></path>
                                <path d="M68.572515,48.8304275 L68.572515,48.8320445 C68.540175,48.8816325 67.839475,49.9272925 66.648285,51.4284075 C64.11768,54.610933 59.361005,59.8395025 54.014125,61.939716 C54.08689,60.562571 54.00065,59.043669 53.9198,58.0785895 C53.372715,58.0651145 52.82563,58.001243 52.28124,57.881585 C53.750015,55.320257 55.86559,52.63442 55.86559,52.63442 L59.17505,51.6445465 L68.572515,48.8304275" id="Fill-97" fill="#212123" fill-rule="nonzero" opacity="0.08"></path>
                                <path d="M71.736445,42.590155 C70.31079,45.6918305 68.9579,47.93973 68.572515,48.8304275 L68.572515,48.8320445 C68.32188,49.4120085 67.64274,50.357684 66.648285,51.4284075 C63.931725,54.3546385 58.881295,58.2138785 53.9198,58.0785895 C53.372715,58.0651145 52.82563,58.001243 52.28124,57.881585 C50.278855,57.4436475 47.912645,56.512525 46.61096,53.963055 C36.32684,33.8311355 43.773125,17.3689975 43.773125,17.3689975 C43.773125,17.3689975 71.887365,9.41820849 76.285605,17.881856 C79.374075,23.818402 75.08633,35.302336 71.736445,42.590155" id="Fill-98" fill="#FF9680" fill-rule="nonzero"></path>
                                <path d="M43.773125,17.3689975 C43.773125,17.3689975 41.16167,17.224276 40.51487,12.2738305 C39.876155,7.38267499 41.16706,6.02735949 41.16706,6.02735949 C41.16706,6.02735949 52.774425,1.16854399 56.94359,0.536566495 C61.11006,-0.0954110051 71.359145,-0.702055505 73.763085,2.04522749 C73.763085,2.04522749 79.600455,0.688833995 81.190505,10.378976 C83.713025,25.751795 72.593455,40.6791305 72.593455,40.6791305 C72.593455,40.6791305 72.68778,30.6359435 70.47249,29.305422 C68.2572,27.9743615 66.346445,31.1393695 66.346445,31.1393695 L61.81615,31.9505645 C61.81615,31.9505645 68.696485,17.092221 60.4417,16.541902 C52.186915,15.991583 48.49746,18.230589 43.773125,17.3689975" id="Fill-99" fill="#020D60"></path>
                                <path d="M66.470415,27.1356775 C66.901615,22.7110265 74.90307,21.02207 74.366765,25.6593565 C73.83046,30.297182 69.89037,34.752556 68.071245,34.595707 C66.249425,34.438858 66.141625,30.5082005 66.470415,27.1356775" id="Fill-100" fill="#FF9680" fill-rule="nonzero"></path>
                                <path d="M113.304125,90.1436995 C110.69806,81.7951285 108.442345,75.189953 107.439805,74.4728135 C105.688055,73.2185605 91.8115,69.3986675 85.222225,66.8168575 C85.00932,66.7354685 84.796415,66.6540795 84.59429,66.572421 C83.998695,66.336339 83.405795,66.1080725 82.834455,65.880345 C82.548785,65.7663465 82.26581,65.660433 81.988225,65.55425 C81.831915,65.4973855 81.686385,65.440521 81.530075,65.383387 C81.4088,65.334338 81.287525,65.285828 81.16625,65.244864 L81.131215,65.277204 C80.5464,65.9372095 77.498355,69.3986675 73.860105,74.5789965 C67.04984,84.254855 58.180595,99.933826 59.54157,114.408401 C59.980855,119.049191 60.51716,125.719316 61.42268,133.206026 C61.48736,133.801621 61.560125,134.394521 61.640975,134.998201 L92.363975,134.998201 C92.73858,127.161141 93.40694,116.841986 94.417565,112.842606 C94.42565,112.818351 94.433735,112.802181 94.44182,112.777926 L94.45799,112.697076 C94.466075,112.656651 94.482245,112.616226 94.49033,112.575801 L94.514585,112.511121 L94.514585,112.492256 L94.52267,112.476086 C94.52267,112.476086 101.958175,124.099621 102.340865,134.998201 L121.67749,134.998201 C120.731545,124.873086 117.77513,104.471936 113.304125,90.1436995" id="Fill-101" fill="#020D60"></path>
                                <path d="M48.35732,67.289291 C48.35732,67.289291 46.036925,75.0107355 43.040085,94.2896875 L43.040085,94.297503 C42.932285,94.9413385 42.835265,95.600805 42.73016,96.276711 C42.722075,96.3502845 42.705905,96.431404 42.69782,96.5130625 C42.62236,96.953156 42.55768,97.40915 42.493,97.865144 C42.484915,97.9220085 42.47683,97.9710575 42.468745,98.0281915 C42.420235,98.3294925 42.371725,98.6388785 42.3313,98.9563495 C42.215415,99.713914 42.102225,100.496003 41.989035,101.286177 C40.86522,109.153151 39.364105,121.655256 37.84143,134.998201 L25.69776,134.998201 C25.037485,131.292576 24.42033,127.918436 24.46884,125.606126 C24.444585,125.654636 24.428415,125.713926 24.412245,125.762436 C23.442045,128.449351 22.374825,131.373426 21.291435,134.216651 C21.194415,134.475371 21.097395,134.736786 20.99768,134.998201 L0.065615,134.998201 L20.91683,80.4514015 C21.33186,80.125576 26.7003,77.23438 30.25231,75.548388 C33.957935,73.7807375 38.641845,71.6058725 42.79484,69.6918835 C44.781055,68.771541 46.645995,67.9164175 48.22796,67.1914625 L48.35732,67.289291" id="Fill-102" fill="#020D60"></path>
                                <path d="M76.59553,86.364501 L68.572515,90.893179 L72.00325,94.387516 L64.476115,134.998201 L61.640975,134.998201 C60.59801,126.786536 60.00511,119.415711 59.54157,114.408401 C57.447555,92.025079 79.78102,66.784248 81.16625,65.244864 C82.23886,65.6520785 83.39771,66.100257 84.59429,66.572421 L76.59553,86.364501" id="Fill-103" fill="#252F7D"></path>
                                <path d="M48.478595,67.077464 C48.478595,67.077464 45.481755,76.8595055 41.99712,101.286177 C40.873305,109.145066 39.364105,121.655256 37.84143,134.998201 L36.66102,134.998201 L35.106005,96.6273305 L38.92482,92.4894275 L35.52912,88.24615 L42.79484,69.6918835 C44.781055,68.771541 46.645995,67.9164175 48.22796,67.1914625 L48.478595,67.077464" id="Fill-104" fill="#252F7D"></path>
                                <path d="M81.5705,65.340806 L74.921935,61.3028875 C74.921935,61.3028875 74.73598,64.948953 58.26953,74.472544 L62.945355,87.6416615 L81.5705,65.340806" id="Fill-105" fill="#F5E2D9"></path>
                                <path d="M53.890155,63.1397995 C53.890155,63.1397995 54.148875,67.074769 58.26953,74.472544 L49.14426,86.368274 L48.48129,67.074769 L53.890155,63.1397995" id="Fill-106" fill="#F5E2D9"></path>
                                <path d="M58.29648,74.472544 C58.29648,74.472544 60.0644,81.54638 59.42838,83.526666 C59.42838,83.526666 55.539495,84.9412715 52.74478,83.173082 C52.74478,83.173082 54.72291,78.221289 58.29648,74.472544" id="Fill-107" fill="#7879F9"></path>
                                <path d="M56.15126,98.52488 C54.28632,111.230996 54.28632,124.083451 54.978935,134.998201 L47.184995,134.998201 C47.07989,133.459356 46.980175,131.853136 46.883155,130.176846 C45.433245,105.016326 54.326745,82.5362535 54.326745,82.5362535 L58.293785,81.5428765 C58.293785,81.5428765 57.016355,92.66056 56.15126,98.52488" id="Fill-108" fill="#7879F9"></path>
                                <path d="M24.719475,114.203581 C24.423025,120.240381 24.466145,125.600736 24.466145,125.600736 L24.466145,125.606126 C24.466145,125.633076 24.45806,125.797471 24.44728,126.066971 C24.433805,125.964561 24.42033,125.864846 24.40955,125.762436 C23.442045,128.452046 22.37213,131.370731 21.29413,134.216651 C21.043495,130.920666 20.97612,127.848366 21.05158,125.005141 C21.48278,108.077846 26.8081,99.2021335 26.8081,99.2021335 C25.58457,102.151541 24.999755,108.482096 24.719475,114.203581" id="Fill-109" fill="#252F7D"></path>
                            </g>
                            <polygon id="Fill-5" fill-opacity="0.56" fill="#7879F9" points="50 190 150 190 150 180 50 180"></polygon>
                            <polygon id="Fill-6" fill-opacity="0.56" fill="#7879F9" points="65 205 135 205 135 200 65 200"></polygon>
                            <polygon id="Fill-93" fill="#7879F9" points="90 160 110 160 110 155 90 155"></polygon>
                            <path d="M171,129 L171,148 L150,148 L150,145 L168,145 L168,129 L171,129 Z M32,129 L32,145 L50,145 L50,148 L29,148 L29,129 L32,129 Z M171,40 L171,59 L168,59 L168,43 L150,43 L150,40 L171,40 Z M50,40 L50,43 L32,43 L32,59 L29,59 L29,40 L50,40 Z" id="Combined-Shape"></path>
                        </g>
                        <g id="Group-7" transform="translate(260.000000, 160.000000)">
                            <path d="M22.2462367,220 C9.96094491,220 0,210.039908 0,197.753974 L0,42.2456466 C0,29.959713 9.96094491,20 22.2462367,20 L177.757555,20 C190.042847,20 200,29.959713 200,42.2456466 L200,197.753974 C200,210.039908 190.042847,220 177.757555,220 L22.2462367,220 Z" id="Clip-3" fill="#C7C7F5"></path>
                            <g id="Group-28" transform="translate(64.000000, 0.000000)">
                                <path d="M49.9666,3.28047684 C49.9666,3.28047684 62.1039,9.94349684 58.2525,26.3281168 C54.3962,42.7117568 52.9311,44.8751068 56.0622,51.4959868 C59.1933,58.1168668 61.9471,85.8601768 58.6053,90.9355968 C55.2684,96.0110168 21.4192,66.1788368 17.6609,42.3128968 C13.8977,18.4469568 22.3649,8.31081684 25.3686,4.52752684 C28.3723,0.744726842 39.265,-2.80336316 49.9666,3.28047684" id="Fill-79" fill="#020D60"></path>
                                <path d="M72.7516,138.696387 L59.7617,138.696387 C59.1345,132.288167 58.5514,127.827697 58.669,127.167177 C58.8601,126.078397 45.7428,91.6671668 44.5178,88.8212468 C43.2879,85.9826768 38.4761,78.3499468 37.8489,71.1626268 C37.2119,63.9753068 46.5856,61.0730368 46.5856,61.0730368 C59.2374,63.3392868 63.52,80.8386568 63.52,80.8386568 C63.52,80.8386568 68.8316,116.322987 71.5217,126.308697 C72.2126,128.868947 72.585,133.393117 72.7516,138.696387" id="Fill-80" fill="#FF9680" fill-rule="nonzero"></path>
                                <path d="M66.215,89.3847468 L46.8649,97.5412868 C46.8649,97.5412868 29.0828,53.4138468 43.9886,58.3407968 C58.8503,63.2525568 65.5339,72.4866068 66.215,89.3847468" id="Fill-81" fill="#EB4747"></path>
                                <path d="M61.9079,110.160747 C61.3444,114.541837 59.0267,130.061607 59.5461,134.251597 C59.6343,134.943477 59.9185,136.534017 60.3497,138.696387 L13.7017,138.696387 C14.9414,134.267767 16.0733,130.347767 16.7544,128.065837 C19.0231,120.552177 16.8524,118.541217 15.7058,112.530387 C15.2599,110.177407 13.6919,105.708117 11.9867,100.659647 C11.4134,98.9740468 10.8254,97.2169068 10.257,95.4524168 C8.2088,89.0912368 7.2533,82.5879568 6.6653,78.8031968 C3.8527,60.8584168 17.6511,59.1331268 17.6511,59.1331268 C22.7814,58.1869368 31.7435,55.4199068 31.7435,55.4199068 L45.7771,58.3383468 C45.7771,58.3383468 47.1099,58.8391268 49.0601,60.2782568 L49.065,60.2860968 C50.0058,60.9774868 51.0887,61.8839868 52.2255,63.0531268 C53.7592,64.6274968 56.8119,69.1350068 59.8548,74.0884168 C60.7858,75.6074168 61.7266,77.1656168 62.6086,78.6998068 C65.4604,83.6375368 67.489,87.6202568 67.4253,92.1125768 C67.3714,96.5338468 62.4714,105.780147 61.9079,110.160747" id="Fill-82" fill="#EB4747"></path>
                                <path d="M45.7771,58.3422668 C45.7771,58.3422668 54.5677,73.3681168 51.2994,74.4907068 C48.0262,75.6123168 30.7978,71.8182468 24.0652,57.6224568 C24.0652,57.6224568 35.3744,52.4818668 45.7771,58.3422668" id="Fill-83" fill="#FF9680" fill-rule="nonzero"></path>
                                <path d="M44.5178,65.2042268 C44.5178,65.2042268 36.7072,68.5092768 29.6365,57.6302968 C29.6365,57.6302968 31.5377,45.2773968 27.5197,38.1317268 C23.5017,30.9885068 45.0764,46.6974168 45.0764,46.6974168 C45.0764,46.6974168 44.7285,48.1703568 44.3659,50.3449768 C44.1846,51.4582568 43.9935,52.7523468 43.8465,54.1263068 C43.724,55.2709468 43.6309,56.4734068 43.5917,57.6709668 C43.4986,60.4492668 43.6995,63.2069868 44.5178,65.2042268" id="Fill-84" fill="#FF9680" fill-rule="nonzero"></path>
                                <path d="M25.1236,82.0337668 C23.5164,90.3025168 11.9818,100.661607 11.9818,100.661607 C11.4134,98.9711068 10.8254,97.2178868 10.2619,95.4558468 C18.2195,90.3779768 25.1236,82.0337668 25.1236,82.0337668" id="Fill-85" fill="#393D63"></path>
                                <path d="M22.2326,88.6144668 C21.5025,91.6279668 18.1362,122.150557 18.5037,123.191807 C18.7193,123.788627 20.3461,130.849037 21.9778,138.696387 L6.9201,138.696387 C5.3766,133.639587 4.4652,129.441267 4.6857,127.064277 C5.6461,116.768397 2.1573,83.9472168 2.1573,83.9472168 C2.1573,83.9472168 -0.9689,64.0943768 15.5049,61.6135068 C15.5049,61.6135068 25.2412,62.8943668 25.8292,70.0811968 C26.4172,77.2763568 22.9627,85.6092968 22.2326,88.6144668" id="Fill-86" fill="#FF9680" fill-rule="nonzero"></path>
                                <path d="M0.9421,92.8309168 L21.3849,97.6064568 C21.3849,97.6064568 37.6039,66.1175868 22.997,60.3679268 C7.6012,54.3076068 -2.7476,75.6539668 0.9421,92.8309168" id="Fill-87" fill="#EB4747"></path>
                                <path d="M48.0801,5.02830684 C48.0801,5.02830684 65.8475,11.5487368 54.5873,42.2109768 C43.3222,72.8727268 20.3363,36.9767968 23.8055,18.1348268 C27.2796,-0.706163158 48.0801,5.02830684 48.0801,5.02830684" id="Fill-88" fill="#FF9680" fill-rule="nonzero"></path>
                                <path d="M57.3117,23.6659468 C57.3117,23.6659468 47.9331,32.0371068 32.8852,32.4276368 C32.8852,32.4276368 29.367,41.0011668 28.7986,43.6324668 C28.7986,43.6324668 13.9271,18.1034668 31.0232,5.20813684 C48.1193,-7.68670316 63.6229,18.3175968 57.3117,23.6659468" id="Fill-89" fill="#020D60"></path>
                                <path d="M34.9138,34.2666068 C34.904,31.9959468 33.7525,26.7749968 30.3176,28.0587968 C26.8827,29.3425968 29.9599,40.0089168 32.2237,39.4689368 C32.2237,39.4689368 34.9383,39.6394568 34.9138,34.2666068" id="Fill-90" fill="#EEA987"></path>
                                <path d="M43.6113,57.1466668 C35.2617,54.8372968 32.0326,46.8787168 31.9346,46.6126468 C38.726,55.3865868 43.8465,54.1263068 43.8465,54.1263068 C43.724,55.2709468 43.7142,55.9858568 43.6113,57.1466668" id="Fill-91" fill="#212123" fill-rule="nonzero" opacity="0.08"></path>
                            </g>
                            <polygon id="Fill-5" fill-opacity="0.56" fill="#7879F9" points="50 190 150 190 150 180 50 180"></polygon>
                            <polygon id="Fill-6" fill-opacity="0.56" fill="#7879F9" points="65 205 135 205 135 200 65 200"></polygon>
                            <polygon id="Fill-93" fill="#7879F9" points="90 160 110 160 110 155 90 155"></polygon>
                            <path d="M171,129 L171,148 L150,148 L150,145 L168,145 L168,129 L171,129 Z M32,129 L32,145 L50,145 L50,148 L29,148 L29,129 L32,129 Z M171,40 L171,59 L168,59 L168,43 L150,43 L150,40 L171,40 Z M50,40 L50,43 L32,43 L32,59 L29,59 L29,40 L50,40 Z" id="Combined-Shape"></path>
                        </g>
                        <g id="Group-7" transform="translate(130.000000, 0.000000)">
                            <path d="M177.757555,19 L22.2462367,19 C15.8273481,19 10.0156849,21.6019452 5.80879868,25.8087199 C1.60206727,30.0153397 -1,35.8266593 -1,42.2456466 L-1,197.753974 C-1,204.172982 1.60208542,209.984417 5.80884412,214.191136 C10.0157282,218.39798 15.8273732,221 22.2462367,221 L177.757555,221 C184.176215,221 189.986703,218.398162 194.192597,214.19159 C198.39866,209.98485 201,204.173233 201,197.753974 L201,42.2456466 C201,35.8264083 198.398678,30.0149065 194.192643,25.8082655 C189.986747,21.6017637 184.17624,19 177.757555,19 Z" id="Clip-3" stroke="#8181FF" stroke-width="2" fill="#C7C7F5"></path>
                            <polygon id="Fill-5" fill-opacity="0.56" fill="#7879F9" points="50 190 150 190 150 180 50 180"></polygon>
                            <polygon id="Fill-6" fill-opacity="0.56" fill="#7879F9" points="65 205 135 205 135 200 65 200"></polygon>
                            <g id="Group" transform="translate(31.000000, 0.000000)">
                                <path d="M123.40944,90.0927195 C118.81912,77.9505195 107.79216,72.3754955 102.5864,70.6381515 C100.73616,70.0227115 97.42376,68.9419675 93.93496,67.8130075 C87.64728,65.7816635 80.77944,63.5719595 80.77944,63.5719595 L59.09008,63.5719595 C59.09008,63.5719595 51.57936,66.0893835 43.59432,68.8870875 L43.5904,68.8941435 C36.23648,71.4727195 28.49056,74.2845355 25.87984,75.5977355 C20.42712,78.3197835 11.25432,97.7810155 9.40016,100.011104 C8.44368,101.160448 4.18656,108.739768 7.10542736e-13,117.208536 L23.36712,117.208536 C25.83672,112.967096 27.73792,109.67704 27.73792,109.67704 C27.73792,109.67704 29.21576,112.919272 31.0072,117.208536 L105.87136,117.208536 C107.0552,112.228176 107.79216,105.955784 107.79216,105.955784 C107.79216,105.955784 111.80232,111.40772 116.18096,117.208536 L137.75664,117.208536 C132.50776,108.404608 125.99664,96.9464475 123.40944,90.0927195" id="Fill-21" fill="#020D60"></path>
                                <path d="M72.52,3.96679151 C72.52,3.96679151 89.48184,6.63866351 86.89856,33.1747115 C84.31528,59.7107595 69.3448,57.5355515 68.3452,57.5088955 C67.3456,57.4818475 53.31984,57.9926235 52.22616,25.5938235 C52.22616,25.5938235 51.74792,1.63595951 72.52,3.96679151" id="Fill-22" fill="#FF9680" fill-rule="nonzero"></path>
                                <path d="M87.1612,25.6788875 C87.1612,25.6788875 89.01536,23.6953675 89.69744,25.7035835 C90.37952,27.7117995 87.16512,36.6689995 87.04752,37.0876555 C87.04752,37.0876555 86.7104,37.8665595 86.26352,37.4377115 C85.82056,37.0092555 87.1612,25.6788875 87.1612,25.6788875" id="Fill-23" fill="#FF9680" fill-rule="nonzero"></path>
                                <path d="M52.68088,25.3433355 C52.68088,25.3433355 50.862,23.3241435 50.14464,25.3186395 C49.42336,27.3135275 52.43784,36.3295275 52.57112,36.7521035 C52.57112,36.7521035 52.89648,37.5372795 53.3512,37.1174475 C53.802,36.6972235 52.68088,25.3433355 52.68088,25.3433355" id="Fill-24" fill="#FF9680" fill-rule="nonzero"></path>
                                <path d="M87.15336,29.7490235 L84.72296,32.9951755 C84.72296,32.9951755 84.79352,25.8784155 84.40152,24.7627835 C84.01344,23.6471515 83.4176,20.2379275 83.09224,19.4339355 C82.76688,18.6303355 68.52552,14.6397755 55.95016,20.5989595 C55.95016,20.5989595 56.50288,25.7165195 55.29552,26.1720235 C54.09208,26.6271355 54.684,34.5067275 54.684,34.5067275 L52.6848,32.2539035 C52.6848,32.2539035 49.63112,11.8381515 50.38376,9.71037551 C51.14032,7.58220751 53.54328,-5.21071249 79.34864,2.38350351 C79.34864,2.38350351 87.39248,0.679871507 89.00752,6.23372751 C90.62256,11.7871915 87.15336,29.7490235 87.15336,29.7490235" id="Fill-25" fill="#020D60"></path>
                                <path d="M82.88448,63.0929355 L80.70888,62.0239515 C79.65048,59.6613675 80.43448,49.6928075 80.43448,49.6928075 C80.43448,49.6928075 58.83528,44.1950075 59.45072,48.3988155 C60.07008,52.6030155 57.59264,62.3700875 57.59264,62.3700875 L46.5108,67.8725915 C46.5108,67.8725915 58.31784,99.5755915 71.88496,95.4858555 C85.456,91.3965115 90.57944,66.7295195 90.57944,66.7295195 L82.88448,63.0929355" id="Fill-26" fill="#FF9680" fill-rule="nonzero"></path>
                                <path d="M59.76432,53.0687115 C59.76432,53.0687115 63.24136,57.5618155 69.28208,57.5618155 C73.25696,57.5618155 76.11072,56.4481435 80.06992,52.5885115 C80.06992,52.5885115 78.35296,59.9185195 69.30952,60.6002075 C69.30952,60.6002075 62.75528,61.4335995 59.76432,53.0687115" id="Fill-27" fill="#212123" fill-rule="nonzero" opacity="0.08"></path>
                            </g>
                            <polygon id="Fill-93" fill="#7879F9" points="90 160 110 160 110 155 90 155"></polygon>
                            <path d="M171,129 L171,148 L150,148 L150,145 L168,145 L168,129 L171,129 Z M32,129 L32,145 L50,145 L50,148 L29,148 L29,129 L32,129 Z M171,40 L171,59 L168,59 L168,43 L150,43 L150,40 L171,40 Z M50,40 L50,43 L32,43 L32,59 L29,59 L29,40 L50,40 Z" id="Combined-Shape" fill="#7879F9"></path>
                        </g>
                    </g>
                </g>
            </g>
        </g>
    </g>
</svg>