<?xml version="1.0" encoding="utf-8"?><svg xmlns="http://www.w3.org/2000/svg" xmlns:xlink="http://www.w3.org/1999/xlink"><symbol viewBox="0 0 98.58 98.58" id="advantages-1" xmlns="http://www.w3.org/2000/svg"><g transform="translate(-.51 -.588)"><circle cx="49.29" cy="49.29" r="49.29" transform="translate(.51 .588)" fill="#c5c5ff"/><circle cx="27.966" cy="27.966" r="27.966" transform="translate(21.858 24.39)" fill="#7575f7"/><path d="M57.864 25.566s-7.368 5.964 0 9.672 9.078 1.71 7.08 8.844 10.068 6 11.6 0c-.002 0-2.936-14.772-18.68-18.516zm-27.378 6.6s5.928 1.356 2.79 6.78-1.584 4.854-.936 7.992 5.118 16.482-8.94 14.52a25.868 25.868 0 017.086-29.292zm10.95 1.78s-4.494.426-3.1 4.92 6 .858 5.67 4.8 7.062 6.54 8.136 1.932S49.8 31.482 41.436 33.946zm-2.724 27.701s-3.474-.087-2.724 2.7 5.88 5.238 6.6 1.2-1.362-3.909-3.876-3.9zm-.642 16.084a3.763 3.763 0 014.7-2.9c4.02.75 5.844 5.16 9.27 1.4s4.278-3.972 7.38-2.472 4.89-8.73 11-2.49c.002-.001-12.4 15.131-32.35 6.462zm26.808-23.017s-3.852 1.47-5.352-2.9-6.636-1.804-5.886 1.508 0 5.454-2.568 5.346-4.386 4.8-1.068 6 8.13 3.858 11.448-.744 8.562-.318 11.022-3.528-1.5-10.818-7.596-5.682z" fill="#fff"/><circle cx="20.958" cy="20.958" r="20.958" transform="translate(28.866 33.174)" fill="#6c6ce0" opacity=".4"/></g></symbol><symbol viewBox="0 0 98.58 98.58" id="advantages-2" xmlns="http://www.w3.org/2000/svg"><g transform="translate(-.51 -.066)"><circle cx="49.29" cy="49.29" r="49.29" transform="translate(.51 .066)" fill="#c5c5ff"/><path d="M29.802 33.744H61.89a5.34 5.34 0 015.34 5.34v21.918a8.076 8.076 0 01-8.078 8.076h-31V35.4a1.65 1.65 0 011.65-1.65z" fill="#6c6ce0"/><path d="M28.152 40.296h39.966a3.792 3.792 0 013.792 3.792v27.75a3.792 3.792 0 01-3.792 3.792H30.152a2 2 0 01-2-2z" fill="#7575f7"/><path fill="#fff" opacity=".53" d="M28.152 46.5h43.764v3.162H28.152z"/><rect width="20.886" height="8.424" rx="3.684" transform="translate(55.296 55.098)" fill="#fff"/><circle cx="2.28" cy="2.28" r="2.28" transform="translate(68.52 57.03)" fill="#6c6ce0"/><path d="M30.468 40.296l24.6-10.572a3 3 0 014.056 1.92l2.49 8.652z" fill="#fff"/></g></symbol><symbol viewBox="0 0 98.58 98.58" id="advantages-3" xmlns="http://www.w3.org/2000/svg"><g transform="translate(-.51 -.588)"><circle cx="49.29" cy="49.29" r="49.29" transform="translate(.51 .588)" fill="#c5c5ff"/><path d="M75.84 50.332a5.74 5.74 0 00-7.314-6.21 23.892 23.892 0 01-2.916.936.528.528 0 01-.6-.7 27.726 27.726 0 001.938-11c0-.444-.042-.864-.078-1.26-.654-6.5-10.332-5.652-10.284.876a14 14 0 01-1.68 6.924C51.108 46.8 41.478 47.64 41.478 47.64v24.084c2.076.108 2.778.192 3.882.15s2.118-.054 3.174 0l.924.048s12.672.228 18.852-.114c7.8-.432 6.882-5.4 6.882-5.4 3.354-4.314.774-7.41.774-7.41 2.812-4.02-.126-8.666-.126-8.666z" fill="#fff"/><rect width="19.128" height="27.372" rx="5.364" transform="translate(23.01 45.63)" fill="#7575f7"/><path d="M42.138 66s24.708 6.066 32.54 2.91c0 0-1.014 3.252-8.334 3.078l-17.252.174c-.444 0-.894 0-1.338-.036l-6.276-.408z" fill="#ededf2"/><path d="M23.01 66h19.128v3.4a3.6 3.6 0 01-3.6 3.6H26.652a3.642 3.642 0 01-3.642-3.646z" fill="#6c6ce0"/></g></symbol><symbol viewBox="0 0 98.58 98.58" id="advantages-4" xmlns="http://www.w3.org/2000/svg"><g transform="translate(-.51 -.588)"><circle cx="49.29" cy="49.29" r="49.29" transform="translate(.51 .588)" fill="#c5c5ff"/><path d="M32.052 36s-5.826-1.53-6.702 3.156 3.354 17.778 12.114 10.158S32.052 36 32.052 36zm35.496 0s5.826-1.53 6.7 3.156-3.352 17.778-12.112 10.158S67.548 36 67.548 36z" fill="none" stroke="#efefef" stroke-miterlimit="10" stroke-width="1.8"/><rect width="20.778" height="16.932" rx="3.708" transform="translate(40.326 64.59)" fill="#7575f7"/><rect width="15.744" height="11.67" rx="4.068" transform="translate(42.822 67.134)" fill="#6c6ce0"/><path d="M65.01 30.27H35.712a3.216 3.216 0 00-3.18 3.708l1.462 9.486a15.054 15.054 0 008.114 11.172l1.254.634a15.546 15.546 0 0014 0l1.254-.636a15.06 15.06 0 008.112-11.172l1.466-9.484a3.222 3.222 0 00-3.184-3.708z" fill="#fff"/><path fill="#efefef" d="M48.006 56.754h4.668v7.836h-4.668z"/><path d="M61.446 46.098c-1.338 2.664-3.414 5.184-6.6 6m8.874-13.776a23.526 23.526 0 01-.69 3.516" fill="none" stroke="#efefef" stroke-linecap="round" stroke-linejoin="bevel" stroke-miterlimit="10" stroke-width="1.8" opacity=".57"/></g></symbol><symbol viewBox="0 0 98.58 98.58" id="advantages-5" xmlns="http://www.w3.org/2000/svg"><g transform="translate(-.51 -.426)"><circle cx="49.29" cy="49.29" r="49.29" transform="translate(.51 .426)" fill="#c5c5ff"/><rect width="42.06" height="50.808" rx="5.394" transform="translate(31.08 22.902)" fill="#6c6ce0"/><rect width="42.06" height="50.808" rx="5.394" transform="translate(24.306 29.112)" fill="#fff"/><circle cx="10.896" cy="10.896" r="10.896" transform="translate(34.44 35.406)" fill="#7575f7"/><path d="M41.1 45.792l2.712 4.45 5.754-7.6" fill="none" stroke="#fff" stroke-linecap="round" stroke-linejoin="round" stroke-miterlimit="10" stroke-width="3"/><rect width="10.728" height="2.538" rx="1.269" transform="translate(29.598 61.404)" fill="#7575f7" opacity=".28"/><rect width="28.578" height="2.538" rx="1.269" transform="translate(29.598 67.224)" fill="#7575f7" opacity=".1"/></g></symbol><symbol viewBox="0 0 227.37 200.6" id="audience-1" xmlns="http://www.w3.org/2000/svg"><g transform="translate(-.24 -.335)"><ellipse cx="113.685" cy="39.135" rx="113.685" ry="39.135" transform="translate(.24 122.665)" fill="#edebf6"/><path d="M185.035 144.33v27s21.975-10.135 22.035-27v-28.5z" fill="#a3a3ce"/><path d="M116.88 115.815v-43.5s33.535-1.11 61.725 11.77c0 0 28.525 11.58 28.525 31.73 0 0 .395 16.88-22.1 28.5z" fill="#bdbdf0"/><path d="M116.88 115.815v24.15l68.155 31.365v-27l-68.155-28.515z" fill="#8686b7"/><path d="M15.52 104.775v27l53 30.025 37.25-30.025v-27z" fill="#7c7cdd"/><path d="M173.92 132.045l-68.15-28.5v-16.5c-49.85 0-90.25 19.5-90.25 43.5s40.4 43.5 90.25 43.5c27.21 0 51.61-5.805 68.155-15z" fill="#7c7cdd"/><path d="M105.77 103.535v-43.5c-49.85 0-90.25 19.5-90.25 43.5s40.4 43.5 90.25 43.5c27.21 0 51.61-5.805 68.155-15z" fill="#8180ff"/><ellipse cx="7.125" cy="4.245" rx="7.125" ry="4.245" transform="translate(78.235 76.59)" fill="#7c7cdd" opacity=".44"/><path d="M85.36 82.835a2 2 0 01-2-2v-78.5a2 2 0 014 0v78.5a2 2 0 01-2 2z" fill="#6565b7"/><path d="M87.195 4.825l68.33-1v42h-68.33v-41z" fill="#29dd9c"/><path d="M96.42 28.63h-1.595l2.725-7.59h1.77l2.724 7.588h-1.609l-.515-1.443h-3l-.5 1.444zm2-5.83l-1.1 3.17h2.18l-1.08-3.17zm4.605-1.75h1.5v4.69a1.4 1.4 0 001.53 1.585 1.412 1.412 0 001.54-1.585v-4.69h1.535v4.68a2.874 2.874 0 01-3.1 3 2.824 2.824 0 01-3.025-3zm10.23 7.58h-2.65v-7.58h2.65a3.658 3.658 0 014 3.8 3.649 3.649 0 01-4 3.78zm-1.125-6.28v5h1.075a2.276 2.276 0 002.5-2.5 2.276 2.276 0 00-2.5-2.5zm6.265-1.3h1.5v7.58h-1.5zm7.415 1.23h-2.885v1.9h2.57v1.2h-2.55v2h2.88v1.24h-4.4v-7.58h4.4zm7.86-1.24v7.59h-1.5l-3.445-5.2v5.2h-1.5v-7.59h1.5l3.425 5.21v-5.21zm4.97-.085a3.57 3.57 0 013.56 2.45h-1.75a1.91 1.91 0 00-1.82-1.085 2.265 2.265 0 00-2.27 2.5 2.265 2.265 0 002.27 2.5 1.9 1.9 0 001.82-1.1h1.75a3.56 3.56 0 01-3.56 2.46 3.87 3.87 0 010-7.74zm9.255 1.325H145v1.9h2.55v1.2H145v2h2.875v1.24H143.5v-7.58h4.395z" fill="#f8f7ff"/><path d="M87.192 20.62s-.75 18.29 23.5 21.75 30.753 3.45 30.753 3.45H87.192z" fill="#22af79" opacity=".32"/></g></symbol><symbol viewBox="0 0 227.37 200.625" id="audience-2" xmlns="http://www.w3.org/2000/svg"><g transform="translate(-.005)"><ellipse cx="113.685" cy="39.135" rx="113.685" ry="39.135" transform="translate(.005 122.355)" fill="#edebf6"/><path d="M14.105 104.74v27l30.735 31.455 59.515-35.465V103.5l-90.25 1.24z" fill="#7c7cdd"/><path d="M44.84 163.195v-27l59.5-32.695V87c-49.835 0-90.235 19.5-90.235 43.5 0 13.03 11.9 24.725 30.735 32.695z" fill="#7c7cdd"/><path d="M44.84 136.195l59.5-32.695V60c-49.835 0-90.235 19.5-90.235 43.5 0 13.03 11.9 24.725 30.735 32.695z" fill="#8180ff"/><path d="M115.875 115.505v24.15l68.155 31.365v-27l-68.155-28.515z" fill="#8686b7"/><path d="M184.03 144v27s21.975-10.135 22.035-27v-28.5z" fill="#a3a3ce"/><path d="M115.875 115.5V72s33.535-1.11 61.725 11.77c0 0 28.525 11.58 28.525 31.73 0 0 .395 16.88-22.1 28.5z" fill="#bdbdf0"/><path d="M56.365 148.18v27s61.56 28.655 127.665-4.18v-27s-72.78 19.54-127.665 4.18z" fill="#9292a5"/><path d="M115.875 115.5l-59.5 32.7s64.215 29.635 127.655-4.2z" fill="#acacc1"/><ellipse cx="7.125" cy="4.245" rx="7.125" ry="4.245" transform="translate(77.23 76.28)" fill="#7c7cdd" opacity=".44"/><path d="M84.355 82.525a2 2 0 01-2-2V2a2 2 0 014 0v78.5a2 2 0 01-2 2.025z" fill="#6565b7"/><path d="M86.19 4.515l68.33-1v42H86.19v-41z" fill="#29dd9c"/><path d="M95.415 28.32H93.82l2.725-7.59h1.77l2.724 7.588H99.43l-.515-1.443h-3l-.5 1.444zm2-5.83l-1.1 3.17H98.5l-1.085-3.17zM102 20.74h1.5v4.69a1.407 1.407 0 001.53 1.585 1.41 1.41 0 001.545-1.585v-4.69h1.53v4.68a2.874 2.874 0 01-3.1 3 2.824 2.824 0 01-3.025-3zm10.25 7.58h-2.65v-7.58h2.65a3.658 3.658 0 014 3.8 3.649 3.649 0 01-4 3.78zm-1.125-6.28v5h1.075a2.276 2.276 0 002.5-2.5 2.276 2.276 0 00-2.5-2.5zm6.265-1.3h1.5v7.58h-1.5zm7.415 1.225h-2.88v1.9h2.575v1.205h-2.555v2h2.88v1.24h-4.4v-7.58h4.4zm7.86-1.235v7.59h-1.5l-3.465-5.205v5.205h-1.5v-7.59h1.5l3.445 5.21v-5.21zm4.97-.09a3.575 3.575 0 013.564 2.455h-1.754a1.91 1.91 0 00-1.82-1.1 2.262 2.262 0 00-2.27 2.5 2.262 2.262 0 002.27 2.5 1.9 1.9 0 001.82-1.1h1.754a3.565 3.565 0 01-3.56 2.455 3.875 3.875 0 01-.004-7.735zm9.26 1.325H144v1.9h2.55v1.205H144v2h2.88v1.24h-4.38v-7.58h4.4z" fill="#f8f7ff"/><path d="M86.187 20.305s-.75 18.3 23.5 21.75 30.75 3.46 30.75 3.46h-54.25z" fill="#22af79" opacity=".32"/></g></symbol><symbol viewBox="0 0 227.37 198.475" id="audience-3" xmlns="http://www.w3.org/2000/svg"><g transform="translate(-.15 -.25)"><ellipse cx="113.685" cy="39.135" rx="113.685" ry="39.135" transform="translate(.15 120.455)" fill="#edebf6"/><path d="M27.84 77.835s25.66-21.19 75.9-19.96v43.5z" fill="#8180ff"/><path d="M27.84 77.835v23.54l75.8 24.845v-24.845l-75.8-23.54z" fill="#7c7cdd"/><path d="M182.095 142.12v27s21.97-10.135 22.03-27v-28.5z" fill="#a3a3ce"/><path d="M113.94 113.605v-43.5s33.53-1.11 61.725 11.77c0 0 28.5 11.58 28.5 31.73 0 0 .4 16.88-22.09 28.5z" fill="#bdbdf0"/><path d="M113.94 113.605v24.15l68.155 31.365v-27l-68.155-28.515z" fill="#8686b7"/><path d="M23.69 114.82v27l53 30.03 37.25-30.03v-27z" fill="#7c7cdd"/><path d="M54.425 146.28v27s61.575 28.655 127.67-4.185v-27s-72.78 19.545-127.67 4.185z" fill="#a3a3ce"/><path d="M113.94 113.58l-59.5 32.7s66.105 28.665 129.545-5.175z" fill="#bdbdf0"/><path d="M113.943 113.58L38.035 90.045s-15.345 10.1-14.345 24.775c0 0 1.225 21 30.735 31.46z" fill="#acacc1"/><path d="M23.69 113.58v28.24s.06 8.965 8.445 17.16c0 0 9.74 9.75 22.29 14.305v-27S24.94 135.41 23.69 113.58z" fill="#9292a5"/><ellipse cx="7.125" cy="4.245" rx="7.125" ry="4.245" transform="translate(75.19 76.505)" fill="#7c7cdd" opacity=".44"/><path d="M82.315 82.75a2 2 0 01-2-2V2.25a2 2 0 014 0v78.5a2 2 0 01-2 2z" fill="#6565b7"/><path d="M84.15 4.74l68.33-1v42H84.15v-41z" fill="#29dd9c"/><path d="M93.38 28.541h-1.595l2.715-7.586h1.77L99 28.539h-1.605l-.515-1.44h-3l-.5 1.44zm2-5.831l-1.095 3.17h2.19l-1.1-3.17zm4.62-1.745h1.5v4.69a1.408 1.408 0 001.535 1.585 1.41 1.41 0 001.54-1.585v-4.69h1.53v4.68a2.854 2.854 0 01-3.1 2.975 2.817 2.817 0 01-3.025-2.975zm10.215 7.575h-2.65v-7.575h2.65a3.658 3.658 0 014 3.8 3.648 3.648 0 01-4 3.775zm-1.125-6.275v5h1.075a2.276 2.276 0 002.5-2.5 2.276 2.276 0 00-2.5-2.5zm6.26-1.3h1.5v7.575h-1.5zm7.415 1.225h-2.875v1.9h2.55v1.205h-2.55v2h2.875v1.235h-4.395v-7.575h4.395zm7.86-1.235v7.585h-1.5l-3.44-5.2v5.2h-1.5v-7.585h1.5l3.44 5.21v-5.21zm4.97-.09a3.57 3.57 0 013.56 2.455h-1.745a1.915 1.915 0 00-1.825-1.085 2.262 2.262 0 00-2.27 2.5 2.262 2.262 0 002.27 2.5 1.91 1.91 0 001.825-1.1h1.745a3.555 3.555 0 01-3.56 2.455 3.87 3.87 0 010-7.74zm9.26 1.325H142v1.9h2.55v1.205H142v2h2.875v1.235h-4.395v-7.575h4.395z" fill="#f8f7ff"/><path d="M84.147 20.53s-.75 18.29 23.5 21.75 30.75 3.46 30.75 3.46h-54.25z" fill="#22af79" opacity=".32"/></g></symbol><symbol viewBox="0 0 227.37 212.235" id="audience-4" xmlns="http://www.w3.org/2000/svg"><g transform="translate(-.43 -.2)"><ellipse cx="113.685" cy="39.135" rx="113.685" ry="39.135" transform="translate(.43 134.165)" fill="#edebf6"/><path d="M69 70.175A125.68 125.68 0 01107.64 66v43.5z" fill="#8180ff"/><path d="M69.015 70.175V86.96l38.51 40.335.115-17.8-38.625-39.32z" fill="#7c7cdd"/><path d="M182.295 155.83v27s21.97-10.135 22.03-27v-28.5z" fill="#a3a3ce"/><path d="M114.135 127.315v-43.5S147.67 82.7 175.86 95.58c0 0 28.5 11.585 28.5 31.73 0 0 .4 16.88-22.09 28.5z" fill="#bdbdf0"/><path d="M114.135 127.315v24.15l68.155 31.365v-27l-68.155-28.515z" fill="#8686b7"/><path d="M23.89 128.535v27l53 30.025 37.245-30.025v-27z" fill="#7c7cdd"/><path d="M54.625 160v27s61.56 28.655 127.67-4.185v-27S109.5 175.35 54.625 160z" fill="#a3a3ce"/><path d="M114.135 127.295L54.625 160s66.105 28.67 129.545-5.17zm0 0l-75.9-23.54s-15.345 10.1-14.345 24.78c0 0 1.22 21 30.735 31.455z" fill="#bdbdf0"/><path d="M23.89 127.295v28.24s.055 8.96 8.445 17.16c0 0 9.735 9.745 22.29 14.3V160S25.14 149.12 23.89 127.295z" fill="#a3a3ce"/><path d="M114.135 127.295L75.5 87.97s-24.915 5.905-37.275 15.785z" fill="#acacc1"/><ellipse cx="7.125" cy="4.245" rx="7.125" ry="4.245" transform="translate(88.325 76.465)" fill="#7c7cdd" opacity=".44"/><path d="M95.45 82.71a2 2 0 01-2-2V2.2a2 2 0 114 0v78.5a2 2 0 01-2 2.01z" fill="#6565b7"/><path d="M97.285 4.7l68.335-1v42H97.285v-41z" fill="#29dd9c"/><path d="M106.5 28.5h-1.6l2.725-7.59h1.77l2.724 7.588H110.5l-.5-1.438h-3l-.5 1.44zm2-5.825l-1.1 3.17h2.2l-1.1-3.17zm4.615-1.75h1.5v4.69a1.4 1.4 0 001.53 1.585 1.41 1.41 0 001.545-1.585v-4.69h1.53v4.68a2.874 2.874 0 01-3.1 3 2.824 2.824 0 01-3.025-3zm10.235 7.58h-2.645v-7.58h2.645a3.658 3.658 0 014 3.8 3.649 3.649 0 01-4 3.78zm-1.125-6.28v5h1.075a2.276 2.276 0 002.5-2.5 2.276 2.276 0 00-2.5-2.5zm6.275-1.3h1.5V28.5h-1.5zm7.4 1.23h-2.875v1.9h2.55v1.2h-2.55v2h2.875v1.24h-4.4v-7.58h4.395zm7.86-1.24V28.5h-1.5l-3.44-5.2v5.2h-1.5v-7.585h1.5l3.44 5.21v-5.21zm4.97-.085a3.57 3.57 0 013.56 2.45h-1.745a1.915 1.915 0 00-1.825-1.085 2.262 2.262 0 00-2.27 2.5 2.262 2.262 0 002.27 2.5 1.9 1.9 0 001.825-1.1h1.745a3.555 3.555 0 01-3.56 2.46 3.87 3.87 0 010-7.74zm9.27 1.325h-2.88v1.9h2.555v1.2h-2.555v2H158v1.24h-4.4v-7.58h4.4z" fill="#f8f7ff"/><path d="M97.282 20.5s-.75 18.29 23.5 21.75 30.753 3.45 30.753 3.45H97.282z" fill="#22af79" opacity=".32"/></g></symbol><symbol viewBox="0 0 145.76 168.535" id="audience-5" xmlns="http://www.w3.org/2000/svg"><g transform="translate(-.085 -.385)"><ellipse cx="72.88" cy="25.965" rx="72.88" ry="25.965" transform="translate(.085 116.99)" fill="#edebf6"/><path d="M20.285 51.905C15 61 4.895 81.385 7.5 100.452a7.4 7.4 0 007.93 6.35l112.925-8.925a1.91 1.91 0 00.625-3.645L28.385 49.31a6.365 6.365 0 00-8.1 2.595z" fill="#8180ff"/><path d="M8.275 102.835l8.66 26.73a9.28 9.28 0 009.61 6.385l98.955-9.09a5.625 5.625 0 005.11-5.73l-.54-24.63z" fill="#7c7cdd"/><ellipse cx="7.125" cy="4.245" rx="7.125" ry="4.245" transform="translate(46.835 76.64)" fill="#7c7cdd" opacity=".44"/><path d="M53.96 82.885a2 2 0 01-2-2v-78.5a2 2 0 014 0v78.5a2 2 0 01-2 2z" fill="#6565b7"/><path d="M55.795 4.875l68.33-1v42h-68.33v-41z" fill="#29dd9c"/><path d="M65 28.676h-1.595l2.725-7.586h1.77l2.724 7.584h-1.619l-.5-1.44h-3l-.5 1.44zm2-5.831L65.915 26h2.2zm4.625-1.745h1.5v4.69a1.407 1.407 0 001.53 1.585A1.41 1.41 0 0076.2 25.79V21.1h1.53v4.68a2.874 2.874 0 01-3.1 3 2.824 2.824 0 01-3.025-3zm10.23 7.575h-2.65V21.1h2.65a3.658 3.658 0 014 3.8 3.648 3.648 0 01-4 3.775zm-1.12-6.275v5h1.07a2.276 2.276 0 002.5-2.5 2.276 2.276 0 00-2.5-2.5zM87 21.1h1.5v7.575H87zm7.41 1.225h-2.875v1.9h2.55v1.205h-2.55v2h2.875v1.235H90V21.09h4.395zm7.86-1.235v7.585h-1.5L97.305 23.5v5.2h-1.5v-7.61h1.5l3.445 5.21v-5.21zm4.97-.09a3.57 3.57 0 013.56 2.455h-1.75a1.9 1.9 0 00-1.82-1.085 2.262 2.262 0 00-2.27 2.5 2.262 2.262 0 002.27 2.5 1.9 1.9 0 001.82-1.1h1.75a3.56 3.56 0 01-3.56 2.455 3.87 3.87 0 010-7.74zm9.26 1.325h-2.88v1.9h2.55v1.205h-2.55v2h2.88v1.235h-4.4V21.09h4.4z" fill="#f8f7ff"/><path d="M55.792 20.665s-.75 18.29 23.5 21.75 30.75 3.46 30.75 3.46h-54.25z" fill="#22af79" opacity=".32"/></g></symbol><symbol viewBox="0 0 231.71 206.18" id="audience-6" xmlns="http://www.w3.org/2000/svg"><g transform="translate(-.265 -.23)"><ellipse cx="115.855" cy="17.39" rx="115.855" ry="17.39" transform="translate(.265 171.63)" fill="#edebf6"/><circle cx="70.54" cy="70.54" r="70.54" transform="translate(46.515 1.725)" fill="#c5c6ff"/><path d="M111.295 74.415l-4.2 27.37h18.05v-25.78l-13.85-1.59z" fill="#ea8373"/><path d="M103.055 52.497s-4.81 27.755 8.245 30.71 21.64-3.915 20.955-28.65-28.34-13.06-29.2-2.06z" fill="#ff9680"/><path d="M102.46 57.445s-3-5.255-6.86-.5 7.5 10.655 7.5 10.655zm28.715 0s3-5.255 6.86-.5-7.5 10.655-7.5 10.655z" fill="#ff9680"/><path d="M74.92 127.815S77.22 103 107.45 99.5h17.695s32.415 3.115 37.03 25.835c0 0-17.7 16.73-46.055 16.705 0-.015-22.75 1.28-41.2-14.225z" fill="#29dd9c"/><path d="M107.45 99.5s29.055 27.3 50.24 15.5c0 0-10.74-13.23-32.545-15.5z" fill="#323144" opacity=".07"/><path d="M98.955 49.23l3.43 16.35 2.405-12s20.2 3.125 24.77-4.33c0 0-1.125 12.665 2.08 17.755l3.04-12s8.585-11.745 1.855-18.5c0 0-3.37-18.5-22.6-13.945s-16.85 17.75-14.98 26.67z" fill="#e8c05b"/><path d="M117.055 144.305a72.037 72.037 0 1172.045-72.04 72.129 72.129 0 01-72.045 72.04zm0-141.075a69.038 69.038 0 1069.04 69.035 69.123 69.123 0 00-69.04-69.035zm-69.3 134.745l-21.2 40.54 17.97-8.43 12.87-27.885-9.64-4.225z" fill="#6d6dbc"/><path d="M66.3 146.195L50.21 189.02l-5.7-19.015 12.22-28.18 9.57 4.37z" fill="#c5c6ff"/><path d="M86.22 137.975l21.2 40.54-17.965-8.43-12.87-27.885 9.635-4.225z" fill="#6d6dbc"/><path d="M67.68 146.195l16.095 42.825 5.69-19.015-12.215-28.18-9.57 4.37z" fill="#c5c6ff"/><circle cx="24.81" cy="24.81" r="24.81" transform="translate(42.18 96.585)" fill="#dca925"/><circle cx="24.81" cy="24.81" r="24.81" transform="translate(42.18 101.25)" fill="#f6d439"/><circle cx="20.565" cy="20.565" r="20.565" transform="translate(46.425 105.495)" fill="#e8b81e"/><path d="M81.165 117.79a.885.885 0 01-.74-.4 16.735 16.735 0 00-2.928-3.39.887.887 0 011.168-1.335 18.5 18.5 0 013.25 3.735.89.89 0 01-.255 1.23.86.86 0 01-.495.16zm-5.925-5.595a.85.85 0 01-.445-.12 20 20 0 00-8.3-2.63.886.886 0 01.075-1.771 21.5 21.5 0 019.11 2.87.885.885 0 01-.45 1.65z" fill="#f6d439"/><path d="M66.05 144.691a15.31 15.31 0 01-2.145-.15.885.885 0 01.25-1.75 13.92 13.92 0 002.78.1.9.9 0 01.94.83.89.89 0 01-.83.94c-.33.024-.665.03-.995.03zM61 143.79a.93.93 0 01-.305-.05 20.5 20.5 0 01-9.275-7.305.892.892 0 011.5-.965 19.007 19.007 0 008.4 6.6.885.885 0 01-.3 1.715z" fill="#f6d439" opacity=".47"/></g></symbol><symbol viewBox="0 0 101.736 101.736" id="how-1" xmlns="http://www.w3.org/2000/svg"><g transform="translate(-.336 -.234)"><circle cx="50.868" cy="50.868" r="50.868" transform="translate(.336 .234)" fill="#3de4e8"/><path d="M75.188 46.006v28a2.892 2.892 0 01-2.892 2.9H26.588a2.9 2.9 0 01-2.9-2.9v-35.4a2.9 2.9 0 012.9-2.9H64.62" fill="#12a9cc"/><path d="M81.962 39.552v28a2.9 2.9 0 01-2.9 2.9H33.354a2.892 2.892 0 01-2.892-2.898v-35.4a2.892 2.892 0 012.892-2.892H71.4" fill="#fff"/><path d="M71.4 29.256v8.046a2.25 2.25 0 002.256 2.254h8.3z" fill="#12a9cc"/><rect width="19.242" height="19.242" rx="1.866" transform="translate(36.414 42.924)" fill="#179aaf"/><rect width="5.904" height="2.622" rx=".45" transform="translate(60.318 46.17)" fill="#12a9cc" opacity=".28"/><rect width="15.738" height="2.622" rx=".45" transform="translate(60.318 51.24)" fill="#12a9cc" opacity=".1"/><rect width="15.738" height="2.622" rx=".45" transform="translate(60.318 56.304)" fill="#12a9cc" opacity=".1"/></g></symbol><symbol viewBox="0 0 101.736 101.736" id="how-2" xmlns="http://www.w3.org/2000/svg"><g transform="translate(-.366 -.372)"><circle cx="50.868" cy="50.868" r="50.868" transform="translate(.366 .372)" fill="#3de4e8"/><path d="M19.758 51.732l30.7 20.124a5.562 5.562 0 007.326-1.1l25.05-30.1a3.45 3.45 0 00-3.388-5.574l-59 12.921a2.07 2.07 0 00-.69 3.732z" fill="#fff"/><path d="M28.854 57.42l1.8 13.47a1.536 1.536 0 002.958.33l3.228-8.718 37.332-21.066a1.116 1.116 0 00-.966-2z" fill="#12a9cc"/><path d="M32.862 72.078l10.866-4.638-6.866-4.938-4 9.576z" fill="#179aaf"/></g></symbol><symbol viewBox="0 0 101.736 101.736" id="how-3" xmlns="http://www.w3.org/2000/svg"><g transform="translate(-.132 -.45)"><circle cx="50.868" cy="50.868" r="50.868" transform="translate(.132 .45)" fill="#3de4e8"/><rect width="48.432" height="42.996" rx="2.172" transform="translate(28.374 36.312)" fill="#179aaf"/><rect width="48.432" height="42.996" rx="2.172" transform="translate(22.098 28.836)" fill="#fff"/><path d="M37.262 58.454a8.358 8.358 0 01-.001-16.716h.263a8.173 8.173 0 013 .6l.156.06a13.444 13.444 0 014.968 3.9c.3.355.608.736.918 1.134l.238-.284c3.559-4.4 5.59-4.79 5.611-4.793a8.279 8.279 0 012.849-.6h.34a8.271 8.271 0 012.821.522l-.129-.079a3.4 3.4 0 01.33.14c.159.059.314.124.474.2a8.1 8.1 0 01.9.492c.049.031.1.061.15.09.083.049.168.1.246.155a8.3 8.3 0 011.032.852l.1.084a8.78 8.78 0 01.926 1.127c.069.1.129.205.192.313l.042.071a8.342 8.342 0 01.491.912c.066.143.131.294.2.474a8.116 8.116 0 01.306 1c.013.047.028.093.043.139a1.049 1.049 0 01.071.323 8.1 8.1 0 01.156 1.536v.006a8.352 8.352 0 01-8.351 8.286h-.089a8.283 8.283 0 01-3.1-.6h-.149l-.24-.1-.114-.054a4.729 4.729 0 01-.491-.246 16.57 16.57 0 01-4.063-3.271c-.34-.366-.65-.716-.948-1.067l-.078-.1c-3.564 4.508-5.667 4.881-5.688 4.884a8.158 8.158 0 01-2.844.6h-.36zm18.376-13.466a6.019 6.019 0 00-4.266 2.166c-.949 1-2.79 3.082-2.808 3.1l.139.156.108.12.126.139.174.192.144.15.276.293a41.293 41.293 0 002.118 2.052 6.084 6.084 0 003.99 1.878 5.124 5.124 0 100-10.248zm-18.228 0a5.124 5.124 0 100 10.248 6.091 6.091 0 004.272-2.172c.95-1 2.8-3.07 2.82-3.091 0 0-.092-.11-.252-.282l-.1-.108-.192-.21-.154-.173-.24-.246a37.21 37.21 0 00-2.16-2.088 6.089 6.089 0 00-3.994-1.878z" fill="#12a9cc"/></g></symbol><symbol viewBox="0 0 101.736 101.736" id="how-4" xmlns="http://www.w3.org/2000/svg"><g transform="translate(-.132 -.372)"><circle cx="50.868" cy="50.868" r="50.868" transform="translate(.132 .372)" fill="#3de4e8"/><path d="M71.226 69.042l-.948-8.67a10.584 10.584 0 00-3.762-6.972L61.8 49.446a16.29 16.29 0 00-20.8 0L36.222 53.4a10.584 10.584 0 00-3.762 6.993l-.948 8.67a5.13 5.13 0 005.088 5.67h29.526a5.124 5.124 0 005.1-5.688z" fill="#12a9cc"/><circle cx="13.002" cy="13.002" r="13.002" transform="translate(38.37 24.03)" fill="#fff"/><circle cx="11.514" cy="11.514" r="11.514" transform="translate(40.224 62.082)" fill="#179aaf"/><path d="M47.436 74.066l2.76 4.522 5.84-7.722" fill="none" stroke="#fff" stroke-linecap="round" stroke-linejoin="round" stroke-miterlimit="10" stroke-width="3"/></g></symbol><symbol viewBox="0 0 101.736 101.736" id="how-5" xmlns="http://www.w3.org/2000/svg"><g transform="translate(-.468 -.372)"><circle cx="50.868" cy="50.868" r="50.868" transform="translate(.468 .372)" fill="#3de4e8"/><path d="M38.406 47.088L24.324 74.01l11.934-5.6 8.55-18.516-6.402-2.806z" fill="#179aaf"/><path d="M50.718 52.544L40.032 80.988l-3.78-12.63 8.112-18.714 6.354 2.9z" fill="#12a9cc"/><path d="M63.952 47.088L78.03 74.01l-11.934-5.6-8.544-18.514 6.4-2.808z" fill="#179aaf"/><path d="M51.636 52.544l10.692 28.44 3.78-12.63-8.118-18.71-6.354 2.9z" fill="#12a9cc"/><circle cx="16.476" cy="16.476" r="16.476" transform="translate(34.704 22.698)" fill="#fff"/></g></symbol><symbol viewBox="0 0 22 70" id="main-number" xmlns="http://www.w3.org/2000/svg"><path d="M.679 69.13L0 69.979V0h4v61.154l15.175-15.188L22 48.794.806 70z" fill="#fff"/></symbol></svg>